M48
;GenerationSoftware,Autodesk,EAGLE,9.6.2*%
;CreationDate,2022-08-10T07:48:32Z*%
FMAT,2
ICI,OFF
METRIC,TZ,000.000
T4C0.300
T3C0.700
T2C1.016
T1C3.302
%
G90
M71
T1
X55626Y72136
X107442Y123952
X3810Y20320
X21590Y20320
X21590Y72136
X29718Y98044
X47498Y98044
X29718Y20320
X47498Y20320
X81534Y123952
X29718Y72136
X47498Y72136
X55626Y20320
X73406Y20320
X3810Y123952
X21590Y123952
X55626Y98044
X81534Y20320
X99314Y20320
X73406Y98044
X73406Y72136
X55626Y123952
X107442Y20320
X125222Y20320
X73406Y123952
X99314Y123952
X81534Y72136
X3810Y46228
X21590Y46228
X99314Y72136
X81534Y98044
X125222Y123952
X29718Y46228
X47498Y46228
X99314Y98044
X3810Y72136
X107442Y72136
X55626Y46228
X73406Y46228
X125222Y72136
X29718Y123952
X47498Y123952
X81534Y46228
X99314Y46228
X107442Y98044
X3810Y98044
X21590Y98044
X107442Y46228
X125222Y46228
X125222Y98044
T2
X121412Y104902
X90424Y78994
X33528Y27178
X7620Y1270
X10160Y1270
X12700Y1270
X15240Y1270
X17780Y1270
X33528Y1270
X36068Y1270
X38608Y1270
X41148Y1270
X43688Y1270
X59436Y1270
X61976Y1270
X64516Y1270
X67056Y1270
X69596Y1270
X85344Y1270
X87884Y1270
X90424Y1270
X92964Y1270
X95504Y1270
X111252Y1270
X113792Y1270
X116332Y1270
X118872Y1270
X121412Y1270
X7620Y27178
X10160Y27178
X12700Y27178
X15240Y27178
X17780Y27178
X36068Y27178
X38608Y27178
X41148Y27178
X43688Y27178
X59436Y27178
X61976Y27178
X64516Y27178
X67056Y27178
X69596Y27178
X85344Y27178
X87884Y27178
X90424Y27178
X92964Y27178
X95504Y27178
X111252Y27178
X113792Y27178
X116332Y27178
X118872Y27178
X121412Y27178
X7620Y53086
X10160Y53086
X12700Y53086
X15240Y53086
X17780Y53086
X33528Y53086
X36068Y53086
X38608Y53086
X41148Y53086
X43688Y53086
X59436Y53086
X61976Y53086
X64516Y53086
X67056Y53086
X69596Y53086
X85344Y53086
X87884Y53086
X90424Y53086
X92964Y53086
X95504Y53086
X111252Y53086
X113792Y53086
X116332Y53086
X118872Y53086
X121412Y53086
X7620Y78994
X10160Y78994
X12700Y78994
X15240Y78994
X17780Y78994
X33528Y78994
X36068Y78994
X38608Y78994
X41148Y78994
X43688Y78994
X59436Y78994
X61976Y78994
X64516Y78994
X67056Y78994
X69596Y78994
X85344Y78994
X87884Y78994
X92964Y78994
X95504Y78994
X111252Y78994
X113792Y78994
X116332Y78994
X118872Y78994
X121412Y78994
X7620Y104902
X10160Y104902
X12700Y104902
X15240Y104902
X17780Y104902
X33528Y104902
X36068Y104902
X38608Y104902
X41148Y104902
X43688Y104902
X59436Y104902
X61976Y104902
X64516Y104902
X67056Y104902
X69596Y104902
X85344Y104902
X87884Y104902
X90424Y104902
X92964Y104902
X95504Y104902
X111252Y104902
X113792Y104902
X116332Y104902
X118872Y104902
T3
X34958Y95894
X42258Y95894
X42258Y100194
X60866Y95894
X68166Y95894
X68166Y100194
X94074Y95894
X94074Y100194
X112682Y95894
X119982Y95894
X119982Y100194
X9050Y121802
X16350Y121802
X16350Y126102
X34958Y121802
X42258Y121802
X42258Y126102
X60866Y121802
X68166Y121802
X68166Y126102
X86774Y121802
X94074Y126102
X112682Y121802
X119982Y121802
X94074Y121802
X9050Y18170
X16350Y18170
X16350Y22470
X34958Y18170
X42258Y18170
X42258Y22470
X60866Y18170
X68166Y18170
X68166Y22470
X86774Y18170
X94074Y18170
X94074Y22470
X112682Y18170
X119982Y18170
X119982Y22470
X9050Y44078
X16350Y44078
X34958Y44078
X86774Y95894
X42258Y44078
X42258Y48378
X60866Y44078
X68166Y44078
X68166Y48378
X86774Y44078
X94074Y44078
X94074Y48378
X112682Y44078
X119982Y44078
X119982Y48378
X9050Y69986
X119982Y126102
X16350Y69986
X16350Y74286
X34958Y69986
X42258Y69986
X42258Y74286
X16350Y48378
X60866Y69986
X68166Y69986
X68166Y74286
X86774Y69986
X94074Y69986
X94074Y74286
X112682Y69986
X119982Y69986
X119982Y74286
X9050Y95894
X16350Y95894
X16350Y100194
T4
X62230Y36068
X66802Y36068
X62611Y43053
X68326Y41656
X70866Y37973
X73406Y37973
X90424Y34798
X86614Y38608
X81534Y37973
X88519Y40767
X85979Y46228
X90424Y43053
X94869Y46228
X95504Y38608
X96774Y42418
X99314Y42418
X96774Y30734
X84074Y33782
X85979Y41783
X80264Y32258
X101854Y32258
X98044Y27178
X92964Y33528
X87884Y33528
X92964Y28956
X84074Y30734
X92964Y41656
X89408Y43053
X84074Y31750
X90424Y29718
X92329Y43053
X84074Y37973
X88138Y36068
X92710Y36068
X88519Y43053
X94234Y41656
X96774Y37973
X99314Y37973
X116332Y34798
X112522Y38608
X107442Y37973
X114427Y40767
X111887Y46228
X116332Y43053
X120777Y46228
X121412Y38608
X122682Y42418
X125222Y42418
X122682Y30734
X109982Y33782
X111887Y41783
X106172Y32258
X127762Y32258
X123952Y27178
X118872Y33528
X113792Y33528
X118872Y28956
X109982Y30734
X118872Y41656
X115316Y43053
X109982Y31750
X116332Y29718
X118237Y43053
X109982Y37973
X114046Y36068
X118618Y36068
X114427Y43053
X120142Y41656
X122682Y37973
X125222Y37973
X12700Y60706
X8890Y64516
X3810Y63881
X10795Y66675
X8255Y72136
X12700Y68961
X17145Y72136
X17780Y64516
X19050Y68326
X21590Y68326
X19050Y56642
X6350Y59690
X8255Y67691
X2540Y58166
X24130Y58166
X20320Y53086
X15240Y59436
X10160Y59436
X15240Y54864
X6350Y56642
X15240Y67564
X11684Y68961
X6350Y57658
X12700Y55626
X14605Y68961
X6350Y63881
X10414Y61976
X14986Y61976
X10795Y68961
X16510Y67564
X19050Y63881
X21590Y63881
X38608Y60706
X34798Y64516
X29718Y63881
X36703Y66675
X34163Y72136
X38608Y68961
X43053Y72136
X43688Y64516
X44958Y68326
X47498Y68326
X44958Y56642
X32258Y59690
X34163Y67691
X28448Y58166
X50038Y58166
X46228Y53086
X41148Y59436
X36068Y59436
X41148Y54864
X32258Y56642
X41148Y67564
X37592Y68961
X32258Y57658
X38608Y55626
X40513Y68961
X32258Y63881
X36322Y61976
X40894Y61976
X36703Y68961
X42418Y67564
X44958Y63881
X47498Y63881
X64516Y60706
X60706Y64516
X55626Y63881
X62611Y66675
X60071Y72136
X64516Y68961
X68961Y72136
X69596Y64516
X70866Y68326
X73406Y68326
X70866Y56642
X58166Y59690
X60071Y67691
X54356Y58166
X75946Y58166
X72136Y53086
X67056Y59436
X61976Y59436
X67056Y54864
X58166Y56642
X67056Y67564
X63500Y68961
X58166Y57658
X64516Y55626
X66421Y68961
X58166Y63881
X62230Y61976
X66802Y61976
X62611Y68961
X68326Y67564
X70866Y63881
X73406Y63881
X90424Y60706
X86614Y64516
X81534Y63881
X88519Y66675
X85979Y72136
X90424Y68961
X94869Y72136
X95504Y64516
X96774Y68326
X99314Y68326
X96774Y56642
X84074Y59690
X85979Y67691
X80264Y58166
X101854Y58166
X98044Y53086
X92964Y59436
X87884Y59436
X92964Y54864
X84074Y56642
X92964Y67564
X89408Y68961
X84074Y57658
X90424Y55626
X92329Y68961
X84074Y63881
X88138Y61976
X92710Y61976
X88519Y68961
X94234Y67564
X96774Y63881
X99314Y63881
X116332Y60706
X112522Y64516
X107442Y63881
X114427Y66675
X111887Y72136
X116332Y68961
X120777Y72136
X121412Y64516
X122682Y68326
X125222Y68326
X122682Y56642
X109982Y59690
X111887Y67691
X106172Y58166
X127762Y58166
X123952Y53086
X118872Y59436
X113792Y59436
X118872Y54864
X109982Y56642
X118872Y67564
X115316Y68961
X109982Y57658
X116332Y55626
X118237Y68961
X109982Y63881
X114046Y61976
X118618Y61976
X114427Y68961
X120142Y67564
X122682Y63881
X125222Y63881
X12700Y86614
X8890Y90424
X3810Y89789
X10795Y92583
X8255Y98044
X12700Y94869
X17145Y98044
X17780Y90424
X19050Y94234
X21590Y94234
X19050Y82550
X6350Y85598
X8255Y93599
X2540Y84074
X24130Y84074
X20320Y78994
X15240Y85344
X10160Y85344
X15240Y80772
X6350Y82550
X15240Y93472
X11684Y94869
X6350Y83566
X12700Y81534
X14605Y94869
X6350Y89789
X10414Y87884
X14986Y87884
X10795Y94869
X16510Y93472
X19050Y89789
X21590Y89789
X38608Y86614
X34798Y90424
X29718Y89789
X36703Y92583
X34163Y98044
X38608Y94869
X43053Y98044
X43688Y90424
X44958Y94234
X47498Y94234
X44958Y82550
X32258Y85598
X34163Y93599
X114427Y14859
X50038Y84074
X46228Y78994
X41148Y85344
X36068Y85344
X41148Y80772
X32258Y82550
X41148Y93472
X37592Y94869
X32258Y83566
X38608Y81534
X40513Y94869
X32258Y89789
X36322Y87884
X40894Y87884
X36703Y94869
X42418Y93472
X44958Y89789
X47498Y89789
X64516Y86614
X60706Y90424
X55626Y89789
X62611Y92583
X60071Y98044
X64516Y94869
X68961Y98044
X69596Y90424
X70866Y94234
X73406Y94234
X70866Y82550
X58166Y85598
X60071Y93599
X54356Y84074
X75946Y84074
X72136Y78994
X67056Y85344
X61976Y85344
X67056Y80772
X58166Y82550
X67056Y93472
X63500Y94869
X58166Y83566
X64516Y81534
X66421Y94869
X58166Y89789
X62230Y87884
X66802Y87884
X62611Y94869
X68326Y93472
X70866Y89789
X73406Y89789
X90424Y86614
X86614Y90424
X81534Y89789
X88519Y92583
X85979Y98044
X90424Y94869
X94869Y98044
X95504Y90424
X96774Y94234
X99314Y94234
X96774Y82550
X84074Y85598
X85979Y93599
X80264Y84074
X101854Y84074
X98044Y78994
X92964Y85344
X87884Y85344
X92964Y80772
X84074Y82550
X92964Y93472
X89408Y94869
X84074Y83566
X90424Y81534
X92329Y94869
X84074Y89789
X88138Y87884
X92710Y87884
X88519Y94869
X94234Y93472
X96774Y89789
X99314Y89789
X116332Y86614
X112522Y90424
X107442Y89789
X114427Y92583
X111887Y98044
X116332Y94869
X120777Y98044
X121412Y90424
X122682Y94234
X125222Y94234
X122682Y82550
X109982Y85598
X111887Y93599
X106172Y84074
X127762Y84074
X123952Y78994
X118872Y85344
X113792Y85344
X118872Y80772
X109982Y82550
X118872Y93472
X115316Y94869
X109982Y83566
X116332Y81534
X118237Y94869
X109982Y89789
X114046Y87884
X118618Y87884
X114427Y94869
X120142Y93472
X122682Y89789
X125222Y89789
X12700Y112522
X8890Y116332
X3810Y115697
X10795Y118491
X8255Y123952
X12700Y120777
X17145Y123952
X17780Y116332
X19050Y120142
X21590Y120142
X19050Y108458
X6350Y111506
X8255Y119507
X2540Y109982
X24130Y109982
X20320Y104902
X15240Y111252
X10160Y111252
X15240Y106680
X6350Y108458
X15240Y119380
X11684Y120777
X6350Y109474
X12700Y107442
X14605Y120777
X6350Y115697
X10414Y113792
X14986Y113792
X10795Y120777
X16510Y119380
X19050Y115697
X21590Y115697
X38608Y112522
X34798Y116332
X29718Y115697
X36703Y118491
X34163Y123952
X38608Y120777
X43053Y123952
X43688Y116332
X44958Y120142
X47498Y120142
X44958Y108458
X32258Y111506
X34163Y119507
X28448Y109982
X50038Y109982
X46228Y104902
X41148Y111252
X36068Y111252
X41148Y106680
X32258Y108458
X41148Y119380
X37592Y120777
X32258Y109474
X38608Y107442
X40513Y120777
X32258Y115697
X36322Y113792
X40894Y113792
X36703Y120777
X42418Y119380
X44958Y115697
X47498Y115697
X64516Y112522
X60706Y116332
X55626Y115697
X62611Y118491
X60071Y123952
X64516Y120777
X68961Y123952
X69596Y116332
X70866Y120142
X73406Y120142
X70866Y108458
X58166Y111506
X60071Y119507
X54356Y109982
X75946Y109982
X72136Y104902
X67056Y111252
X61976Y111252
X67056Y106680
X58166Y108458
X67056Y119380
X63500Y120777
X58166Y109474
X64516Y107442
X66421Y120777
X58166Y115697
X62230Y113792
X66802Y113792
X62611Y120777
X68326Y119380
X70866Y115697
X73406Y115697
X90424Y112522
X86614Y116332
X81534Y115697
X88519Y118491
X85979Y123952
X90424Y120777
X94869Y123952
X95504Y116332
X96774Y120142
X99314Y120142
X96774Y108458
X84074Y111506
X85979Y119507
X80264Y109982
X101854Y109982
X98044Y104902
X92964Y111252
X87884Y111252
X92964Y106680
X84074Y108458
X92964Y119380
X89408Y120777
X84074Y109474
X90424Y107442
X92329Y120777
X84074Y115697
X88138Y113792
X92710Y113792
X88519Y120777
X94234Y119380
X96774Y115697
X99314Y115697
X116332Y112522
X112522Y116332
X107442Y115697
X114427Y118491
X111887Y123952
X116332Y120777
X120777Y123952
X121412Y116332
X122682Y120142
X125222Y120142
X122682Y108458
X109982Y111506
X111887Y119507
X106172Y109982
X127762Y109982
X123952Y104902
X118872Y111252
X113792Y111252
X118872Y106680
X12700Y8890
X118872Y119380
X115316Y120777
X109982Y109474
X116332Y107442
X118237Y120777
X109982Y115697
X114046Y113792
X118618Y113792
X114427Y120777
X120142Y119380
X122682Y115697
X125222Y115697
X8890Y12700
X3810Y12065
X10795Y14859
X8255Y20320
X12700Y17145
X17145Y20320
X17780Y12700
X19050Y16510
X21590Y16510
X19050Y4826
X6350Y7874
X8255Y15875
X2540Y6350
X24130Y6350
X20320Y1270
X15240Y7620
X10160Y7620
X15240Y3048
X6350Y4826
X15240Y15748
X11684Y17145
X6350Y5842
X12700Y3810
X14605Y17145
X6350Y12065
X10414Y10160
X14986Y10160
X10795Y17145
X16510Y15748
X19050Y12065
X21590Y12065
X38608Y8890
X34798Y12700
X29718Y12065
X36703Y14859
X34163Y20320
X38608Y17145
X43053Y20320
X43688Y12700
X44958Y16510
X47498Y16510
X44958Y4826
X32258Y7874
X34163Y15875
X28448Y6350
X50038Y6350
X46228Y1270
X41148Y7620
X36068Y7620
X41148Y3048
X32258Y4826
X41148Y15748
X37592Y17145
X32258Y5842
X38608Y3810
X40513Y17145
X32258Y12065
X36322Y10160
X40894Y10160
X36703Y17145
X42418Y15748
X44958Y12065
X47498Y12065
X64516Y8890
X60706Y12700
X55626Y12065
X62611Y14859
X60071Y20320
X64516Y17145
X68961Y20320
X69596Y12700
X70866Y16510
X73406Y16510
X70866Y4826
X58166Y7874
X60071Y15875
X54356Y6350
X75946Y6350
X72136Y1270
X67056Y7620
X61976Y7620
X67056Y3048
X58166Y4826
X67056Y15748
X63500Y17145
X58166Y5842
X64516Y3810
X66421Y17145
X58166Y12065
X62230Y10160
X66802Y10160
X62611Y17145
X68326Y15748
X70866Y12065
X73406Y12065
X90424Y8890
X86614Y12700
X81534Y12065
X88519Y14859
X85979Y20320
X90424Y17145
X94869Y20320
X95504Y12700
X96774Y16510
X99314Y16510
X96774Y4826
X84074Y7874
X85979Y15875
X80264Y6350
X101854Y6350
X98044Y1270
X92964Y7620
X87884Y7620
X92964Y3048
X84074Y4826
X92964Y15748
X89408Y17145
X84074Y5842
X28448Y84074
X90424Y3810
X92329Y17145
X84074Y12065
X88138Y10160
X92710Y10160
X88519Y17145
X94234Y15748
X96774Y12065
X99314Y12065
X116332Y8890
X112522Y12700
X107442Y12065
X111887Y20320
X116332Y17145
X120777Y20320
X121412Y12700
X122682Y16510
X125222Y16510
X122682Y4826
X109982Y7874
X111887Y15875
X106172Y6350
X127762Y6350
X123952Y1270
X118872Y7620
X113792Y7620
X118872Y3048
X109982Y4826
X118872Y15748
X115316Y17145
X109982Y5842
X116332Y3810
X118237Y17145
X109982Y12065
X114046Y10160
X118618Y10160
X114427Y17145
X120142Y15748
X122682Y12065
X125222Y12065
X12700Y34798
X8890Y38608
X3810Y37973
X10795Y40767
X8255Y46228
X12700Y43053
X17145Y46228
X17780Y38608
X19050Y42418
X21590Y42418
X19050Y30734
X6350Y33782
X8255Y41783
X2540Y32258
X24130Y32258
X20320Y27178
X15240Y33528
X10160Y33528
X15240Y28956
X6350Y30734
X15240Y41656
X11684Y43053
X6350Y31750
X12700Y29718
X14605Y43053
X6350Y37973
X10414Y36068
X14986Y36068
X10795Y43053
X16510Y41656
X19050Y37973
X21590Y37973
X38608Y34798
X34798Y38608
X29718Y37973
X36703Y40767
X34163Y46228
X38608Y43053
X43053Y46228
X43688Y38608
X44958Y42418
X47498Y42418
X44958Y30734
X32258Y33782
X34163Y41783
X28448Y32258
X50038Y32258
X46228Y27178
X41148Y33528
X36068Y33528
X41148Y28956
X32258Y30734
X41148Y41656
X37592Y43053
X32258Y31750
X38608Y29718
X40513Y43053
X32258Y37973
X36322Y36068
X40894Y36068
X36703Y43053
X42418Y41656
X44958Y37973
X47498Y37973
X64516Y34798
X60706Y38608
X55626Y37973
X62611Y40767
X60071Y46228
X64516Y43053
X68961Y46228
X69596Y38608
X70866Y42418
X73406Y42418
X70866Y30734
X58166Y33782
X60071Y41783
X54356Y32258
X75946Y32258
X72136Y27178
X67056Y33528
X61976Y33528
X67056Y28956
X58166Y30734
X67056Y41656
X63500Y43053
X58166Y31750
X64516Y29718
X66421Y43053
X58166Y37973
X109982Y108458
M30