G04 EAGLE Gerber RS-274X export*
G75*
%MOMM*%
%FSLAX34Y34*%
%LPD*%
%INSolderpaste Top*%
%IPPOS*%
%AMOC8*
5,1,8,0,0,1.08239X$1,22.5*%
G01*
%ADD10R,2.000000X1.200000*%
%ADD11R,1.350000X0.600000*%
%ADD12R,1.000000X1.100000*%
%ADD13C,0.300000*%
%ADD14R,1.100000X1.000000*%
%ADD15R,0.400000X0.750000*%
%ADD16R,0.750000X0.400000*%
%ADD17R,1.600000X0.700000*%

G36*
X1171325Y1244519D02*
X1171325Y1244519D01*
X1171324Y1244520D01*
X1171325Y1244520D01*
X1171325Y1251520D01*
X1171321Y1251525D01*
X1171320Y1251524D01*
X1171320Y1251525D01*
X1158320Y1251525D01*
X1158318Y1251523D01*
X1158317Y1251523D01*
X1155317Y1248523D01*
X1155317Y1248521D01*
X1155315Y1248520D01*
X1155315Y1244520D01*
X1155319Y1244515D01*
X1155320Y1244516D01*
X1155320Y1244515D01*
X1171320Y1244515D01*
X1171325Y1244519D01*
G37*
G36*
X912245Y1244519D02*
X912245Y1244519D01*
X912244Y1244520D01*
X912245Y1244520D01*
X912245Y1251520D01*
X912241Y1251525D01*
X912240Y1251524D01*
X912240Y1251525D01*
X899240Y1251525D01*
X899238Y1251523D01*
X899237Y1251523D01*
X896237Y1248523D01*
X896237Y1248521D01*
X896235Y1248520D01*
X896235Y1244520D01*
X896239Y1244515D01*
X896240Y1244516D01*
X896240Y1244515D01*
X912240Y1244515D01*
X912245Y1244519D01*
G37*
G36*
X135005Y1244519D02*
X135005Y1244519D01*
X135004Y1244520D01*
X135005Y1244520D01*
X135005Y1251520D01*
X135001Y1251525D01*
X135000Y1251524D01*
X135000Y1251525D01*
X122000Y1251525D01*
X121998Y1251523D01*
X121997Y1251523D01*
X118997Y1248523D01*
X118997Y1248521D01*
X118995Y1248520D01*
X118995Y1244520D01*
X118999Y1244515D01*
X119000Y1244516D01*
X119000Y1244515D01*
X135000Y1244515D01*
X135005Y1244519D01*
G37*
G36*
X653165Y1244519D02*
X653165Y1244519D01*
X653164Y1244520D01*
X653165Y1244520D01*
X653165Y1251520D01*
X653161Y1251525D01*
X653160Y1251524D01*
X653160Y1251525D01*
X640160Y1251525D01*
X640158Y1251523D01*
X640157Y1251523D01*
X637157Y1248523D01*
X637157Y1248521D01*
X637155Y1248520D01*
X637155Y1244520D01*
X637159Y1244515D01*
X637160Y1244516D01*
X637160Y1244515D01*
X653160Y1244515D01*
X653165Y1244519D01*
G37*
G36*
X394085Y1244519D02*
X394085Y1244519D01*
X394084Y1244520D01*
X394085Y1244520D01*
X394085Y1251520D01*
X394081Y1251525D01*
X394080Y1251524D01*
X394080Y1251525D01*
X381080Y1251525D01*
X381078Y1251523D01*
X381077Y1251523D01*
X378077Y1248523D01*
X378077Y1248521D01*
X378075Y1248520D01*
X378075Y1244520D01*
X378079Y1244515D01*
X378080Y1244516D01*
X378080Y1244515D01*
X394080Y1244515D01*
X394085Y1244519D01*
G37*
G36*
X1171325Y985439D02*
X1171325Y985439D01*
X1171324Y985440D01*
X1171325Y985440D01*
X1171325Y992440D01*
X1171321Y992445D01*
X1171320Y992444D01*
X1171320Y992445D01*
X1158320Y992445D01*
X1158318Y992443D01*
X1158317Y992443D01*
X1155317Y989443D01*
X1155317Y989441D01*
X1155315Y989440D01*
X1155315Y985440D01*
X1155319Y985435D01*
X1155320Y985436D01*
X1155320Y985435D01*
X1171320Y985435D01*
X1171325Y985439D01*
G37*
G36*
X394085Y985439D02*
X394085Y985439D01*
X394084Y985440D01*
X394085Y985440D01*
X394085Y992440D01*
X394081Y992445D01*
X394080Y992444D01*
X394080Y992445D01*
X381080Y992445D01*
X381078Y992443D01*
X381077Y992443D01*
X378077Y989443D01*
X378077Y989441D01*
X378075Y989440D01*
X378075Y985440D01*
X378079Y985435D01*
X378080Y985436D01*
X378080Y985435D01*
X394080Y985435D01*
X394085Y985439D01*
G37*
G36*
X653165Y985439D02*
X653165Y985439D01*
X653164Y985440D01*
X653165Y985440D01*
X653165Y992440D01*
X653161Y992445D01*
X653160Y992444D01*
X653160Y992445D01*
X640160Y992445D01*
X640158Y992443D01*
X640157Y992443D01*
X637157Y989443D01*
X637157Y989441D01*
X637155Y989440D01*
X637155Y985440D01*
X637159Y985435D01*
X637160Y985436D01*
X637160Y985435D01*
X653160Y985435D01*
X653165Y985439D01*
G37*
G36*
X912245Y985439D02*
X912245Y985439D01*
X912244Y985440D01*
X912245Y985440D01*
X912245Y992440D01*
X912241Y992445D01*
X912240Y992444D01*
X912240Y992445D01*
X899240Y992445D01*
X899238Y992443D01*
X899237Y992443D01*
X896237Y989443D01*
X896237Y989441D01*
X896235Y989440D01*
X896235Y985440D01*
X896239Y985435D01*
X896240Y985436D01*
X896240Y985435D01*
X912240Y985435D01*
X912245Y985439D01*
G37*
G36*
X135005Y985439D02*
X135005Y985439D01*
X135004Y985440D01*
X135005Y985440D01*
X135005Y992440D01*
X135001Y992445D01*
X135000Y992444D01*
X135000Y992445D01*
X122000Y992445D01*
X121998Y992443D01*
X121997Y992443D01*
X118997Y989443D01*
X118997Y989441D01*
X118995Y989440D01*
X118995Y985440D01*
X118999Y985435D01*
X119000Y985436D01*
X119000Y985435D01*
X135000Y985435D01*
X135005Y985439D01*
G37*
G36*
X653165Y726359D02*
X653165Y726359D01*
X653164Y726360D01*
X653165Y726360D01*
X653165Y733360D01*
X653161Y733365D01*
X653160Y733364D01*
X653160Y733365D01*
X640160Y733365D01*
X640158Y733363D01*
X640157Y733363D01*
X637157Y730363D01*
X637157Y730361D01*
X637155Y730360D01*
X637155Y726360D01*
X637159Y726355D01*
X637160Y726356D01*
X637160Y726355D01*
X653160Y726355D01*
X653165Y726359D01*
G37*
G36*
X912245Y726359D02*
X912245Y726359D01*
X912244Y726360D01*
X912245Y726360D01*
X912245Y733360D01*
X912241Y733365D01*
X912240Y733364D01*
X912240Y733365D01*
X899240Y733365D01*
X899238Y733363D01*
X899237Y733363D01*
X896237Y730363D01*
X896237Y730361D01*
X896235Y730360D01*
X896235Y726360D01*
X896239Y726355D01*
X896240Y726356D01*
X896240Y726355D01*
X912240Y726355D01*
X912245Y726359D01*
G37*
G36*
X1171325Y726359D02*
X1171325Y726359D01*
X1171324Y726360D01*
X1171325Y726360D01*
X1171325Y733360D01*
X1171321Y733365D01*
X1171320Y733364D01*
X1171320Y733365D01*
X1158320Y733365D01*
X1158318Y733363D01*
X1158317Y733363D01*
X1155317Y730363D01*
X1155317Y730361D01*
X1155315Y730360D01*
X1155315Y726360D01*
X1155319Y726355D01*
X1155320Y726356D01*
X1155320Y726355D01*
X1171320Y726355D01*
X1171325Y726359D01*
G37*
G36*
X394085Y726359D02*
X394085Y726359D01*
X394084Y726360D01*
X394085Y726360D01*
X394085Y733360D01*
X394081Y733365D01*
X394080Y733364D01*
X394080Y733365D01*
X381080Y733365D01*
X381078Y733363D01*
X381077Y733363D01*
X378077Y730363D01*
X378077Y730361D01*
X378075Y730360D01*
X378075Y726360D01*
X378079Y726355D01*
X378080Y726356D01*
X378080Y726355D01*
X394080Y726355D01*
X394085Y726359D01*
G37*
G36*
X135005Y726359D02*
X135005Y726359D01*
X135004Y726360D01*
X135005Y726360D01*
X135005Y733360D01*
X135001Y733365D01*
X135000Y733364D01*
X135000Y733365D01*
X122000Y733365D01*
X121998Y733363D01*
X121997Y733363D01*
X118997Y730363D01*
X118997Y730361D01*
X118995Y730360D01*
X118995Y726360D01*
X118999Y726355D01*
X119000Y726356D01*
X119000Y726355D01*
X135000Y726355D01*
X135005Y726359D01*
G37*
G36*
X1171325Y467279D02*
X1171325Y467279D01*
X1171324Y467280D01*
X1171325Y467280D01*
X1171325Y474280D01*
X1171321Y474285D01*
X1171320Y474284D01*
X1171320Y474285D01*
X1158320Y474285D01*
X1158318Y474283D01*
X1158317Y474283D01*
X1155317Y471283D01*
X1155317Y471281D01*
X1155315Y471280D01*
X1155315Y467280D01*
X1155319Y467275D01*
X1155320Y467276D01*
X1155320Y467275D01*
X1171320Y467275D01*
X1171325Y467279D01*
G37*
G36*
X394085Y467279D02*
X394085Y467279D01*
X394084Y467280D01*
X394085Y467280D01*
X394085Y474280D01*
X394081Y474285D01*
X394080Y474284D01*
X394080Y474285D01*
X381080Y474285D01*
X381078Y474283D01*
X381077Y474283D01*
X378077Y471283D01*
X378077Y471281D01*
X378075Y471280D01*
X378075Y467280D01*
X378079Y467275D01*
X378080Y467276D01*
X378080Y467275D01*
X394080Y467275D01*
X394085Y467279D01*
G37*
G36*
X912245Y467279D02*
X912245Y467279D01*
X912244Y467280D01*
X912245Y467280D01*
X912245Y474280D01*
X912241Y474285D01*
X912240Y474284D01*
X912240Y474285D01*
X899240Y474285D01*
X899238Y474283D01*
X899237Y474283D01*
X896237Y471283D01*
X896237Y471281D01*
X896235Y471280D01*
X896235Y467280D01*
X896239Y467275D01*
X896240Y467276D01*
X896240Y467275D01*
X912240Y467275D01*
X912245Y467279D01*
G37*
G36*
X135005Y467279D02*
X135005Y467279D01*
X135004Y467280D01*
X135005Y467280D01*
X135005Y474280D01*
X135001Y474285D01*
X135000Y474284D01*
X135000Y474285D01*
X122000Y474285D01*
X121998Y474283D01*
X121997Y474283D01*
X118997Y471283D01*
X118997Y471281D01*
X118995Y471280D01*
X118995Y467280D01*
X118999Y467275D01*
X119000Y467276D01*
X119000Y467275D01*
X135000Y467275D01*
X135005Y467279D01*
G37*
G36*
X653165Y467279D02*
X653165Y467279D01*
X653164Y467280D01*
X653165Y467280D01*
X653165Y474280D01*
X653161Y474285D01*
X653160Y474284D01*
X653160Y474285D01*
X640160Y474285D01*
X640158Y474283D01*
X640157Y474283D01*
X637157Y471283D01*
X637157Y471281D01*
X637155Y471280D01*
X637155Y467280D01*
X637159Y467275D01*
X637160Y467276D01*
X637160Y467275D01*
X653160Y467275D01*
X653165Y467279D01*
G37*
G36*
X1171325Y208199D02*
X1171325Y208199D01*
X1171324Y208200D01*
X1171325Y208200D01*
X1171325Y215200D01*
X1171321Y215205D01*
X1171320Y215204D01*
X1171320Y215205D01*
X1158320Y215205D01*
X1158318Y215203D01*
X1158317Y215203D01*
X1155317Y212203D01*
X1155317Y212201D01*
X1155315Y212200D01*
X1155315Y208200D01*
X1155319Y208195D01*
X1155320Y208196D01*
X1155320Y208195D01*
X1171320Y208195D01*
X1171325Y208199D01*
G37*
G36*
X912245Y208199D02*
X912245Y208199D01*
X912244Y208200D01*
X912245Y208200D01*
X912245Y215200D01*
X912241Y215205D01*
X912240Y215204D01*
X912240Y215205D01*
X899240Y215205D01*
X899238Y215203D01*
X899237Y215203D01*
X896237Y212203D01*
X896237Y212201D01*
X896235Y212200D01*
X896235Y208200D01*
X896239Y208195D01*
X896240Y208196D01*
X896240Y208195D01*
X912240Y208195D01*
X912245Y208199D01*
G37*
G36*
X653165Y208199D02*
X653165Y208199D01*
X653164Y208200D01*
X653165Y208200D01*
X653165Y215200D01*
X653161Y215205D01*
X653160Y215204D01*
X653160Y215205D01*
X640160Y215205D01*
X640158Y215203D01*
X640157Y215203D01*
X637157Y212203D01*
X637157Y212201D01*
X637155Y212200D01*
X637155Y208200D01*
X637159Y208195D01*
X637160Y208196D01*
X637160Y208195D01*
X653160Y208195D01*
X653165Y208199D01*
G37*
G36*
X394085Y208199D02*
X394085Y208199D01*
X394084Y208200D01*
X394085Y208200D01*
X394085Y215200D01*
X394081Y215205D01*
X394080Y215204D01*
X394080Y215205D01*
X381080Y215205D01*
X381078Y215203D01*
X381077Y215203D01*
X378077Y212203D01*
X378077Y212201D01*
X378075Y212200D01*
X378075Y208200D01*
X378079Y208195D01*
X378080Y208196D01*
X378080Y208195D01*
X394080Y208195D01*
X394085Y208199D01*
G37*
G36*
X135005Y208199D02*
X135005Y208199D01*
X135004Y208200D01*
X135005Y208200D01*
X135005Y215200D01*
X135001Y215205D01*
X135000Y215204D01*
X135000Y215205D01*
X122000Y215205D01*
X121998Y215203D01*
X121997Y215203D01*
X118997Y212203D01*
X118997Y212201D01*
X118995Y212200D01*
X118995Y208200D01*
X118999Y208195D01*
X119000Y208196D01*
X119000Y208195D01*
X135000Y208195D01*
X135005Y208199D01*
G37*
D10*
X14050Y91500D03*
X14050Y35500D03*
D11*
X50800Y78500D03*
X50800Y68500D03*
X50800Y58500D03*
X50800Y48500D03*
D10*
X239950Y35500D03*
X239950Y91500D03*
D11*
X203200Y48500D03*
X203200Y58500D03*
X203200Y68500D03*
X203200Y78500D03*
D12*
X63500Y148200D03*
X63500Y131200D03*
D13*
X41600Y134430D02*
X34600Y134430D01*
X41600Y134430D02*
X41600Y127430D01*
X34600Y127430D01*
X34600Y134430D01*
X34600Y130280D02*
X41600Y130280D01*
X41600Y133130D02*
X34600Y133130D01*
X34600Y151970D02*
X41600Y151970D01*
X41600Y144970D01*
X34600Y144970D01*
X34600Y151970D01*
X34600Y147820D02*
X41600Y147820D01*
X41600Y150670D02*
X34600Y150670D01*
D14*
X74050Y101600D03*
X91050Y101600D03*
X179950Y101600D03*
X162950Y101600D03*
X135500Y146050D03*
X118500Y146050D03*
D15*
X117000Y182450D03*
X127000Y182450D03*
X107000Y182450D03*
D16*
X98750Y193200D03*
X98750Y203200D03*
X98750Y213200D03*
D17*
X127000Y194700D03*
D15*
X137000Y182450D03*
X147000Y182450D03*
D16*
X155250Y193200D03*
X155250Y203200D03*
X155250Y213200D03*
D15*
X147000Y223950D03*
X137000Y223950D03*
X127000Y223950D03*
X117000Y223950D03*
X107000Y223950D03*
D12*
X190500Y148200D03*
X190500Y131200D03*
X215900Y148200D03*
X215900Y131200D03*
D10*
X273130Y91500D03*
X273130Y35500D03*
D11*
X309880Y78500D03*
X309880Y68500D03*
X309880Y58500D03*
X309880Y48500D03*
D10*
X499030Y35500D03*
X499030Y91500D03*
D11*
X462280Y48500D03*
X462280Y58500D03*
X462280Y68500D03*
X462280Y78500D03*
D12*
X322580Y148200D03*
X322580Y131200D03*
D13*
X300680Y134430D02*
X293680Y134430D01*
X300680Y134430D02*
X300680Y127430D01*
X293680Y127430D01*
X293680Y134430D01*
X293680Y130280D02*
X300680Y130280D01*
X300680Y133130D02*
X293680Y133130D01*
X293680Y151970D02*
X300680Y151970D01*
X300680Y144970D01*
X293680Y144970D01*
X293680Y151970D01*
X293680Y147820D02*
X300680Y147820D01*
X300680Y150670D02*
X293680Y150670D01*
D14*
X333130Y101600D03*
X350130Y101600D03*
X439030Y101600D03*
X422030Y101600D03*
X394580Y146050D03*
X377580Y146050D03*
D15*
X376080Y182450D03*
X386080Y182450D03*
X366080Y182450D03*
D16*
X357830Y193200D03*
X357830Y203200D03*
X357830Y213200D03*
D17*
X386080Y194700D03*
D15*
X396080Y182450D03*
X406080Y182450D03*
D16*
X414330Y193200D03*
X414330Y203200D03*
X414330Y213200D03*
D15*
X406080Y223950D03*
X396080Y223950D03*
X386080Y223950D03*
X376080Y223950D03*
X366080Y223950D03*
D12*
X449580Y148200D03*
X449580Y131200D03*
X474980Y148200D03*
X474980Y131200D03*
D10*
X532210Y91500D03*
X532210Y35500D03*
D11*
X568960Y78500D03*
X568960Y68500D03*
X568960Y58500D03*
X568960Y48500D03*
D10*
X758110Y35500D03*
X758110Y91500D03*
D11*
X721360Y48500D03*
X721360Y58500D03*
X721360Y68500D03*
X721360Y78500D03*
D12*
X581660Y148200D03*
X581660Y131200D03*
D13*
X559760Y134430D02*
X552760Y134430D01*
X559760Y134430D02*
X559760Y127430D01*
X552760Y127430D01*
X552760Y134430D01*
X552760Y130280D02*
X559760Y130280D01*
X559760Y133130D02*
X552760Y133130D01*
X552760Y151970D02*
X559760Y151970D01*
X559760Y144970D01*
X552760Y144970D01*
X552760Y151970D01*
X552760Y147820D02*
X559760Y147820D01*
X559760Y150670D02*
X552760Y150670D01*
D14*
X592210Y101600D03*
X609210Y101600D03*
X698110Y101600D03*
X681110Y101600D03*
X653660Y146050D03*
X636660Y146050D03*
D15*
X635160Y182450D03*
X645160Y182450D03*
X625160Y182450D03*
D16*
X616910Y193200D03*
X616910Y203200D03*
X616910Y213200D03*
D17*
X645160Y194700D03*
D15*
X655160Y182450D03*
X665160Y182450D03*
D16*
X673410Y193200D03*
X673410Y203200D03*
X673410Y213200D03*
D15*
X665160Y223950D03*
X655160Y223950D03*
X645160Y223950D03*
X635160Y223950D03*
X625160Y223950D03*
D12*
X708660Y148200D03*
X708660Y131200D03*
X734060Y148200D03*
X734060Y131200D03*
D10*
X791290Y91500D03*
X791290Y35500D03*
D11*
X828040Y78500D03*
X828040Y68500D03*
X828040Y58500D03*
X828040Y48500D03*
D10*
X1017190Y35500D03*
X1017190Y91500D03*
D11*
X980440Y48500D03*
X980440Y58500D03*
X980440Y68500D03*
X980440Y78500D03*
D12*
X840740Y148200D03*
X840740Y131200D03*
D13*
X818840Y134430D02*
X811840Y134430D01*
X818840Y134430D02*
X818840Y127430D01*
X811840Y127430D01*
X811840Y134430D01*
X811840Y130280D02*
X818840Y130280D01*
X818840Y133130D02*
X811840Y133130D01*
X811840Y151970D02*
X818840Y151970D01*
X818840Y144970D01*
X811840Y144970D01*
X811840Y151970D01*
X811840Y147820D02*
X818840Y147820D01*
X818840Y150670D02*
X811840Y150670D01*
D14*
X851290Y101600D03*
X868290Y101600D03*
X957190Y101600D03*
X940190Y101600D03*
X912740Y146050D03*
X895740Y146050D03*
D15*
X894240Y182450D03*
X904240Y182450D03*
X884240Y182450D03*
D16*
X875990Y193200D03*
X875990Y203200D03*
X875990Y213200D03*
D17*
X904240Y194700D03*
D15*
X914240Y182450D03*
X924240Y182450D03*
D16*
X932490Y193200D03*
X932490Y203200D03*
X932490Y213200D03*
D15*
X924240Y223950D03*
X914240Y223950D03*
X904240Y223950D03*
X894240Y223950D03*
X884240Y223950D03*
D12*
X967740Y148200D03*
X967740Y131200D03*
X993140Y148200D03*
X993140Y131200D03*
D10*
X1050370Y91500D03*
X1050370Y35500D03*
D11*
X1087120Y78500D03*
X1087120Y68500D03*
X1087120Y58500D03*
X1087120Y48500D03*
D10*
X1276270Y35500D03*
X1276270Y91500D03*
D11*
X1239520Y48500D03*
X1239520Y58500D03*
X1239520Y68500D03*
X1239520Y78500D03*
D12*
X1099820Y148200D03*
X1099820Y131200D03*
D13*
X1077920Y134430D02*
X1070920Y134430D01*
X1077920Y134430D02*
X1077920Y127430D01*
X1070920Y127430D01*
X1070920Y134430D01*
X1070920Y130280D02*
X1077920Y130280D01*
X1077920Y133130D02*
X1070920Y133130D01*
X1070920Y151970D02*
X1077920Y151970D01*
X1077920Y144970D01*
X1070920Y144970D01*
X1070920Y151970D01*
X1070920Y147820D02*
X1077920Y147820D01*
X1077920Y150670D02*
X1070920Y150670D01*
D14*
X1110370Y101600D03*
X1127370Y101600D03*
X1216270Y101600D03*
X1199270Y101600D03*
X1171820Y146050D03*
X1154820Y146050D03*
D15*
X1153320Y182450D03*
X1163320Y182450D03*
X1143320Y182450D03*
D16*
X1135070Y193200D03*
X1135070Y203200D03*
X1135070Y213200D03*
D17*
X1163320Y194700D03*
D15*
X1173320Y182450D03*
X1183320Y182450D03*
D16*
X1191570Y193200D03*
X1191570Y203200D03*
X1191570Y213200D03*
D15*
X1183320Y223950D03*
X1173320Y223950D03*
X1163320Y223950D03*
X1153320Y223950D03*
X1143320Y223950D03*
D12*
X1226820Y148200D03*
X1226820Y131200D03*
X1252220Y148200D03*
X1252220Y131200D03*
D10*
X14050Y350580D03*
X14050Y294580D03*
D11*
X50800Y337580D03*
X50800Y327580D03*
X50800Y317580D03*
X50800Y307580D03*
D10*
X239950Y294580D03*
X239950Y350580D03*
D11*
X203200Y307580D03*
X203200Y317580D03*
X203200Y327580D03*
X203200Y337580D03*
D12*
X63500Y407280D03*
X63500Y390280D03*
D13*
X41600Y393510D02*
X34600Y393510D01*
X41600Y393510D02*
X41600Y386510D01*
X34600Y386510D01*
X34600Y393510D01*
X34600Y389360D02*
X41600Y389360D01*
X41600Y392210D02*
X34600Y392210D01*
X34600Y411050D02*
X41600Y411050D01*
X41600Y404050D01*
X34600Y404050D01*
X34600Y411050D01*
X34600Y406900D02*
X41600Y406900D01*
X41600Y409750D02*
X34600Y409750D01*
D14*
X74050Y360680D03*
X91050Y360680D03*
X179950Y360680D03*
X162950Y360680D03*
X135500Y405130D03*
X118500Y405130D03*
D15*
X117000Y441530D03*
X127000Y441530D03*
X107000Y441530D03*
D16*
X98750Y452280D03*
X98750Y462280D03*
X98750Y472280D03*
D17*
X127000Y453780D03*
D15*
X137000Y441530D03*
X147000Y441530D03*
D16*
X155250Y452280D03*
X155250Y462280D03*
X155250Y472280D03*
D15*
X147000Y483030D03*
X137000Y483030D03*
X127000Y483030D03*
X117000Y483030D03*
X107000Y483030D03*
D12*
X190500Y407280D03*
X190500Y390280D03*
X215900Y407280D03*
X215900Y390280D03*
D10*
X273130Y350580D03*
X273130Y294580D03*
D11*
X309880Y337580D03*
X309880Y327580D03*
X309880Y317580D03*
X309880Y307580D03*
D10*
X499030Y294580D03*
X499030Y350580D03*
D11*
X462280Y307580D03*
X462280Y317580D03*
X462280Y327580D03*
X462280Y337580D03*
D12*
X322580Y407280D03*
X322580Y390280D03*
D13*
X300680Y393510D02*
X293680Y393510D01*
X300680Y393510D02*
X300680Y386510D01*
X293680Y386510D01*
X293680Y393510D01*
X293680Y389360D02*
X300680Y389360D01*
X300680Y392210D02*
X293680Y392210D01*
X293680Y411050D02*
X300680Y411050D01*
X300680Y404050D01*
X293680Y404050D01*
X293680Y411050D01*
X293680Y406900D02*
X300680Y406900D01*
X300680Y409750D02*
X293680Y409750D01*
D14*
X333130Y360680D03*
X350130Y360680D03*
X439030Y360680D03*
X422030Y360680D03*
X394580Y405130D03*
X377580Y405130D03*
D15*
X376080Y441530D03*
X386080Y441530D03*
X366080Y441530D03*
D16*
X357830Y452280D03*
X357830Y462280D03*
X357830Y472280D03*
D17*
X386080Y453780D03*
D15*
X396080Y441530D03*
X406080Y441530D03*
D16*
X414330Y452280D03*
X414330Y462280D03*
X414330Y472280D03*
D15*
X406080Y483030D03*
X396080Y483030D03*
X386080Y483030D03*
X376080Y483030D03*
X366080Y483030D03*
D12*
X449580Y407280D03*
X449580Y390280D03*
X474980Y407280D03*
X474980Y390280D03*
D10*
X532210Y350580D03*
X532210Y294580D03*
D11*
X568960Y337580D03*
X568960Y327580D03*
X568960Y317580D03*
X568960Y307580D03*
D10*
X758110Y294580D03*
X758110Y350580D03*
D11*
X721360Y307580D03*
X721360Y317580D03*
X721360Y327580D03*
X721360Y337580D03*
D12*
X581660Y407280D03*
X581660Y390280D03*
D13*
X559760Y393510D02*
X552760Y393510D01*
X559760Y393510D02*
X559760Y386510D01*
X552760Y386510D01*
X552760Y393510D01*
X552760Y389360D02*
X559760Y389360D01*
X559760Y392210D02*
X552760Y392210D01*
X552760Y411050D02*
X559760Y411050D01*
X559760Y404050D01*
X552760Y404050D01*
X552760Y411050D01*
X552760Y406900D02*
X559760Y406900D01*
X559760Y409750D02*
X552760Y409750D01*
D14*
X592210Y360680D03*
X609210Y360680D03*
X698110Y360680D03*
X681110Y360680D03*
X653660Y405130D03*
X636660Y405130D03*
D15*
X635160Y441530D03*
X645160Y441530D03*
X625160Y441530D03*
D16*
X616910Y452280D03*
X616910Y462280D03*
X616910Y472280D03*
D17*
X645160Y453780D03*
D15*
X655160Y441530D03*
X665160Y441530D03*
D16*
X673410Y452280D03*
X673410Y462280D03*
X673410Y472280D03*
D15*
X665160Y483030D03*
X655160Y483030D03*
X645160Y483030D03*
X635160Y483030D03*
X625160Y483030D03*
D12*
X708660Y407280D03*
X708660Y390280D03*
X734060Y407280D03*
X734060Y390280D03*
D10*
X791290Y350580D03*
X791290Y294580D03*
D11*
X828040Y337580D03*
X828040Y327580D03*
X828040Y317580D03*
X828040Y307580D03*
D10*
X1017190Y294580D03*
X1017190Y350580D03*
D11*
X980440Y307580D03*
X980440Y317580D03*
X980440Y327580D03*
X980440Y337580D03*
D12*
X840740Y407280D03*
X840740Y390280D03*
D13*
X818840Y393510D02*
X811840Y393510D01*
X818840Y393510D02*
X818840Y386510D01*
X811840Y386510D01*
X811840Y393510D01*
X811840Y389360D02*
X818840Y389360D01*
X818840Y392210D02*
X811840Y392210D01*
X811840Y411050D02*
X818840Y411050D01*
X818840Y404050D01*
X811840Y404050D01*
X811840Y411050D01*
X811840Y406900D02*
X818840Y406900D01*
X818840Y409750D02*
X811840Y409750D01*
D14*
X851290Y360680D03*
X868290Y360680D03*
X957190Y360680D03*
X940190Y360680D03*
X912740Y405130D03*
X895740Y405130D03*
D15*
X894240Y441530D03*
X904240Y441530D03*
X884240Y441530D03*
D16*
X875990Y452280D03*
X875990Y462280D03*
X875990Y472280D03*
D17*
X904240Y453780D03*
D15*
X914240Y441530D03*
X924240Y441530D03*
D16*
X932490Y452280D03*
X932490Y462280D03*
X932490Y472280D03*
D15*
X924240Y483030D03*
X914240Y483030D03*
X904240Y483030D03*
X894240Y483030D03*
X884240Y483030D03*
D12*
X967740Y407280D03*
X967740Y390280D03*
X993140Y407280D03*
X993140Y390280D03*
D10*
X1050370Y350580D03*
X1050370Y294580D03*
D11*
X1087120Y337580D03*
X1087120Y327580D03*
X1087120Y317580D03*
X1087120Y307580D03*
D10*
X1276270Y294580D03*
X1276270Y350580D03*
D11*
X1239520Y307580D03*
X1239520Y317580D03*
X1239520Y327580D03*
X1239520Y337580D03*
D12*
X1099820Y407280D03*
X1099820Y390280D03*
D13*
X1077920Y393510D02*
X1070920Y393510D01*
X1077920Y393510D02*
X1077920Y386510D01*
X1070920Y386510D01*
X1070920Y393510D01*
X1070920Y389360D02*
X1077920Y389360D01*
X1077920Y392210D02*
X1070920Y392210D01*
X1070920Y411050D02*
X1077920Y411050D01*
X1077920Y404050D01*
X1070920Y404050D01*
X1070920Y411050D01*
X1070920Y406900D02*
X1077920Y406900D01*
X1077920Y409750D02*
X1070920Y409750D01*
D14*
X1110370Y360680D03*
X1127370Y360680D03*
X1216270Y360680D03*
X1199270Y360680D03*
X1171820Y405130D03*
X1154820Y405130D03*
D15*
X1153320Y441530D03*
X1163320Y441530D03*
X1143320Y441530D03*
D16*
X1135070Y452280D03*
X1135070Y462280D03*
X1135070Y472280D03*
D17*
X1163320Y453780D03*
D15*
X1173320Y441530D03*
X1183320Y441530D03*
D16*
X1191570Y452280D03*
X1191570Y462280D03*
X1191570Y472280D03*
D15*
X1183320Y483030D03*
X1173320Y483030D03*
X1163320Y483030D03*
X1153320Y483030D03*
X1143320Y483030D03*
D12*
X1226820Y407280D03*
X1226820Y390280D03*
X1252220Y407280D03*
X1252220Y390280D03*
D10*
X14050Y609660D03*
X14050Y553660D03*
D11*
X50800Y596660D03*
X50800Y586660D03*
X50800Y576660D03*
X50800Y566660D03*
D10*
X239950Y553660D03*
X239950Y609660D03*
D11*
X203200Y566660D03*
X203200Y576660D03*
X203200Y586660D03*
X203200Y596660D03*
D12*
X63500Y666360D03*
X63500Y649360D03*
D13*
X41600Y652590D02*
X34600Y652590D01*
X41600Y652590D02*
X41600Y645590D01*
X34600Y645590D01*
X34600Y652590D01*
X34600Y648440D02*
X41600Y648440D01*
X41600Y651290D02*
X34600Y651290D01*
X34600Y670130D02*
X41600Y670130D01*
X41600Y663130D01*
X34600Y663130D01*
X34600Y670130D01*
X34600Y665980D02*
X41600Y665980D01*
X41600Y668830D02*
X34600Y668830D01*
D14*
X74050Y619760D03*
X91050Y619760D03*
X179950Y619760D03*
X162950Y619760D03*
X135500Y664210D03*
X118500Y664210D03*
D15*
X117000Y700610D03*
X127000Y700610D03*
X107000Y700610D03*
D16*
X98750Y711360D03*
X98750Y721360D03*
X98750Y731360D03*
D17*
X127000Y712860D03*
D15*
X137000Y700610D03*
X147000Y700610D03*
D16*
X155250Y711360D03*
X155250Y721360D03*
X155250Y731360D03*
D15*
X147000Y742110D03*
X137000Y742110D03*
X127000Y742110D03*
X117000Y742110D03*
X107000Y742110D03*
D12*
X190500Y666360D03*
X190500Y649360D03*
X215900Y666360D03*
X215900Y649360D03*
D10*
X273130Y609660D03*
X273130Y553660D03*
D11*
X309880Y596660D03*
X309880Y586660D03*
X309880Y576660D03*
X309880Y566660D03*
D10*
X499030Y553660D03*
X499030Y609660D03*
D11*
X462280Y566660D03*
X462280Y576660D03*
X462280Y586660D03*
X462280Y596660D03*
D12*
X322580Y666360D03*
X322580Y649360D03*
D13*
X300680Y652590D02*
X293680Y652590D01*
X300680Y652590D02*
X300680Y645590D01*
X293680Y645590D01*
X293680Y652590D01*
X293680Y648440D02*
X300680Y648440D01*
X300680Y651290D02*
X293680Y651290D01*
X293680Y670130D02*
X300680Y670130D01*
X300680Y663130D01*
X293680Y663130D01*
X293680Y670130D01*
X293680Y665980D02*
X300680Y665980D01*
X300680Y668830D02*
X293680Y668830D01*
D14*
X333130Y619760D03*
X350130Y619760D03*
X439030Y619760D03*
X422030Y619760D03*
X394580Y664210D03*
X377580Y664210D03*
D15*
X376080Y700610D03*
X386080Y700610D03*
X366080Y700610D03*
D16*
X357830Y711360D03*
X357830Y721360D03*
X357830Y731360D03*
D17*
X386080Y712860D03*
D15*
X396080Y700610D03*
X406080Y700610D03*
D16*
X414330Y711360D03*
X414330Y721360D03*
X414330Y731360D03*
D15*
X406080Y742110D03*
X396080Y742110D03*
X386080Y742110D03*
X376080Y742110D03*
X366080Y742110D03*
D12*
X449580Y666360D03*
X449580Y649360D03*
X474980Y666360D03*
X474980Y649360D03*
D10*
X532210Y609660D03*
X532210Y553660D03*
D11*
X568960Y596660D03*
X568960Y586660D03*
X568960Y576660D03*
X568960Y566660D03*
D10*
X758110Y553660D03*
X758110Y609660D03*
D11*
X721360Y566660D03*
X721360Y576660D03*
X721360Y586660D03*
X721360Y596660D03*
D12*
X581660Y666360D03*
X581660Y649360D03*
D13*
X559760Y652590D02*
X552760Y652590D01*
X559760Y652590D02*
X559760Y645590D01*
X552760Y645590D01*
X552760Y652590D01*
X552760Y648440D02*
X559760Y648440D01*
X559760Y651290D02*
X552760Y651290D01*
X552760Y670130D02*
X559760Y670130D01*
X559760Y663130D01*
X552760Y663130D01*
X552760Y670130D01*
X552760Y665980D02*
X559760Y665980D01*
X559760Y668830D02*
X552760Y668830D01*
D14*
X592210Y619760D03*
X609210Y619760D03*
X698110Y619760D03*
X681110Y619760D03*
X653660Y664210D03*
X636660Y664210D03*
D15*
X635160Y700610D03*
X645160Y700610D03*
X625160Y700610D03*
D16*
X616910Y711360D03*
X616910Y721360D03*
X616910Y731360D03*
D17*
X645160Y712860D03*
D15*
X655160Y700610D03*
X665160Y700610D03*
D16*
X673410Y711360D03*
X673410Y721360D03*
X673410Y731360D03*
D15*
X665160Y742110D03*
X655160Y742110D03*
X645160Y742110D03*
X635160Y742110D03*
X625160Y742110D03*
D12*
X708660Y666360D03*
X708660Y649360D03*
X734060Y666360D03*
X734060Y649360D03*
D10*
X791290Y609660D03*
X791290Y553660D03*
D11*
X828040Y596660D03*
X828040Y586660D03*
X828040Y576660D03*
X828040Y566660D03*
D10*
X1017190Y553660D03*
X1017190Y609660D03*
D11*
X980440Y566660D03*
X980440Y576660D03*
X980440Y586660D03*
X980440Y596660D03*
D12*
X840740Y666360D03*
X840740Y649360D03*
D13*
X818840Y652590D02*
X811840Y652590D01*
X818840Y652590D02*
X818840Y645590D01*
X811840Y645590D01*
X811840Y652590D01*
X811840Y648440D02*
X818840Y648440D01*
X818840Y651290D02*
X811840Y651290D01*
X811840Y670130D02*
X818840Y670130D01*
X818840Y663130D01*
X811840Y663130D01*
X811840Y670130D01*
X811840Y665980D02*
X818840Y665980D01*
X818840Y668830D02*
X811840Y668830D01*
D14*
X851290Y619760D03*
X868290Y619760D03*
X957190Y619760D03*
X940190Y619760D03*
X912740Y664210D03*
X895740Y664210D03*
D15*
X894240Y700610D03*
X904240Y700610D03*
X884240Y700610D03*
D16*
X875990Y711360D03*
X875990Y721360D03*
X875990Y731360D03*
D17*
X904240Y712860D03*
D15*
X914240Y700610D03*
X924240Y700610D03*
D16*
X932490Y711360D03*
X932490Y721360D03*
X932490Y731360D03*
D15*
X924240Y742110D03*
X914240Y742110D03*
X904240Y742110D03*
X894240Y742110D03*
X884240Y742110D03*
D12*
X967740Y666360D03*
X967740Y649360D03*
X993140Y666360D03*
X993140Y649360D03*
D10*
X1050370Y609660D03*
X1050370Y553660D03*
D11*
X1087120Y596660D03*
X1087120Y586660D03*
X1087120Y576660D03*
X1087120Y566660D03*
D10*
X1276270Y553660D03*
X1276270Y609660D03*
D11*
X1239520Y566660D03*
X1239520Y576660D03*
X1239520Y586660D03*
X1239520Y596660D03*
D12*
X1099820Y666360D03*
X1099820Y649360D03*
D13*
X1077920Y652590D02*
X1070920Y652590D01*
X1077920Y652590D02*
X1077920Y645590D01*
X1070920Y645590D01*
X1070920Y652590D01*
X1070920Y648440D02*
X1077920Y648440D01*
X1077920Y651290D02*
X1070920Y651290D01*
X1070920Y670130D02*
X1077920Y670130D01*
X1077920Y663130D01*
X1070920Y663130D01*
X1070920Y670130D01*
X1070920Y665980D02*
X1077920Y665980D01*
X1077920Y668830D02*
X1070920Y668830D01*
D14*
X1110370Y619760D03*
X1127370Y619760D03*
X1216270Y619760D03*
X1199270Y619760D03*
X1171820Y664210D03*
X1154820Y664210D03*
D15*
X1153320Y700610D03*
X1163320Y700610D03*
X1143320Y700610D03*
D16*
X1135070Y711360D03*
X1135070Y721360D03*
X1135070Y731360D03*
D17*
X1163320Y712860D03*
D15*
X1173320Y700610D03*
X1183320Y700610D03*
D16*
X1191570Y711360D03*
X1191570Y721360D03*
X1191570Y731360D03*
D15*
X1183320Y742110D03*
X1173320Y742110D03*
X1163320Y742110D03*
X1153320Y742110D03*
X1143320Y742110D03*
D12*
X1226820Y666360D03*
X1226820Y649360D03*
X1252220Y666360D03*
X1252220Y649360D03*
D10*
X14050Y868740D03*
X14050Y812740D03*
D11*
X50800Y855740D03*
X50800Y845740D03*
X50800Y835740D03*
X50800Y825740D03*
D10*
X239950Y812740D03*
X239950Y868740D03*
D11*
X203200Y825740D03*
X203200Y835740D03*
X203200Y845740D03*
X203200Y855740D03*
D12*
X63500Y925440D03*
X63500Y908440D03*
D13*
X41600Y911670D02*
X34600Y911670D01*
X41600Y911670D02*
X41600Y904670D01*
X34600Y904670D01*
X34600Y911670D01*
X34600Y907520D02*
X41600Y907520D01*
X41600Y910370D02*
X34600Y910370D01*
X34600Y929210D02*
X41600Y929210D01*
X41600Y922210D01*
X34600Y922210D01*
X34600Y929210D01*
X34600Y925060D02*
X41600Y925060D01*
X41600Y927910D02*
X34600Y927910D01*
D14*
X74050Y878840D03*
X91050Y878840D03*
X179950Y878840D03*
X162950Y878840D03*
X135500Y923290D03*
X118500Y923290D03*
D15*
X117000Y959690D03*
X127000Y959690D03*
X107000Y959690D03*
D16*
X98750Y970440D03*
X98750Y980440D03*
X98750Y990440D03*
D17*
X127000Y971940D03*
D15*
X137000Y959690D03*
X147000Y959690D03*
D16*
X155250Y970440D03*
X155250Y980440D03*
X155250Y990440D03*
D15*
X147000Y1001190D03*
X137000Y1001190D03*
X127000Y1001190D03*
X117000Y1001190D03*
X107000Y1001190D03*
D12*
X190500Y925440D03*
X190500Y908440D03*
X215900Y925440D03*
X215900Y908440D03*
D10*
X273130Y868740D03*
X273130Y812740D03*
D11*
X309880Y855740D03*
X309880Y845740D03*
X309880Y835740D03*
X309880Y825740D03*
D10*
X499030Y812740D03*
X499030Y868740D03*
D11*
X462280Y825740D03*
X462280Y835740D03*
X462280Y845740D03*
X462280Y855740D03*
D12*
X322580Y925440D03*
X322580Y908440D03*
D13*
X300680Y911670D02*
X293680Y911670D01*
X300680Y911670D02*
X300680Y904670D01*
X293680Y904670D01*
X293680Y911670D01*
X293680Y907520D02*
X300680Y907520D01*
X300680Y910370D02*
X293680Y910370D01*
X293680Y929210D02*
X300680Y929210D01*
X300680Y922210D01*
X293680Y922210D01*
X293680Y929210D01*
X293680Y925060D02*
X300680Y925060D01*
X300680Y927910D02*
X293680Y927910D01*
D14*
X333130Y878840D03*
X350130Y878840D03*
X439030Y878840D03*
X422030Y878840D03*
X394580Y923290D03*
X377580Y923290D03*
D15*
X376080Y959690D03*
X386080Y959690D03*
X366080Y959690D03*
D16*
X357830Y970440D03*
X357830Y980440D03*
X357830Y990440D03*
D17*
X386080Y971940D03*
D15*
X396080Y959690D03*
X406080Y959690D03*
D16*
X414330Y970440D03*
X414330Y980440D03*
X414330Y990440D03*
D15*
X406080Y1001190D03*
X396080Y1001190D03*
X386080Y1001190D03*
X376080Y1001190D03*
X366080Y1001190D03*
D12*
X449580Y925440D03*
X449580Y908440D03*
X474980Y925440D03*
X474980Y908440D03*
D10*
X532210Y868740D03*
X532210Y812740D03*
D11*
X568960Y855740D03*
X568960Y845740D03*
X568960Y835740D03*
X568960Y825740D03*
D10*
X758110Y812740D03*
X758110Y868740D03*
D11*
X721360Y825740D03*
X721360Y835740D03*
X721360Y845740D03*
X721360Y855740D03*
D12*
X581660Y925440D03*
X581660Y908440D03*
D13*
X559760Y911670D02*
X552760Y911670D01*
X559760Y911670D02*
X559760Y904670D01*
X552760Y904670D01*
X552760Y911670D01*
X552760Y907520D02*
X559760Y907520D01*
X559760Y910370D02*
X552760Y910370D01*
X552760Y929210D02*
X559760Y929210D01*
X559760Y922210D01*
X552760Y922210D01*
X552760Y929210D01*
X552760Y925060D02*
X559760Y925060D01*
X559760Y927910D02*
X552760Y927910D01*
D14*
X592210Y878840D03*
X609210Y878840D03*
X698110Y878840D03*
X681110Y878840D03*
X653660Y923290D03*
X636660Y923290D03*
D15*
X635160Y959690D03*
X645160Y959690D03*
X625160Y959690D03*
D16*
X616910Y970440D03*
X616910Y980440D03*
X616910Y990440D03*
D17*
X645160Y971940D03*
D15*
X655160Y959690D03*
X665160Y959690D03*
D16*
X673410Y970440D03*
X673410Y980440D03*
X673410Y990440D03*
D15*
X665160Y1001190D03*
X655160Y1001190D03*
X645160Y1001190D03*
X635160Y1001190D03*
X625160Y1001190D03*
D12*
X708660Y925440D03*
X708660Y908440D03*
X734060Y925440D03*
X734060Y908440D03*
D10*
X791290Y868740D03*
X791290Y812740D03*
D11*
X828040Y855740D03*
X828040Y845740D03*
X828040Y835740D03*
X828040Y825740D03*
D10*
X1017190Y812740D03*
X1017190Y868740D03*
D11*
X980440Y825740D03*
X980440Y835740D03*
X980440Y845740D03*
X980440Y855740D03*
D12*
X840740Y925440D03*
X840740Y908440D03*
D13*
X818840Y911670D02*
X811840Y911670D01*
X818840Y911670D02*
X818840Y904670D01*
X811840Y904670D01*
X811840Y911670D01*
X811840Y907520D02*
X818840Y907520D01*
X818840Y910370D02*
X811840Y910370D01*
X811840Y929210D02*
X818840Y929210D01*
X818840Y922210D01*
X811840Y922210D01*
X811840Y929210D01*
X811840Y925060D02*
X818840Y925060D01*
X818840Y927910D02*
X811840Y927910D01*
D14*
X851290Y878840D03*
X868290Y878840D03*
X957190Y878840D03*
X940190Y878840D03*
X912740Y923290D03*
X895740Y923290D03*
D15*
X894240Y959690D03*
X904240Y959690D03*
X884240Y959690D03*
D16*
X875990Y970440D03*
X875990Y980440D03*
X875990Y990440D03*
D17*
X904240Y971940D03*
D15*
X914240Y959690D03*
X924240Y959690D03*
D16*
X932490Y970440D03*
X932490Y980440D03*
X932490Y990440D03*
D15*
X924240Y1001190D03*
X914240Y1001190D03*
X904240Y1001190D03*
X894240Y1001190D03*
X884240Y1001190D03*
D12*
X967740Y925440D03*
X967740Y908440D03*
X993140Y925440D03*
X993140Y908440D03*
D10*
X1050370Y868740D03*
X1050370Y812740D03*
D11*
X1087120Y855740D03*
X1087120Y845740D03*
X1087120Y835740D03*
X1087120Y825740D03*
D10*
X1276270Y812740D03*
X1276270Y868740D03*
D11*
X1239520Y825740D03*
X1239520Y835740D03*
X1239520Y845740D03*
X1239520Y855740D03*
D12*
X1099820Y925440D03*
X1099820Y908440D03*
D13*
X1077920Y911670D02*
X1070920Y911670D01*
X1077920Y911670D02*
X1077920Y904670D01*
X1070920Y904670D01*
X1070920Y911670D01*
X1070920Y907520D02*
X1077920Y907520D01*
X1077920Y910370D02*
X1070920Y910370D01*
X1070920Y929210D02*
X1077920Y929210D01*
X1077920Y922210D01*
X1070920Y922210D01*
X1070920Y929210D01*
X1070920Y925060D02*
X1077920Y925060D01*
X1077920Y927910D02*
X1070920Y927910D01*
D14*
X1110370Y878840D03*
X1127370Y878840D03*
X1216270Y878840D03*
X1199270Y878840D03*
X1171820Y923290D03*
X1154820Y923290D03*
D15*
X1153320Y959690D03*
X1163320Y959690D03*
X1143320Y959690D03*
D16*
X1135070Y970440D03*
X1135070Y980440D03*
X1135070Y990440D03*
D17*
X1163320Y971940D03*
D15*
X1173320Y959690D03*
X1183320Y959690D03*
D16*
X1191570Y970440D03*
X1191570Y980440D03*
X1191570Y990440D03*
D15*
X1183320Y1001190D03*
X1173320Y1001190D03*
X1163320Y1001190D03*
X1153320Y1001190D03*
X1143320Y1001190D03*
D12*
X1226820Y925440D03*
X1226820Y908440D03*
X1252220Y925440D03*
X1252220Y908440D03*
D10*
X14050Y1127820D03*
X14050Y1071820D03*
D11*
X50800Y1114820D03*
X50800Y1104820D03*
X50800Y1094820D03*
X50800Y1084820D03*
D10*
X239950Y1071820D03*
X239950Y1127820D03*
D11*
X203200Y1084820D03*
X203200Y1094820D03*
X203200Y1104820D03*
X203200Y1114820D03*
D12*
X63500Y1184520D03*
X63500Y1167520D03*
D13*
X41600Y1170750D02*
X34600Y1170750D01*
X41600Y1170750D02*
X41600Y1163750D01*
X34600Y1163750D01*
X34600Y1170750D01*
X34600Y1166600D02*
X41600Y1166600D01*
X41600Y1169450D02*
X34600Y1169450D01*
X34600Y1188290D02*
X41600Y1188290D01*
X41600Y1181290D01*
X34600Y1181290D01*
X34600Y1188290D01*
X34600Y1184140D02*
X41600Y1184140D01*
X41600Y1186990D02*
X34600Y1186990D01*
D14*
X74050Y1137920D03*
X91050Y1137920D03*
X179950Y1137920D03*
X162950Y1137920D03*
X135500Y1182370D03*
X118500Y1182370D03*
D15*
X117000Y1218770D03*
X127000Y1218770D03*
X107000Y1218770D03*
D16*
X98750Y1229520D03*
X98750Y1239520D03*
X98750Y1249520D03*
D17*
X127000Y1231020D03*
D15*
X137000Y1218770D03*
X147000Y1218770D03*
D16*
X155250Y1229520D03*
X155250Y1239520D03*
X155250Y1249520D03*
D15*
X147000Y1260270D03*
X137000Y1260270D03*
X127000Y1260270D03*
X117000Y1260270D03*
X107000Y1260270D03*
D12*
X190500Y1184520D03*
X190500Y1167520D03*
X215900Y1184520D03*
X215900Y1167520D03*
D10*
X273130Y1127820D03*
X273130Y1071820D03*
D11*
X309880Y1114820D03*
X309880Y1104820D03*
X309880Y1094820D03*
X309880Y1084820D03*
D10*
X499030Y1071820D03*
X499030Y1127820D03*
D11*
X462280Y1084820D03*
X462280Y1094820D03*
X462280Y1104820D03*
X462280Y1114820D03*
D12*
X322580Y1184520D03*
X322580Y1167520D03*
D13*
X300680Y1170750D02*
X293680Y1170750D01*
X300680Y1170750D02*
X300680Y1163750D01*
X293680Y1163750D01*
X293680Y1170750D01*
X293680Y1166600D02*
X300680Y1166600D01*
X300680Y1169450D02*
X293680Y1169450D01*
X293680Y1188290D02*
X300680Y1188290D01*
X300680Y1181290D01*
X293680Y1181290D01*
X293680Y1188290D01*
X293680Y1184140D02*
X300680Y1184140D01*
X300680Y1186990D02*
X293680Y1186990D01*
D14*
X333130Y1137920D03*
X350130Y1137920D03*
X439030Y1137920D03*
X422030Y1137920D03*
X394580Y1182370D03*
X377580Y1182370D03*
D15*
X376080Y1218770D03*
X386080Y1218770D03*
X366080Y1218770D03*
D16*
X357830Y1229520D03*
X357830Y1239520D03*
X357830Y1249520D03*
D17*
X386080Y1231020D03*
D15*
X396080Y1218770D03*
X406080Y1218770D03*
D16*
X414330Y1229520D03*
X414330Y1239520D03*
X414330Y1249520D03*
D15*
X406080Y1260270D03*
X396080Y1260270D03*
X386080Y1260270D03*
X376080Y1260270D03*
X366080Y1260270D03*
D12*
X449580Y1184520D03*
X449580Y1167520D03*
X474980Y1184520D03*
X474980Y1167520D03*
D10*
X532210Y1127820D03*
X532210Y1071820D03*
D11*
X568960Y1114820D03*
X568960Y1104820D03*
X568960Y1094820D03*
X568960Y1084820D03*
D10*
X758110Y1071820D03*
X758110Y1127820D03*
D11*
X721360Y1084820D03*
X721360Y1094820D03*
X721360Y1104820D03*
X721360Y1114820D03*
D12*
X581660Y1184520D03*
X581660Y1167520D03*
D13*
X559760Y1170750D02*
X552760Y1170750D01*
X559760Y1170750D02*
X559760Y1163750D01*
X552760Y1163750D01*
X552760Y1170750D01*
X552760Y1166600D02*
X559760Y1166600D01*
X559760Y1169450D02*
X552760Y1169450D01*
X552760Y1188290D02*
X559760Y1188290D01*
X559760Y1181290D01*
X552760Y1181290D01*
X552760Y1188290D01*
X552760Y1184140D02*
X559760Y1184140D01*
X559760Y1186990D02*
X552760Y1186990D01*
D14*
X592210Y1137920D03*
X609210Y1137920D03*
X698110Y1137920D03*
X681110Y1137920D03*
X653660Y1182370D03*
X636660Y1182370D03*
D15*
X635160Y1218770D03*
X645160Y1218770D03*
X625160Y1218770D03*
D16*
X616910Y1229520D03*
X616910Y1239520D03*
X616910Y1249520D03*
D17*
X645160Y1231020D03*
D15*
X655160Y1218770D03*
X665160Y1218770D03*
D16*
X673410Y1229520D03*
X673410Y1239520D03*
X673410Y1249520D03*
D15*
X665160Y1260270D03*
X655160Y1260270D03*
X645160Y1260270D03*
X635160Y1260270D03*
X625160Y1260270D03*
D12*
X708660Y1184520D03*
X708660Y1167520D03*
X734060Y1184520D03*
X734060Y1167520D03*
D10*
X791290Y1127820D03*
X791290Y1071820D03*
D11*
X828040Y1114820D03*
X828040Y1104820D03*
X828040Y1094820D03*
X828040Y1084820D03*
D10*
X1017190Y1071820D03*
X1017190Y1127820D03*
D11*
X980440Y1084820D03*
X980440Y1094820D03*
X980440Y1104820D03*
X980440Y1114820D03*
D12*
X840740Y1184520D03*
X840740Y1167520D03*
D13*
X818840Y1170750D02*
X811840Y1170750D01*
X818840Y1170750D02*
X818840Y1163750D01*
X811840Y1163750D01*
X811840Y1170750D01*
X811840Y1166600D02*
X818840Y1166600D01*
X818840Y1169450D02*
X811840Y1169450D01*
X811840Y1188290D02*
X818840Y1188290D01*
X818840Y1181290D01*
X811840Y1181290D01*
X811840Y1188290D01*
X811840Y1184140D02*
X818840Y1184140D01*
X818840Y1186990D02*
X811840Y1186990D01*
D14*
X851290Y1137920D03*
X868290Y1137920D03*
X957190Y1137920D03*
X940190Y1137920D03*
X912740Y1182370D03*
X895740Y1182370D03*
D15*
X894240Y1218770D03*
X904240Y1218770D03*
X884240Y1218770D03*
D16*
X875990Y1229520D03*
X875990Y1239520D03*
X875990Y1249520D03*
D17*
X904240Y1231020D03*
D15*
X914240Y1218770D03*
X924240Y1218770D03*
D16*
X932490Y1229520D03*
X932490Y1239520D03*
X932490Y1249520D03*
D15*
X924240Y1260270D03*
X914240Y1260270D03*
X904240Y1260270D03*
X894240Y1260270D03*
X884240Y1260270D03*
D12*
X967740Y1184520D03*
X967740Y1167520D03*
X993140Y1184520D03*
X993140Y1167520D03*
D10*
X1050370Y1127820D03*
X1050370Y1071820D03*
D11*
X1087120Y1114820D03*
X1087120Y1104820D03*
X1087120Y1094820D03*
X1087120Y1084820D03*
D10*
X1276270Y1071820D03*
X1276270Y1127820D03*
D11*
X1239520Y1084820D03*
X1239520Y1094820D03*
X1239520Y1104820D03*
X1239520Y1114820D03*
D12*
X1099820Y1184520D03*
X1099820Y1167520D03*
D13*
X1077920Y1170750D02*
X1070920Y1170750D01*
X1077920Y1170750D02*
X1077920Y1163750D01*
X1070920Y1163750D01*
X1070920Y1170750D01*
X1070920Y1166600D02*
X1077920Y1166600D01*
X1077920Y1169450D02*
X1070920Y1169450D01*
X1070920Y1188290D02*
X1077920Y1188290D01*
X1077920Y1181290D01*
X1070920Y1181290D01*
X1070920Y1188290D01*
X1070920Y1184140D02*
X1077920Y1184140D01*
X1077920Y1186990D02*
X1070920Y1186990D01*
D14*
X1110370Y1137920D03*
X1127370Y1137920D03*
X1216270Y1137920D03*
X1199270Y1137920D03*
X1171820Y1182370D03*
X1154820Y1182370D03*
D15*
X1153320Y1218770D03*
X1163320Y1218770D03*
X1143320Y1218770D03*
D16*
X1135070Y1229520D03*
X1135070Y1239520D03*
X1135070Y1249520D03*
D17*
X1163320Y1231020D03*
D15*
X1173320Y1218770D03*
X1183320Y1218770D03*
D16*
X1191570Y1229520D03*
X1191570Y1239520D03*
X1191570Y1249520D03*
D15*
X1183320Y1260270D03*
X1173320Y1260270D03*
X1163320Y1260270D03*
X1153320Y1260270D03*
X1143320Y1260270D03*
D12*
X1226820Y1184520D03*
X1226820Y1167520D03*
X1252220Y1184520D03*
X1252220Y1167520D03*
M02*
