G04 EAGLE Gerber RS-274X export*
G75*
%MOMM*%
%FSLAX34Y34*%
%LPD*%
%INSoldermask Bottom*%
%IPPOS*%
%AMOC8*
5,1,8,0,0,1.08239X$1,22.5*%
G01*
%ADD10C,3.402000*%
%ADD11C,0.735000*%
%ADD12R,1.370000X0.760400*%
%ADD13C,1.979600*%
%ADD14R,0.760400X1.370000*%
%ADD15C,0.800000*%
%ADD16R,1.370000X0.735000*%
%ADD17C,1.100000*%
%ADD18C,1.270000*%
%ADD19C,1.600000*%

G36*
X166435Y655332D02*
X166435Y655332D01*
X166501Y655334D01*
X166544Y655352D01*
X166591Y655360D01*
X166648Y655394D01*
X166708Y655419D01*
X166743Y655450D01*
X166784Y655475D01*
X166826Y655526D01*
X166874Y655570D01*
X166896Y655612D01*
X166925Y655649D01*
X166946Y655711D01*
X166977Y655770D01*
X166985Y655824D01*
X166997Y655861D01*
X166996Y655901D01*
X167004Y655955D01*
X167004Y659765D01*
X166993Y659830D01*
X166991Y659896D01*
X166973Y659939D01*
X166965Y659986D01*
X166931Y660043D01*
X166906Y660103D01*
X166875Y660138D01*
X166850Y660179D01*
X166799Y660221D01*
X166755Y660269D01*
X166713Y660291D01*
X166676Y660320D01*
X166614Y660341D01*
X166555Y660372D01*
X166501Y660380D01*
X166464Y660392D01*
X166424Y660391D01*
X166370Y660399D01*
X163830Y660399D01*
X163765Y660388D01*
X163699Y660386D01*
X163656Y660368D01*
X163609Y660360D01*
X163552Y660326D01*
X163492Y660301D01*
X163457Y660270D01*
X163416Y660245D01*
X163375Y660194D01*
X163326Y660150D01*
X163304Y660108D01*
X163275Y660071D01*
X163254Y660009D01*
X163223Y659950D01*
X163215Y659896D01*
X163203Y659859D01*
X163203Y659855D01*
X163203Y659854D01*
X163204Y659819D01*
X163196Y659765D01*
X163196Y655955D01*
X163207Y655890D01*
X163209Y655824D01*
X163227Y655781D01*
X163235Y655734D01*
X163269Y655677D01*
X163294Y655617D01*
X163325Y655582D01*
X163350Y655541D01*
X163401Y655500D01*
X163445Y655451D01*
X163487Y655429D01*
X163524Y655400D01*
X163586Y655379D01*
X163645Y655348D01*
X163699Y655340D01*
X163736Y655328D01*
X163776Y655329D01*
X163830Y655321D01*
X166370Y655321D01*
X166435Y655332D01*
G37*
G36*
X1202755Y655332D02*
X1202755Y655332D01*
X1202821Y655334D01*
X1202864Y655352D01*
X1202911Y655360D01*
X1202968Y655394D01*
X1203028Y655419D01*
X1203063Y655450D01*
X1203104Y655475D01*
X1203146Y655526D01*
X1203194Y655570D01*
X1203216Y655612D01*
X1203245Y655649D01*
X1203266Y655711D01*
X1203297Y655770D01*
X1203305Y655824D01*
X1203317Y655861D01*
X1203316Y655901D01*
X1203324Y655955D01*
X1203324Y659765D01*
X1203313Y659830D01*
X1203311Y659896D01*
X1203293Y659939D01*
X1203285Y659986D01*
X1203251Y660043D01*
X1203226Y660103D01*
X1203195Y660138D01*
X1203170Y660179D01*
X1203119Y660221D01*
X1203075Y660269D01*
X1203033Y660291D01*
X1202996Y660320D01*
X1202934Y660341D01*
X1202875Y660372D01*
X1202821Y660380D01*
X1202784Y660392D01*
X1202744Y660391D01*
X1202690Y660399D01*
X1200150Y660399D01*
X1200085Y660388D01*
X1200019Y660386D01*
X1199976Y660368D01*
X1199929Y660360D01*
X1199872Y660326D01*
X1199812Y660301D01*
X1199777Y660270D01*
X1199736Y660245D01*
X1199695Y660194D01*
X1199646Y660150D01*
X1199624Y660108D01*
X1199595Y660071D01*
X1199574Y660009D01*
X1199543Y659950D01*
X1199535Y659896D01*
X1199523Y659859D01*
X1199523Y659855D01*
X1199523Y659854D01*
X1199524Y659819D01*
X1199516Y659765D01*
X1199516Y655955D01*
X1199527Y655890D01*
X1199529Y655824D01*
X1199547Y655781D01*
X1199555Y655734D01*
X1199589Y655677D01*
X1199614Y655617D01*
X1199645Y655582D01*
X1199670Y655541D01*
X1199721Y655500D01*
X1199765Y655451D01*
X1199807Y655429D01*
X1199844Y655400D01*
X1199906Y655379D01*
X1199965Y655348D01*
X1200019Y655340D01*
X1200056Y655328D01*
X1200096Y655329D01*
X1200150Y655321D01*
X1202690Y655321D01*
X1202755Y655332D01*
G37*
G36*
X943675Y655332D02*
X943675Y655332D01*
X943741Y655334D01*
X943784Y655352D01*
X943831Y655360D01*
X943888Y655394D01*
X943948Y655419D01*
X943983Y655450D01*
X944024Y655475D01*
X944066Y655526D01*
X944114Y655570D01*
X944136Y655612D01*
X944165Y655649D01*
X944186Y655711D01*
X944217Y655770D01*
X944225Y655824D01*
X944237Y655861D01*
X944236Y655901D01*
X944244Y655955D01*
X944244Y659765D01*
X944233Y659830D01*
X944231Y659896D01*
X944213Y659939D01*
X944205Y659986D01*
X944171Y660043D01*
X944146Y660103D01*
X944115Y660138D01*
X944090Y660179D01*
X944039Y660221D01*
X943995Y660269D01*
X943953Y660291D01*
X943916Y660320D01*
X943854Y660341D01*
X943795Y660372D01*
X943741Y660380D01*
X943704Y660392D01*
X943664Y660391D01*
X943610Y660399D01*
X941070Y660399D01*
X941005Y660388D01*
X940939Y660386D01*
X940896Y660368D01*
X940849Y660360D01*
X940792Y660326D01*
X940732Y660301D01*
X940697Y660270D01*
X940656Y660245D01*
X940615Y660194D01*
X940566Y660150D01*
X940544Y660108D01*
X940515Y660071D01*
X940494Y660009D01*
X940463Y659950D01*
X940455Y659896D01*
X940443Y659859D01*
X940443Y659855D01*
X940443Y659854D01*
X940444Y659819D01*
X940436Y659765D01*
X940436Y655955D01*
X940447Y655890D01*
X940449Y655824D01*
X940467Y655781D01*
X940475Y655734D01*
X940509Y655677D01*
X940534Y655617D01*
X940565Y655582D01*
X940590Y655541D01*
X940641Y655500D01*
X940685Y655451D01*
X940727Y655429D01*
X940764Y655400D01*
X940826Y655379D01*
X940885Y655348D01*
X940939Y655340D01*
X940976Y655328D01*
X941016Y655329D01*
X941070Y655321D01*
X943610Y655321D01*
X943675Y655332D01*
G37*
G36*
X425515Y655332D02*
X425515Y655332D01*
X425581Y655334D01*
X425624Y655352D01*
X425671Y655360D01*
X425728Y655394D01*
X425788Y655419D01*
X425823Y655450D01*
X425864Y655475D01*
X425906Y655526D01*
X425954Y655570D01*
X425976Y655612D01*
X426005Y655649D01*
X426026Y655711D01*
X426057Y655770D01*
X426065Y655824D01*
X426077Y655861D01*
X426076Y655901D01*
X426084Y655955D01*
X426084Y659765D01*
X426073Y659830D01*
X426071Y659896D01*
X426053Y659939D01*
X426045Y659986D01*
X426011Y660043D01*
X425986Y660103D01*
X425955Y660138D01*
X425930Y660179D01*
X425879Y660221D01*
X425835Y660269D01*
X425793Y660291D01*
X425756Y660320D01*
X425694Y660341D01*
X425635Y660372D01*
X425581Y660380D01*
X425544Y660392D01*
X425504Y660391D01*
X425450Y660399D01*
X422910Y660399D01*
X422845Y660388D01*
X422779Y660386D01*
X422736Y660368D01*
X422689Y660360D01*
X422632Y660326D01*
X422572Y660301D01*
X422537Y660270D01*
X422496Y660245D01*
X422455Y660194D01*
X422406Y660150D01*
X422384Y660108D01*
X422355Y660071D01*
X422334Y660009D01*
X422303Y659950D01*
X422295Y659896D01*
X422283Y659859D01*
X422283Y659855D01*
X422283Y659854D01*
X422284Y659819D01*
X422276Y659765D01*
X422276Y655955D01*
X422287Y655890D01*
X422289Y655824D01*
X422307Y655781D01*
X422315Y655734D01*
X422349Y655677D01*
X422374Y655617D01*
X422405Y655582D01*
X422430Y655541D01*
X422481Y655500D01*
X422525Y655451D01*
X422567Y655429D01*
X422604Y655400D01*
X422666Y655379D01*
X422725Y655348D01*
X422779Y655340D01*
X422816Y655328D01*
X422856Y655329D01*
X422910Y655321D01*
X425450Y655321D01*
X425515Y655332D01*
G37*
G36*
X64835Y655332D02*
X64835Y655332D01*
X64901Y655334D01*
X64944Y655352D01*
X64991Y655360D01*
X65048Y655394D01*
X65108Y655419D01*
X65143Y655450D01*
X65184Y655475D01*
X65226Y655526D01*
X65274Y655570D01*
X65296Y655612D01*
X65325Y655649D01*
X65346Y655711D01*
X65377Y655770D01*
X65385Y655824D01*
X65397Y655861D01*
X65396Y655901D01*
X65404Y655955D01*
X65404Y659765D01*
X65393Y659830D01*
X65391Y659896D01*
X65373Y659939D01*
X65365Y659986D01*
X65331Y660043D01*
X65306Y660103D01*
X65275Y660138D01*
X65250Y660179D01*
X65199Y660221D01*
X65155Y660269D01*
X65113Y660291D01*
X65076Y660320D01*
X65014Y660341D01*
X64955Y660372D01*
X64901Y660380D01*
X64864Y660392D01*
X64824Y660391D01*
X64770Y660399D01*
X62230Y660399D01*
X62165Y660388D01*
X62099Y660386D01*
X62056Y660368D01*
X62009Y660360D01*
X61952Y660326D01*
X61892Y660301D01*
X61857Y660270D01*
X61816Y660245D01*
X61775Y660194D01*
X61726Y660150D01*
X61704Y660108D01*
X61675Y660071D01*
X61654Y660009D01*
X61623Y659950D01*
X61615Y659896D01*
X61603Y659859D01*
X61603Y659855D01*
X61603Y659854D01*
X61604Y659819D01*
X61596Y659765D01*
X61596Y655955D01*
X61607Y655890D01*
X61609Y655824D01*
X61627Y655781D01*
X61635Y655734D01*
X61669Y655677D01*
X61694Y655617D01*
X61725Y655582D01*
X61750Y655541D01*
X61801Y655500D01*
X61845Y655451D01*
X61887Y655429D01*
X61924Y655400D01*
X61986Y655379D01*
X62045Y655348D01*
X62099Y655340D01*
X62136Y655328D01*
X62176Y655329D01*
X62230Y655321D01*
X64770Y655321D01*
X64835Y655332D01*
G37*
G36*
X323915Y655332D02*
X323915Y655332D01*
X323981Y655334D01*
X324024Y655352D01*
X324071Y655360D01*
X324128Y655394D01*
X324188Y655419D01*
X324223Y655450D01*
X324264Y655475D01*
X324306Y655526D01*
X324354Y655570D01*
X324376Y655612D01*
X324405Y655649D01*
X324426Y655711D01*
X324457Y655770D01*
X324465Y655824D01*
X324477Y655861D01*
X324476Y655901D01*
X324484Y655955D01*
X324484Y659765D01*
X324473Y659830D01*
X324471Y659896D01*
X324453Y659939D01*
X324445Y659986D01*
X324411Y660043D01*
X324386Y660103D01*
X324355Y660138D01*
X324330Y660179D01*
X324279Y660221D01*
X324235Y660269D01*
X324193Y660291D01*
X324156Y660320D01*
X324094Y660341D01*
X324035Y660372D01*
X323981Y660380D01*
X323944Y660392D01*
X323904Y660391D01*
X323850Y660399D01*
X321310Y660399D01*
X321245Y660388D01*
X321179Y660386D01*
X321136Y660368D01*
X321089Y660360D01*
X321032Y660326D01*
X320972Y660301D01*
X320937Y660270D01*
X320896Y660245D01*
X320855Y660194D01*
X320806Y660150D01*
X320784Y660108D01*
X320755Y660071D01*
X320734Y660009D01*
X320703Y659950D01*
X320695Y659896D01*
X320683Y659859D01*
X320683Y659855D01*
X320683Y659854D01*
X320684Y659819D01*
X320676Y659765D01*
X320676Y655955D01*
X320687Y655890D01*
X320689Y655824D01*
X320707Y655781D01*
X320715Y655734D01*
X320749Y655677D01*
X320774Y655617D01*
X320805Y655582D01*
X320830Y655541D01*
X320881Y655500D01*
X320925Y655451D01*
X320967Y655429D01*
X321004Y655400D01*
X321066Y655379D01*
X321125Y655348D01*
X321179Y655340D01*
X321216Y655328D01*
X321256Y655329D01*
X321310Y655321D01*
X323850Y655321D01*
X323915Y655332D01*
G37*
G36*
X1101155Y655332D02*
X1101155Y655332D01*
X1101221Y655334D01*
X1101264Y655352D01*
X1101311Y655360D01*
X1101368Y655394D01*
X1101428Y655419D01*
X1101463Y655450D01*
X1101504Y655475D01*
X1101546Y655526D01*
X1101594Y655570D01*
X1101616Y655612D01*
X1101645Y655649D01*
X1101666Y655711D01*
X1101697Y655770D01*
X1101705Y655824D01*
X1101717Y655861D01*
X1101716Y655901D01*
X1101724Y655955D01*
X1101724Y659765D01*
X1101713Y659830D01*
X1101711Y659896D01*
X1101693Y659939D01*
X1101685Y659986D01*
X1101651Y660043D01*
X1101626Y660103D01*
X1101595Y660138D01*
X1101570Y660179D01*
X1101519Y660221D01*
X1101475Y660269D01*
X1101433Y660291D01*
X1101396Y660320D01*
X1101334Y660341D01*
X1101275Y660372D01*
X1101221Y660380D01*
X1101184Y660392D01*
X1101144Y660391D01*
X1101090Y660399D01*
X1098550Y660399D01*
X1098485Y660388D01*
X1098419Y660386D01*
X1098376Y660368D01*
X1098329Y660360D01*
X1098272Y660326D01*
X1098212Y660301D01*
X1098177Y660270D01*
X1098136Y660245D01*
X1098095Y660194D01*
X1098046Y660150D01*
X1098024Y660108D01*
X1097995Y660071D01*
X1097974Y660009D01*
X1097943Y659950D01*
X1097935Y659896D01*
X1097923Y659859D01*
X1097923Y659855D01*
X1097923Y659854D01*
X1097924Y659819D01*
X1097916Y659765D01*
X1097916Y655955D01*
X1097927Y655890D01*
X1097929Y655824D01*
X1097947Y655781D01*
X1097955Y655734D01*
X1097989Y655677D01*
X1098014Y655617D01*
X1098045Y655582D01*
X1098070Y655541D01*
X1098121Y655500D01*
X1098165Y655451D01*
X1098207Y655429D01*
X1098244Y655400D01*
X1098306Y655379D01*
X1098365Y655348D01*
X1098419Y655340D01*
X1098456Y655328D01*
X1098496Y655329D01*
X1098550Y655321D01*
X1101090Y655321D01*
X1101155Y655332D01*
G37*
G36*
X842075Y655332D02*
X842075Y655332D01*
X842141Y655334D01*
X842184Y655352D01*
X842231Y655360D01*
X842288Y655394D01*
X842348Y655419D01*
X842383Y655450D01*
X842424Y655475D01*
X842466Y655526D01*
X842514Y655570D01*
X842536Y655612D01*
X842565Y655649D01*
X842586Y655711D01*
X842617Y655770D01*
X842625Y655824D01*
X842637Y655861D01*
X842636Y655901D01*
X842644Y655955D01*
X842644Y659765D01*
X842633Y659830D01*
X842631Y659896D01*
X842613Y659939D01*
X842605Y659986D01*
X842571Y660043D01*
X842546Y660103D01*
X842515Y660138D01*
X842490Y660179D01*
X842439Y660221D01*
X842395Y660269D01*
X842353Y660291D01*
X842316Y660320D01*
X842254Y660341D01*
X842195Y660372D01*
X842141Y660380D01*
X842104Y660392D01*
X842064Y660391D01*
X842010Y660399D01*
X839470Y660399D01*
X839405Y660388D01*
X839339Y660386D01*
X839296Y660368D01*
X839249Y660360D01*
X839192Y660326D01*
X839132Y660301D01*
X839097Y660270D01*
X839056Y660245D01*
X839015Y660194D01*
X838966Y660150D01*
X838944Y660108D01*
X838915Y660071D01*
X838894Y660009D01*
X838863Y659950D01*
X838855Y659896D01*
X838843Y659859D01*
X838843Y659855D01*
X838843Y659854D01*
X838844Y659819D01*
X838836Y659765D01*
X838836Y655955D01*
X838847Y655890D01*
X838849Y655824D01*
X838867Y655781D01*
X838875Y655734D01*
X838909Y655677D01*
X838934Y655617D01*
X838965Y655582D01*
X838990Y655541D01*
X839041Y655500D01*
X839085Y655451D01*
X839127Y655429D01*
X839164Y655400D01*
X839226Y655379D01*
X839285Y655348D01*
X839339Y655340D01*
X839376Y655328D01*
X839416Y655329D01*
X839470Y655321D01*
X842010Y655321D01*
X842075Y655332D01*
G37*
G36*
X684595Y655332D02*
X684595Y655332D01*
X684661Y655334D01*
X684704Y655352D01*
X684751Y655360D01*
X684808Y655394D01*
X684868Y655419D01*
X684903Y655450D01*
X684944Y655475D01*
X684986Y655526D01*
X685034Y655570D01*
X685056Y655612D01*
X685085Y655649D01*
X685106Y655711D01*
X685137Y655770D01*
X685145Y655824D01*
X685157Y655861D01*
X685156Y655901D01*
X685164Y655955D01*
X685164Y659765D01*
X685153Y659830D01*
X685151Y659896D01*
X685133Y659939D01*
X685125Y659986D01*
X685091Y660043D01*
X685066Y660103D01*
X685035Y660138D01*
X685010Y660179D01*
X684959Y660221D01*
X684915Y660269D01*
X684873Y660291D01*
X684836Y660320D01*
X684774Y660341D01*
X684715Y660372D01*
X684661Y660380D01*
X684624Y660392D01*
X684584Y660391D01*
X684530Y660399D01*
X681990Y660399D01*
X681925Y660388D01*
X681859Y660386D01*
X681816Y660368D01*
X681769Y660360D01*
X681712Y660326D01*
X681652Y660301D01*
X681617Y660270D01*
X681576Y660245D01*
X681535Y660194D01*
X681486Y660150D01*
X681464Y660108D01*
X681435Y660071D01*
X681414Y660009D01*
X681383Y659950D01*
X681375Y659896D01*
X681363Y659859D01*
X681363Y659855D01*
X681363Y659854D01*
X681364Y659819D01*
X681356Y659765D01*
X681356Y655955D01*
X681367Y655890D01*
X681369Y655824D01*
X681387Y655781D01*
X681395Y655734D01*
X681429Y655677D01*
X681454Y655617D01*
X681485Y655582D01*
X681510Y655541D01*
X681561Y655500D01*
X681605Y655451D01*
X681647Y655429D01*
X681684Y655400D01*
X681746Y655379D01*
X681805Y655348D01*
X681859Y655340D01*
X681896Y655328D01*
X681936Y655329D01*
X681990Y655321D01*
X684530Y655321D01*
X684595Y655332D01*
G37*
G36*
X582995Y655332D02*
X582995Y655332D01*
X583061Y655334D01*
X583104Y655352D01*
X583151Y655360D01*
X583208Y655394D01*
X583268Y655419D01*
X583303Y655450D01*
X583344Y655475D01*
X583386Y655526D01*
X583434Y655570D01*
X583456Y655612D01*
X583485Y655649D01*
X583506Y655711D01*
X583537Y655770D01*
X583545Y655824D01*
X583557Y655861D01*
X583556Y655901D01*
X583564Y655955D01*
X583564Y659765D01*
X583553Y659830D01*
X583551Y659896D01*
X583533Y659939D01*
X583525Y659986D01*
X583491Y660043D01*
X583466Y660103D01*
X583435Y660138D01*
X583410Y660179D01*
X583359Y660221D01*
X583315Y660269D01*
X583273Y660291D01*
X583236Y660320D01*
X583174Y660341D01*
X583115Y660372D01*
X583061Y660380D01*
X583024Y660392D01*
X582984Y660391D01*
X582930Y660399D01*
X580390Y660399D01*
X580325Y660388D01*
X580259Y660386D01*
X580216Y660368D01*
X580169Y660360D01*
X580112Y660326D01*
X580052Y660301D01*
X580017Y660270D01*
X579976Y660245D01*
X579935Y660194D01*
X579886Y660150D01*
X579864Y660108D01*
X579835Y660071D01*
X579814Y660009D01*
X579783Y659950D01*
X579775Y659896D01*
X579763Y659859D01*
X579763Y659855D01*
X579763Y659854D01*
X579764Y659819D01*
X579756Y659765D01*
X579756Y655955D01*
X579767Y655890D01*
X579769Y655824D01*
X579787Y655781D01*
X579795Y655734D01*
X579829Y655677D01*
X579854Y655617D01*
X579885Y655582D01*
X579910Y655541D01*
X579961Y655500D01*
X580005Y655451D01*
X580047Y655429D01*
X580084Y655400D01*
X580146Y655379D01*
X580205Y655348D01*
X580259Y655340D01*
X580296Y655328D01*
X580336Y655329D01*
X580390Y655321D01*
X582930Y655321D01*
X582995Y655332D01*
G37*
G36*
X323915Y1173492D02*
X323915Y1173492D01*
X323981Y1173494D01*
X324024Y1173512D01*
X324071Y1173520D01*
X324128Y1173554D01*
X324188Y1173579D01*
X324223Y1173610D01*
X324264Y1173635D01*
X324306Y1173686D01*
X324354Y1173730D01*
X324376Y1173772D01*
X324405Y1173809D01*
X324426Y1173871D01*
X324457Y1173930D01*
X324465Y1173984D01*
X324477Y1174021D01*
X324476Y1174061D01*
X324484Y1174115D01*
X324484Y1177925D01*
X324473Y1177990D01*
X324471Y1178056D01*
X324453Y1178099D01*
X324445Y1178146D01*
X324411Y1178203D01*
X324386Y1178263D01*
X324355Y1178298D01*
X324330Y1178339D01*
X324279Y1178381D01*
X324235Y1178429D01*
X324193Y1178451D01*
X324156Y1178480D01*
X324094Y1178501D01*
X324035Y1178532D01*
X323981Y1178540D01*
X323944Y1178552D01*
X323904Y1178551D01*
X323850Y1178559D01*
X321310Y1178559D01*
X321245Y1178548D01*
X321179Y1178546D01*
X321136Y1178528D01*
X321089Y1178520D01*
X321032Y1178486D01*
X320972Y1178461D01*
X320937Y1178430D01*
X320896Y1178405D01*
X320855Y1178354D01*
X320806Y1178310D01*
X320784Y1178268D01*
X320755Y1178231D01*
X320734Y1178169D01*
X320703Y1178110D01*
X320695Y1178056D01*
X320683Y1178019D01*
X320683Y1178015D01*
X320683Y1178014D01*
X320684Y1177979D01*
X320676Y1177925D01*
X320676Y1174115D01*
X320687Y1174050D01*
X320689Y1173984D01*
X320707Y1173941D01*
X320715Y1173894D01*
X320749Y1173837D01*
X320774Y1173777D01*
X320805Y1173742D01*
X320830Y1173701D01*
X320881Y1173660D01*
X320925Y1173611D01*
X320967Y1173589D01*
X321004Y1173560D01*
X321066Y1173539D01*
X321125Y1173508D01*
X321179Y1173500D01*
X321216Y1173488D01*
X321256Y1173489D01*
X321310Y1173481D01*
X323850Y1173481D01*
X323915Y1173492D01*
G37*
G36*
X684595Y137172D02*
X684595Y137172D01*
X684661Y137174D01*
X684704Y137192D01*
X684751Y137200D01*
X684808Y137234D01*
X684868Y137259D01*
X684903Y137290D01*
X684944Y137315D01*
X684986Y137366D01*
X685034Y137410D01*
X685056Y137452D01*
X685085Y137489D01*
X685106Y137551D01*
X685137Y137610D01*
X685145Y137664D01*
X685157Y137701D01*
X685156Y137741D01*
X685164Y137795D01*
X685164Y141605D01*
X685153Y141670D01*
X685151Y141736D01*
X685133Y141779D01*
X685125Y141826D01*
X685091Y141883D01*
X685066Y141943D01*
X685035Y141978D01*
X685010Y142019D01*
X684959Y142061D01*
X684915Y142109D01*
X684873Y142131D01*
X684836Y142160D01*
X684774Y142181D01*
X684715Y142212D01*
X684661Y142220D01*
X684624Y142232D01*
X684584Y142231D01*
X684530Y142239D01*
X681990Y142239D01*
X681925Y142228D01*
X681859Y142226D01*
X681816Y142208D01*
X681769Y142200D01*
X681712Y142166D01*
X681652Y142141D01*
X681617Y142110D01*
X681576Y142085D01*
X681535Y142034D01*
X681486Y141990D01*
X681464Y141948D01*
X681435Y141911D01*
X681414Y141849D01*
X681383Y141790D01*
X681375Y141736D01*
X681363Y141699D01*
X681363Y141695D01*
X681363Y141694D01*
X681364Y141659D01*
X681356Y141605D01*
X681356Y137795D01*
X681367Y137730D01*
X681369Y137664D01*
X681387Y137621D01*
X681395Y137574D01*
X681429Y137517D01*
X681454Y137457D01*
X681485Y137422D01*
X681510Y137381D01*
X681561Y137340D01*
X681605Y137291D01*
X681647Y137269D01*
X681684Y137240D01*
X681746Y137219D01*
X681805Y137188D01*
X681859Y137180D01*
X681896Y137168D01*
X681936Y137169D01*
X681990Y137161D01*
X684530Y137161D01*
X684595Y137172D01*
G37*
G36*
X582995Y396252D02*
X582995Y396252D01*
X583061Y396254D01*
X583104Y396272D01*
X583151Y396280D01*
X583208Y396314D01*
X583268Y396339D01*
X583303Y396370D01*
X583344Y396395D01*
X583386Y396446D01*
X583434Y396490D01*
X583456Y396532D01*
X583485Y396569D01*
X583506Y396631D01*
X583537Y396690D01*
X583545Y396744D01*
X583557Y396781D01*
X583556Y396821D01*
X583564Y396875D01*
X583564Y400685D01*
X583553Y400750D01*
X583551Y400816D01*
X583533Y400859D01*
X583525Y400906D01*
X583491Y400963D01*
X583466Y401023D01*
X583435Y401058D01*
X583410Y401099D01*
X583359Y401141D01*
X583315Y401189D01*
X583273Y401211D01*
X583236Y401240D01*
X583174Y401261D01*
X583115Y401292D01*
X583061Y401300D01*
X583024Y401312D01*
X582984Y401311D01*
X582930Y401319D01*
X580390Y401319D01*
X580325Y401308D01*
X580259Y401306D01*
X580216Y401288D01*
X580169Y401280D01*
X580112Y401246D01*
X580052Y401221D01*
X580017Y401190D01*
X579976Y401165D01*
X579935Y401114D01*
X579886Y401070D01*
X579864Y401028D01*
X579835Y400991D01*
X579814Y400929D01*
X579783Y400870D01*
X579775Y400816D01*
X579763Y400779D01*
X579763Y400775D01*
X579763Y400774D01*
X579764Y400739D01*
X579756Y400685D01*
X579756Y396875D01*
X579767Y396810D01*
X579769Y396744D01*
X579787Y396701D01*
X579795Y396654D01*
X579829Y396597D01*
X579854Y396537D01*
X579885Y396502D01*
X579910Y396461D01*
X579961Y396420D01*
X580005Y396371D01*
X580047Y396349D01*
X580084Y396320D01*
X580146Y396299D01*
X580205Y396268D01*
X580259Y396260D01*
X580296Y396248D01*
X580336Y396249D01*
X580390Y396241D01*
X582930Y396241D01*
X582995Y396252D01*
G37*
G36*
X842075Y914412D02*
X842075Y914412D01*
X842141Y914414D01*
X842184Y914432D01*
X842231Y914440D01*
X842288Y914474D01*
X842348Y914499D01*
X842383Y914530D01*
X842424Y914555D01*
X842466Y914606D01*
X842514Y914650D01*
X842536Y914692D01*
X842565Y914729D01*
X842586Y914791D01*
X842617Y914850D01*
X842625Y914904D01*
X842637Y914941D01*
X842636Y914981D01*
X842644Y915035D01*
X842644Y918845D01*
X842633Y918910D01*
X842631Y918976D01*
X842613Y919019D01*
X842605Y919066D01*
X842571Y919123D01*
X842546Y919183D01*
X842515Y919218D01*
X842490Y919259D01*
X842439Y919301D01*
X842395Y919349D01*
X842353Y919371D01*
X842316Y919400D01*
X842254Y919421D01*
X842195Y919452D01*
X842141Y919460D01*
X842104Y919472D01*
X842064Y919471D01*
X842010Y919479D01*
X839470Y919479D01*
X839405Y919468D01*
X839339Y919466D01*
X839296Y919448D01*
X839249Y919440D01*
X839192Y919406D01*
X839132Y919381D01*
X839097Y919350D01*
X839056Y919325D01*
X839015Y919274D01*
X838966Y919230D01*
X838944Y919188D01*
X838915Y919151D01*
X838894Y919089D01*
X838863Y919030D01*
X838855Y918976D01*
X838843Y918939D01*
X838843Y918935D01*
X838843Y918934D01*
X838844Y918899D01*
X838836Y918845D01*
X838836Y915035D01*
X838847Y914970D01*
X838849Y914904D01*
X838867Y914861D01*
X838875Y914814D01*
X838909Y914757D01*
X838934Y914697D01*
X838965Y914662D01*
X838990Y914621D01*
X839041Y914580D01*
X839085Y914531D01*
X839127Y914509D01*
X839164Y914480D01*
X839226Y914459D01*
X839285Y914428D01*
X839339Y914420D01*
X839376Y914408D01*
X839416Y914409D01*
X839470Y914401D01*
X842010Y914401D01*
X842075Y914412D01*
G37*
G36*
X166435Y396252D02*
X166435Y396252D01*
X166501Y396254D01*
X166544Y396272D01*
X166591Y396280D01*
X166648Y396314D01*
X166708Y396339D01*
X166743Y396370D01*
X166784Y396395D01*
X166826Y396446D01*
X166874Y396490D01*
X166896Y396532D01*
X166925Y396569D01*
X166946Y396631D01*
X166977Y396690D01*
X166985Y396744D01*
X166997Y396781D01*
X166996Y396821D01*
X167004Y396875D01*
X167004Y400685D01*
X166993Y400750D01*
X166991Y400816D01*
X166973Y400859D01*
X166965Y400906D01*
X166931Y400963D01*
X166906Y401023D01*
X166875Y401058D01*
X166850Y401099D01*
X166799Y401141D01*
X166755Y401189D01*
X166713Y401211D01*
X166676Y401240D01*
X166614Y401261D01*
X166555Y401292D01*
X166501Y401300D01*
X166464Y401312D01*
X166424Y401311D01*
X166370Y401319D01*
X163830Y401319D01*
X163765Y401308D01*
X163699Y401306D01*
X163656Y401288D01*
X163609Y401280D01*
X163552Y401246D01*
X163492Y401221D01*
X163457Y401190D01*
X163416Y401165D01*
X163375Y401114D01*
X163326Y401070D01*
X163304Y401028D01*
X163275Y400991D01*
X163254Y400929D01*
X163223Y400870D01*
X163215Y400816D01*
X163203Y400779D01*
X163203Y400775D01*
X163203Y400774D01*
X163204Y400739D01*
X163196Y400685D01*
X163196Y396875D01*
X163207Y396810D01*
X163209Y396744D01*
X163227Y396701D01*
X163235Y396654D01*
X163269Y396597D01*
X163294Y396537D01*
X163325Y396502D01*
X163350Y396461D01*
X163401Y396420D01*
X163445Y396371D01*
X163487Y396349D01*
X163524Y396320D01*
X163586Y396299D01*
X163645Y396268D01*
X163699Y396260D01*
X163736Y396248D01*
X163776Y396249D01*
X163830Y396241D01*
X166370Y396241D01*
X166435Y396252D01*
G37*
G36*
X1202755Y396252D02*
X1202755Y396252D01*
X1202821Y396254D01*
X1202864Y396272D01*
X1202911Y396280D01*
X1202968Y396314D01*
X1203028Y396339D01*
X1203063Y396370D01*
X1203104Y396395D01*
X1203146Y396446D01*
X1203194Y396490D01*
X1203216Y396532D01*
X1203245Y396569D01*
X1203266Y396631D01*
X1203297Y396690D01*
X1203305Y396744D01*
X1203317Y396781D01*
X1203316Y396821D01*
X1203324Y396875D01*
X1203324Y400685D01*
X1203313Y400750D01*
X1203311Y400816D01*
X1203293Y400859D01*
X1203285Y400906D01*
X1203251Y400963D01*
X1203226Y401023D01*
X1203195Y401058D01*
X1203170Y401099D01*
X1203119Y401141D01*
X1203075Y401189D01*
X1203033Y401211D01*
X1202996Y401240D01*
X1202934Y401261D01*
X1202875Y401292D01*
X1202821Y401300D01*
X1202784Y401312D01*
X1202744Y401311D01*
X1202690Y401319D01*
X1200150Y401319D01*
X1200085Y401308D01*
X1200019Y401306D01*
X1199976Y401288D01*
X1199929Y401280D01*
X1199872Y401246D01*
X1199812Y401221D01*
X1199777Y401190D01*
X1199736Y401165D01*
X1199695Y401114D01*
X1199646Y401070D01*
X1199624Y401028D01*
X1199595Y400991D01*
X1199574Y400929D01*
X1199543Y400870D01*
X1199535Y400816D01*
X1199523Y400779D01*
X1199523Y400775D01*
X1199523Y400774D01*
X1199524Y400739D01*
X1199516Y400685D01*
X1199516Y396875D01*
X1199527Y396810D01*
X1199529Y396744D01*
X1199547Y396701D01*
X1199555Y396654D01*
X1199589Y396597D01*
X1199614Y396537D01*
X1199645Y396502D01*
X1199670Y396461D01*
X1199721Y396420D01*
X1199765Y396371D01*
X1199807Y396349D01*
X1199844Y396320D01*
X1199906Y396299D01*
X1199965Y396268D01*
X1200019Y396260D01*
X1200056Y396248D01*
X1200096Y396249D01*
X1200150Y396241D01*
X1202690Y396241D01*
X1202755Y396252D01*
G37*
G36*
X64835Y396252D02*
X64835Y396252D01*
X64901Y396254D01*
X64944Y396272D01*
X64991Y396280D01*
X65048Y396314D01*
X65108Y396339D01*
X65143Y396370D01*
X65184Y396395D01*
X65226Y396446D01*
X65274Y396490D01*
X65296Y396532D01*
X65325Y396569D01*
X65346Y396631D01*
X65377Y396690D01*
X65385Y396744D01*
X65397Y396781D01*
X65396Y396821D01*
X65404Y396875D01*
X65404Y400685D01*
X65393Y400750D01*
X65391Y400816D01*
X65373Y400859D01*
X65365Y400906D01*
X65331Y400963D01*
X65306Y401023D01*
X65275Y401058D01*
X65250Y401099D01*
X65199Y401141D01*
X65155Y401189D01*
X65113Y401211D01*
X65076Y401240D01*
X65014Y401261D01*
X64955Y401292D01*
X64901Y401300D01*
X64864Y401312D01*
X64824Y401311D01*
X64770Y401319D01*
X62230Y401319D01*
X62165Y401308D01*
X62099Y401306D01*
X62056Y401288D01*
X62009Y401280D01*
X61952Y401246D01*
X61892Y401221D01*
X61857Y401190D01*
X61816Y401165D01*
X61775Y401114D01*
X61726Y401070D01*
X61704Y401028D01*
X61675Y400991D01*
X61654Y400929D01*
X61623Y400870D01*
X61615Y400816D01*
X61603Y400779D01*
X61603Y400775D01*
X61603Y400774D01*
X61604Y400739D01*
X61596Y400685D01*
X61596Y396875D01*
X61607Y396810D01*
X61609Y396744D01*
X61627Y396701D01*
X61635Y396654D01*
X61669Y396597D01*
X61694Y396537D01*
X61725Y396502D01*
X61750Y396461D01*
X61801Y396420D01*
X61845Y396371D01*
X61887Y396349D01*
X61924Y396320D01*
X61986Y396299D01*
X62045Y396268D01*
X62099Y396260D01*
X62136Y396248D01*
X62176Y396249D01*
X62230Y396241D01*
X64770Y396241D01*
X64835Y396252D01*
G37*
G36*
X425515Y396252D02*
X425515Y396252D01*
X425581Y396254D01*
X425624Y396272D01*
X425671Y396280D01*
X425728Y396314D01*
X425788Y396339D01*
X425823Y396370D01*
X425864Y396395D01*
X425906Y396446D01*
X425954Y396490D01*
X425976Y396532D01*
X426005Y396569D01*
X426026Y396631D01*
X426057Y396690D01*
X426065Y396744D01*
X426077Y396781D01*
X426076Y396821D01*
X426084Y396875D01*
X426084Y400685D01*
X426073Y400750D01*
X426071Y400816D01*
X426053Y400859D01*
X426045Y400906D01*
X426011Y400963D01*
X425986Y401023D01*
X425955Y401058D01*
X425930Y401099D01*
X425879Y401141D01*
X425835Y401189D01*
X425793Y401211D01*
X425756Y401240D01*
X425694Y401261D01*
X425635Y401292D01*
X425581Y401300D01*
X425544Y401312D01*
X425504Y401311D01*
X425450Y401319D01*
X422910Y401319D01*
X422845Y401308D01*
X422779Y401306D01*
X422736Y401288D01*
X422689Y401280D01*
X422632Y401246D01*
X422572Y401221D01*
X422537Y401190D01*
X422496Y401165D01*
X422455Y401114D01*
X422406Y401070D01*
X422384Y401028D01*
X422355Y400991D01*
X422334Y400929D01*
X422303Y400870D01*
X422295Y400816D01*
X422283Y400779D01*
X422283Y400775D01*
X422283Y400774D01*
X422284Y400739D01*
X422276Y400685D01*
X422276Y396875D01*
X422287Y396810D01*
X422289Y396744D01*
X422307Y396701D01*
X422315Y396654D01*
X422349Y396597D01*
X422374Y396537D01*
X422405Y396502D01*
X422430Y396461D01*
X422481Y396420D01*
X422525Y396371D01*
X422567Y396349D01*
X422604Y396320D01*
X422666Y396299D01*
X422725Y396268D01*
X422779Y396260D01*
X422816Y396248D01*
X422856Y396249D01*
X422910Y396241D01*
X425450Y396241D01*
X425515Y396252D01*
G37*
G36*
X842075Y396252D02*
X842075Y396252D01*
X842141Y396254D01*
X842184Y396272D01*
X842231Y396280D01*
X842288Y396314D01*
X842348Y396339D01*
X842383Y396370D01*
X842424Y396395D01*
X842466Y396446D01*
X842514Y396490D01*
X842536Y396532D01*
X842565Y396569D01*
X842586Y396631D01*
X842617Y396690D01*
X842625Y396744D01*
X842637Y396781D01*
X842636Y396821D01*
X842644Y396875D01*
X842644Y400685D01*
X842633Y400750D01*
X842631Y400816D01*
X842613Y400859D01*
X842605Y400906D01*
X842571Y400963D01*
X842546Y401023D01*
X842515Y401058D01*
X842490Y401099D01*
X842439Y401141D01*
X842395Y401189D01*
X842353Y401211D01*
X842316Y401240D01*
X842254Y401261D01*
X842195Y401292D01*
X842141Y401300D01*
X842104Y401312D01*
X842064Y401311D01*
X842010Y401319D01*
X839470Y401319D01*
X839405Y401308D01*
X839339Y401306D01*
X839296Y401288D01*
X839249Y401280D01*
X839192Y401246D01*
X839132Y401221D01*
X839097Y401190D01*
X839056Y401165D01*
X839015Y401114D01*
X838966Y401070D01*
X838944Y401028D01*
X838915Y400991D01*
X838894Y400929D01*
X838863Y400870D01*
X838855Y400816D01*
X838843Y400779D01*
X838843Y400775D01*
X838843Y400774D01*
X838844Y400739D01*
X838836Y400685D01*
X838836Y396875D01*
X838847Y396810D01*
X838849Y396744D01*
X838867Y396701D01*
X838875Y396654D01*
X838909Y396597D01*
X838934Y396537D01*
X838965Y396502D01*
X838990Y396461D01*
X839041Y396420D01*
X839085Y396371D01*
X839127Y396349D01*
X839164Y396320D01*
X839226Y396299D01*
X839285Y396268D01*
X839339Y396260D01*
X839376Y396248D01*
X839416Y396249D01*
X839470Y396241D01*
X842010Y396241D01*
X842075Y396252D01*
G37*
G36*
X684595Y396252D02*
X684595Y396252D01*
X684661Y396254D01*
X684704Y396272D01*
X684751Y396280D01*
X684808Y396314D01*
X684868Y396339D01*
X684903Y396370D01*
X684944Y396395D01*
X684986Y396446D01*
X685034Y396490D01*
X685056Y396532D01*
X685085Y396569D01*
X685106Y396631D01*
X685137Y396690D01*
X685145Y396744D01*
X685157Y396781D01*
X685156Y396821D01*
X685164Y396875D01*
X685164Y400685D01*
X685153Y400750D01*
X685151Y400816D01*
X685133Y400859D01*
X685125Y400906D01*
X685091Y400963D01*
X685066Y401023D01*
X685035Y401058D01*
X685010Y401099D01*
X684959Y401141D01*
X684915Y401189D01*
X684873Y401211D01*
X684836Y401240D01*
X684774Y401261D01*
X684715Y401292D01*
X684661Y401300D01*
X684624Y401312D01*
X684584Y401311D01*
X684530Y401319D01*
X681990Y401319D01*
X681925Y401308D01*
X681859Y401306D01*
X681816Y401288D01*
X681769Y401280D01*
X681712Y401246D01*
X681652Y401221D01*
X681617Y401190D01*
X681576Y401165D01*
X681535Y401114D01*
X681486Y401070D01*
X681464Y401028D01*
X681435Y400991D01*
X681414Y400929D01*
X681383Y400870D01*
X681375Y400816D01*
X681363Y400779D01*
X681363Y400775D01*
X681363Y400774D01*
X681364Y400739D01*
X681356Y400685D01*
X681356Y396875D01*
X681367Y396810D01*
X681369Y396744D01*
X681387Y396701D01*
X681395Y396654D01*
X681429Y396597D01*
X681454Y396537D01*
X681485Y396502D01*
X681510Y396461D01*
X681561Y396420D01*
X681605Y396371D01*
X681647Y396349D01*
X681684Y396320D01*
X681746Y396299D01*
X681805Y396268D01*
X681859Y396260D01*
X681896Y396248D01*
X681936Y396249D01*
X681990Y396241D01*
X684530Y396241D01*
X684595Y396252D01*
G37*
G36*
X425515Y914412D02*
X425515Y914412D01*
X425581Y914414D01*
X425624Y914432D01*
X425671Y914440D01*
X425728Y914474D01*
X425788Y914499D01*
X425823Y914530D01*
X425864Y914555D01*
X425906Y914606D01*
X425954Y914650D01*
X425976Y914692D01*
X426005Y914729D01*
X426026Y914791D01*
X426057Y914850D01*
X426065Y914904D01*
X426077Y914941D01*
X426076Y914981D01*
X426084Y915035D01*
X426084Y918845D01*
X426073Y918910D01*
X426071Y918976D01*
X426053Y919019D01*
X426045Y919066D01*
X426011Y919123D01*
X425986Y919183D01*
X425955Y919218D01*
X425930Y919259D01*
X425879Y919301D01*
X425835Y919349D01*
X425793Y919371D01*
X425756Y919400D01*
X425694Y919421D01*
X425635Y919452D01*
X425581Y919460D01*
X425544Y919472D01*
X425504Y919471D01*
X425450Y919479D01*
X422910Y919479D01*
X422845Y919468D01*
X422779Y919466D01*
X422736Y919448D01*
X422689Y919440D01*
X422632Y919406D01*
X422572Y919381D01*
X422537Y919350D01*
X422496Y919325D01*
X422455Y919274D01*
X422406Y919230D01*
X422384Y919188D01*
X422355Y919151D01*
X422334Y919089D01*
X422303Y919030D01*
X422295Y918976D01*
X422283Y918939D01*
X422283Y918935D01*
X422283Y918934D01*
X422284Y918899D01*
X422276Y918845D01*
X422276Y915035D01*
X422287Y914970D01*
X422289Y914904D01*
X422307Y914861D01*
X422315Y914814D01*
X422349Y914757D01*
X422374Y914697D01*
X422405Y914662D01*
X422430Y914621D01*
X422481Y914580D01*
X422525Y914531D01*
X422567Y914509D01*
X422604Y914480D01*
X422666Y914459D01*
X422725Y914428D01*
X422779Y914420D01*
X422816Y914408D01*
X422856Y914409D01*
X422910Y914401D01*
X425450Y914401D01*
X425515Y914412D01*
G37*
G36*
X1202755Y914412D02*
X1202755Y914412D01*
X1202821Y914414D01*
X1202864Y914432D01*
X1202911Y914440D01*
X1202968Y914474D01*
X1203028Y914499D01*
X1203063Y914530D01*
X1203104Y914555D01*
X1203146Y914606D01*
X1203194Y914650D01*
X1203216Y914692D01*
X1203245Y914729D01*
X1203266Y914791D01*
X1203297Y914850D01*
X1203305Y914904D01*
X1203317Y914941D01*
X1203316Y914981D01*
X1203324Y915035D01*
X1203324Y918845D01*
X1203313Y918910D01*
X1203311Y918976D01*
X1203293Y919019D01*
X1203285Y919066D01*
X1203251Y919123D01*
X1203226Y919183D01*
X1203195Y919218D01*
X1203170Y919259D01*
X1203119Y919301D01*
X1203075Y919349D01*
X1203033Y919371D01*
X1202996Y919400D01*
X1202934Y919421D01*
X1202875Y919452D01*
X1202821Y919460D01*
X1202784Y919472D01*
X1202744Y919471D01*
X1202690Y919479D01*
X1200150Y919479D01*
X1200085Y919468D01*
X1200019Y919466D01*
X1199976Y919448D01*
X1199929Y919440D01*
X1199872Y919406D01*
X1199812Y919381D01*
X1199777Y919350D01*
X1199736Y919325D01*
X1199695Y919274D01*
X1199646Y919230D01*
X1199624Y919188D01*
X1199595Y919151D01*
X1199574Y919089D01*
X1199543Y919030D01*
X1199535Y918976D01*
X1199523Y918939D01*
X1199523Y918935D01*
X1199523Y918934D01*
X1199524Y918899D01*
X1199516Y918845D01*
X1199516Y915035D01*
X1199527Y914970D01*
X1199529Y914904D01*
X1199547Y914861D01*
X1199555Y914814D01*
X1199589Y914757D01*
X1199614Y914697D01*
X1199645Y914662D01*
X1199670Y914621D01*
X1199721Y914580D01*
X1199765Y914531D01*
X1199807Y914509D01*
X1199844Y914480D01*
X1199906Y914459D01*
X1199965Y914428D01*
X1200019Y914420D01*
X1200056Y914408D01*
X1200096Y914409D01*
X1200150Y914401D01*
X1202690Y914401D01*
X1202755Y914412D01*
G37*
G36*
X64835Y914412D02*
X64835Y914412D01*
X64901Y914414D01*
X64944Y914432D01*
X64991Y914440D01*
X65048Y914474D01*
X65108Y914499D01*
X65143Y914530D01*
X65184Y914555D01*
X65226Y914606D01*
X65274Y914650D01*
X65296Y914692D01*
X65325Y914729D01*
X65346Y914791D01*
X65377Y914850D01*
X65385Y914904D01*
X65397Y914941D01*
X65396Y914981D01*
X65404Y915035D01*
X65404Y918845D01*
X65393Y918910D01*
X65391Y918976D01*
X65373Y919019D01*
X65365Y919066D01*
X65331Y919123D01*
X65306Y919183D01*
X65275Y919218D01*
X65250Y919259D01*
X65199Y919301D01*
X65155Y919349D01*
X65113Y919371D01*
X65076Y919400D01*
X65014Y919421D01*
X64955Y919452D01*
X64901Y919460D01*
X64864Y919472D01*
X64824Y919471D01*
X64770Y919479D01*
X62230Y919479D01*
X62165Y919468D01*
X62099Y919466D01*
X62056Y919448D01*
X62009Y919440D01*
X61952Y919406D01*
X61892Y919381D01*
X61857Y919350D01*
X61816Y919325D01*
X61775Y919274D01*
X61726Y919230D01*
X61704Y919188D01*
X61675Y919151D01*
X61654Y919089D01*
X61623Y919030D01*
X61615Y918976D01*
X61603Y918939D01*
X61603Y918935D01*
X61603Y918934D01*
X61604Y918899D01*
X61596Y918845D01*
X61596Y915035D01*
X61607Y914970D01*
X61609Y914904D01*
X61627Y914861D01*
X61635Y914814D01*
X61669Y914757D01*
X61694Y914697D01*
X61725Y914662D01*
X61750Y914621D01*
X61801Y914580D01*
X61845Y914531D01*
X61887Y914509D01*
X61924Y914480D01*
X61986Y914459D01*
X62045Y914428D01*
X62099Y914420D01*
X62136Y914408D01*
X62176Y914409D01*
X62230Y914401D01*
X64770Y914401D01*
X64835Y914412D01*
G37*
G36*
X323915Y914412D02*
X323915Y914412D01*
X323981Y914414D01*
X324024Y914432D01*
X324071Y914440D01*
X324128Y914474D01*
X324188Y914499D01*
X324223Y914530D01*
X324264Y914555D01*
X324306Y914606D01*
X324354Y914650D01*
X324376Y914692D01*
X324405Y914729D01*
X324426Y914791D01*
X324457Y914850D01*
X324465Y914904D01*
X324477Y914941D01*
X324476Y914981D01*
X324484Y915035D01*
X324484Y918845D01*
X324473Y918910D01*
X324471Y918976D01*
X324453Y919019D01*
X324445Y919066D01*
X324411Y919123D01*
X324386Y919183D01*
X324355Y919218D01*
X324330Y919259D01*
X324279Y919301D01*
X324235Y919349D01*
X324193Y919371D01*
X324156Y919400D01*
X324094Y919421D01*
X324035Y919452D01*
X323981Y919460D01*
X323944Y919472D01*
X323904Y919471D01*
X323850Y919479D01*
X321310Y919479D01*
X321245Y919468D01*
X321179Y919466D01*
X321136Y919448D01*
X321089Y919440D01*
X321032Y919406D01*
X320972Y919381D01*
X320937Y919350D01*
X320896Y919325D01*
X320855Y919274D01*
X320806Y919230D01*
X320784Y919188D01*
X320755Y919151D01*
X320734Y919089D01*
X320703Y919030D01*
X320695Y918976D01*
X320683Y918939D01*
X320683Y918935D01*
X320683Y918934D01*
X320684Y918899D01*
X320676Y918845D01*
X320676Y915035D01*
X320687Y914970D01*
X320689Y914904D01*
X320707Y914861D01*
X320715Y914814D01*
X320749Y914757D01*
X320774Y914697D01*
X320805Y914662D01*
X320830Y914621D01*
X320881Y914580D01*
X320925Y914531D01*
X320967Y914509D01*
X321004Y914480D01*
X321066Y914459D01*
X321125Y914428D01*
X321179Y914420D01*
X321216Y914408D01*
X321256Y914409D01*
X321310Y914401D01*
X323850Y914401D01*
X323915Y914412D01*
G37*
G36*
X1101155Y396252D02*
X1101155Y396252D01*
X1101221Y396254D01*
X1101264Y396272D01*
X1101311Y396280D01*
X1101368Y396314D01*
X1101428Y396339D01*
X1101463Y396370D01*
X1101504Y396395D01*
X1101546Y396446D01*
X1101594Y396490D01*
X1101616Y396532D01*
X1101645Y396569D01*
X1101666Y396631D01*
X1101697Y396690D01*
X1101705Y396744D01*
X1101717Y396781D01*
X1101716Y396821D01*
X1101724Y396875D01*
X1101724Y400685D01*
X1101713Y400750D01*
X1101711Y400816D01*
X1101693Y400859D01*
X1101685Y400906D01*
X1101651Y400963D01*
X1101626Y401023D01*
X1101595Y401058D01*
X1101570Y401099D01*
X1101519Y401141D01*
X1101475Y401189D01*
X1101433Y401211D01*
X1101396Y401240D01*
X1101334Y401261D01*
X1101275Y401292D01*
X1101221Y401300D01*
X1101184Y401312D01*
X1101144Y401311D01*
X1101090Y401319D01*
X1098550Y401319D01*
X1098485Y401308D01*
X1098419Y401306D01*
X1098376Y401288D01*
X1098329Y401280D01*
X1098272Y401246D01*
X1098212Y401221D01*
X1098177Y401190D01*
X1098136Y401165D01*
X1098095Y401114D01*
X1098046Y401070D01*
X1098024Y401028D01*
X1097995Y400991D01*
X1097974Y400929D01*
X1097943Y400870D01*
X1097935Y400816D01*
X1097923Y400779D01*
X1097923Y400775D01*
X1097923Y400774D01*
X1097924Y400739D01*
X1097916Y400685D01*
X1097916Y396875D01*
X1097927Y396810D01*
X1097929Y396744D01*
X1097947Y396701D01*
X1097955Y396654D01*
X1097989Y396597D01*
X1098014Y396537D01*
X1098045Y396502D01*
X1098070Y396461D01*
X1098121Y396420D01*
X1098165Y396371D01*
X1098207Y396349D01*
X1098244Y396320D01*
X1098306Y396299D01*
X1098365Y396268D01*
X1098419Y396260D01*
X1098456Y396248D01*
X1098496Y396249D01*
X1098550Y396241D01*
X1101090Y396241D01*
X1101155Y396252D01*
G37*
G36*
X943675Y396252D02*
X943675Y396252D01*
X943741Y396254D01*
X943784Y396272D01*
X943831Y396280D01*
X943888Y396314D01*
X943948Y396339D01*
X943983Y396370D01*
X944024Y396395D01*
X944066Y396446D01*
X944114Y396490D01*
X944136Y396532D01*
X944165Y396569D01*
X944186Y396631D01*
X944217Y396690D01*
X944225Y396744D01*
X944237Y396781D01*
X944236Y396821D01*
X944244Y396875D01*
X944244Y400685D01*
X944233Y400750D01*
X944231Y400816D01*
X944213Y400859D01*
X944205Y400906D01*
X944171Y400963D01*
X944146Y401023D01*
X944115Y401058D01*
X944090Y401099D01*
X944039Y401141D01*
X943995Y401189D01*
X943953Y401211D01*
X943916Y401240D01*
X943854Y401261D01*
X943795Y401292D01*
X943741Y401300D01*
X943704Y401312D01*
X943664Y401311D01*
X943610Y401319D01*
X941070Y401319D01*
X941005Y401308D01*
X940939Y401306D01*
X940896Y401288D01*
X940849Y401280D01*
X940792Y401246D01*
X940732Y401221D01*
X940697Y401190D01*
X940656Y401165D01*
X940615Y401114D01*
X940566Y401070D01*
X940544Y401028D01*
X940515Y400991D01*
X940494Y400929D01*
X940463Y400870D01*
X940455Y400816D01*
X940443Y400779D01*
X940443Y400775D01*
X940443Y400774D01*
X940444Y400739D01*
X940436Y400685D01*
X940436Y396875D01*
X940447Y396810D01*
X940449Y396744D01*
X940467Y396701D01*
X940475Y396654D01*
X940509Y396597D01*
X940534Y396537D01*
X940565Y396502D01*
X940590Y396461D01*
X940641Y396420D01*
X940685Y396371D01*
X940727Y396349D01*
X940764Y396320D01*
X940826Y396299D01*
X940885Y396268D01*
X940939Y396260D01*
X940976Y396248D01*
X941016Y396249D01*
X941070Y396241D01*
X943610Y396241D01*
X943675Y396252D01*
G37*
G36*
X684595Y914412D02*
X684595Y914412D01*
X684661Y914414D01*
X684704Y914432D01*
X684751Y914440D01*
X684808Y914474D01*
X684868Y914499D01*
X684903Y914530D01*
X684944Y914555D01*
X684986Y914606D01*
X685034Y914650D01*
X685056Y914692D01*
X685085Y914729D01*
X685106Y914791D01*
X685137Y914850D01*
X685145Y914904D01*
X685157Y914941D01*
X685156Y914981D01*
X685164Y915035D01*
X685164Y918845D01*
X685153Y918910D01*
X685151Y918976D01*
X685133Y919019D01*
X685125Y919066D01*
X685091Y919123D01*
X685066Y919183D01*
X685035Y919218D01*
X685010Y919259D01*
X684959Y919301D01*
X684915Y919349D01*
X684873Y919371D01*
X684836Y919400D01*
X684774Y919421D01*
X684715Y919452D01*
X684661Y919460D01*
X684624Y919472D01*
X684584Y919471D01*
X684530Y919479D01*
X681990Y919479D01*
X681925Y919468D01*
X681859Y919466D01*
X681816Y919448D01*
X681769Y919440D01*
X681712Y919406D01*
X681652Y919381D01*
X681617Y919350D01*
X681576Y919325D01*
X681535Y919274D01*
X681486Y919230D01*
X681464Y919188D01*
X681435Y919151D01*
X681414Y919089D01*
X681383Y919030D01*
X681375Y918976D01*
X681363Y918939D01*
X681363Y918935D01*
X681363Y918934D01*
X681364Y918899D01*
X681356Y918845D01*
X681356Y915035D01*
X681367Y914970D01*
X681369Y914904D01*
X681387Y914861D01*
X681395Y914814D01*
X681429Y914757D01*
X681454Y914697D01*
X681485Y914662D01*
X681510Y914621D01*
X681561Y914580D01*
X681605Y914531D01*
X681647Y914509D01*
X681684Y914480D01*
X681746Y914459D01*
X681805Y914428D01*
X681859Y914420D01*
X681896Y914408D01*
X681936Y914409D01*
X681990Y914401D01*
X684530Y914401D01*
X684595Y914412D01*
G37*
G36*
X943675Y914412D02*
X943675Y914412D01*
X943741Y914414D01*
X943784Y914432D01*
X943831Y914440D01*
X943888Y914474D01*
X943948Y914499D01*
X943983Y914530D01*
X944024Y914555D01*
X944066Y914606D01*
X944114Y914650D01*
X944136Y914692D01*
X944165Y914729D01*
X944186Y914791D01*
X944217Y914850D01*
X944225Y914904D01*
X944237Y914941D01*
X944236Y914981D01*
X944244Y915035D01*
X944244Y918845D01*
X944233Y918910D01*
X944231Y918976D01*
X944213Y919019D01*
X944205Y919066D01*
X944171Y919123D01*
X944146Y919183D01*
X944115Y919218D01*
X944090Y919259D01*
X944039Y919301D01*
X943995Y919349D01*
X943953Y919371D01*
X943916Y919400D01*
X943854Y919421D01*
X943795Y919452D01*
X943741Y919460D01*
X943704Y919472D01*
X943664Y919471D01*
X943610Y919479D01*
X941070Y919479D01*
X941005Y919468D01*
X940939Y919466D01*
X940896Y919448D01*
X940849Y919440D01*
X940792Y919406D01*
X940732Y919381D01*
X940697Y919350D01*
X940656Y919325D01*
X940615Y919274D01*
X940566Y919230D01*
X940544Y919188D01*
X940515Y919151D01*
X940494Y919089D01*
X940463Y919030D01*
X940455Y918976D01*
X940443Y918939D01*
X940443Y918935D01*
X940443Y918934D01*
X940444Y918899D01*
X940436Y918845D01*
X940436Y915035D01*
X940447Y914970D01*
X940449Y914904D01*
X940467Y914861D01*
X940475Y914814D01*
X940509Y914757D01*
X940534Y914697D01*
X940565Y914662D01*
X940590Y914621D01*
X940641Y914580D01*
X940685Y914531D01*
X940727Y914509D01*
X940764Y914480D01*
X940826Y914459D01*
X940885Y914428D01*
X940939Y914420D01*
X940976Y914408D01*
X941016Y914409D01*
X941070Y914401D01*
X943610Y914401D01*
X943675Y914412D01*
G37*
G36*
X582995Y914412D02*
X582995Y914412D01*
X583061Y914414D01*
X583104Y914432D01*
X583151Y914440D01*
X583208Y914474D01*
X583268Y914499D01*
X583303Y914530D01*
X583344Y914555D01*
X583386Y914606D01*
X583434Y914650D01*
X583456Y914692D01*
X583485Y914729D01*
X583506Y914791D01*
X583537Y914850D01*
X583545Y914904D01*
X583557Y914941D01*
X583556Y914981D01*
X583564Y915035D01*
X583564Y918845D01*
X583553Y918910D01*
X583551Y918976D01*
X583533Y919019D01*
X583525Y919066D01*
X583491Y919123D01*
X583466Y919183D01*
X583435Y919218D01*
X583410Y919259D01*
X583359Y919301D01*
X583315Y919349D01*
X583273Y919371D01*
X583236Y919400D01*
X583174Y919421D01*
X583115Y919452D01*
X583061Y919460D01*
X583024Y919472D01*
X582984Y919471D01*
X582930Y919479D01*
X580390Y919479D01*
X580325Y919468D01*
X580259Y919466D01*
X580216Y919448D01*
X580169Y919440D01*
X580112Y919406D01*
X580052Y919381D01*
X580017Y919350D01*
X579976Y919325D01*
X579935Y919274D01*
X579886Y919230D01*
X579864Y919188D01*
X579835Y919151D01*
X579814Y919089D01*
X579783Y919030D01*
X579775Y918976D01*
X579763Y918939D01*
X579763Y918935D01*
X579763Y918934D01*
X579764Y918899D01*
X579756Y918845D01*
X579756Y915035D01*
X579767Y914970D01*
X579769Y914904D01*
X579787Y914861D01*
X579795Y914814D01*
X579829Y914757D01*
X579854Y914697D01*
X579885Y914662D01*
X579910Y914621D01*
X579961Y914580D01*
X580005Y914531D01*
X580047Y914509D01*
X580084Y914480D01*
X580146Y914459D01*
X580205Y914428D01*
X580259Y914420D01*
X580296Y914408D01*
X580336Y914409D01*
X580390Y914401D01*
X582930Y914401D01*
X582995Y914412D01*
G37*
G36*
X1101155Y914412D02*
X1101155Y914412D01*
X1101221Y914414D01*
X1101264Y914432D01*
X1101311Y914440D01*
X1101368Y914474D01*
X1101428Y914499D01*
X1101463Y914530D01*
X1101504Y914555D01*
X1101546Y914606D01*
X1101594Y914650D01*
X1101616Y914692D01*
X1101645Y914729D01*
X1101666Y914791D01*
X1101697Y914850D01*
X1101705Y914904D01*
X1101717Y914941D01*
X1101716Y914981D01*
X1101724Y915035D01*
X1101724Y918845D01*
X1101713Y918910D01*
X1101711Y918976D01*
X1101693Y919019D01*
X1101685Y919066D01*
X1101651Y919123D01*
X1101626Y919183D01*
X1101595Y919218D01*
X1101570Y919259D01*
X1101519Y919301D01*
X1101475Y919349D01*
X1101433Y919371D01*
X1101396Y919400D01*
X1101334Y919421D01*
X1101275Y919452D01*
X1101221Y919460D01*
X1101184Y919472D01*
X1101144Y919471D01*
X1101090Y919479D01*
X1098550Y919479D01*
X1098485Y919468D01*
X1098419Y919466D01*
X1098376Y919448D01*
X1098329Y919440D01*
X1098272Y919406D01*
X1098212Y919381D01*
X1098177Y919350D01*
X1098136Y919325D01*
X1098095Y919274D01*
X1098046Y919230D01*
X1098024Y919188D01*
X1097995Y919151D01*
X1097974Y919089D01*
X1097943Y919030D01*
X1097935Y918976D01*
X1097923Y918939D01*
X1097923Y918935D01*
X1097923Y918934D01*
X1097924Y918899D01*
X1097916Y918845D01*
X1097916Y915035D01*
X1097927Y914970D01*
X1097929Y914904D01*
X1097947Y914861D01*
X1097955Y914814D01*
X1097989Y914757D01*
X1098014Y914697D01*
X1098045Y914662D01*
X1098070Y914621D01*
X1098121Y914580D01*
X1098165Y914531D01*
X1098207Y914509D01*
X1098244Y914480D01*
X1098306Y914459D01*
X1098365Y914428D01*
X1098419Y914420D01*
X1098456Y914408D01*
X1098496Y914409D01*
X1098550Y914401D01*
X1101090Y914401D01*
X1101155Y914412D01*
G37*
G36*
X1202755Y1173492D02*
X1202755Y1173492D01*
X1202821Y1173494D01*
X1202864Y1173512D01*
X1202911Y1173520D01*
X1202968Y1173554D01*
X1203028Y1173579D01*
X1203063Y1173610D01*
X1203104Y1173635D01*
X1203146Y1173686D01*
X1203194Y1173730D01*
X1203216Y1173772D01*
X1203245Y1173809D01*
X1203266Y1173871D01*
X1203297Y1173930D01*
X1203305Y1173984D01*
X1203317Y1174021D01*
X1203316Y1174061D01*
X1203324Y1174115D01*
X1203324Y1177925D01*
X1203313Y1177990D01*
X1203311Y1178056D01*
X1203293Y1178099D01*
X1203285Y1178146D01*
X1203251Y1178203D01*
X1203226Y1178263D01*
X1203195Y1178298D01*
X1203170Y1178339D01*
X1203119Y1178381D01*
X1203075Y1178429D01*
X1203033Y1178451D01*
X1202996Y1178480D01*
X1202934Y1178501D01*
X1202875Y1178532D01*
X1202821Y1178540D01*
X1202784Y1178552D01*
X1202744Y1178551D01*
X1202690Y1178559D01*
X1200150Y1178559D01*
X1200085Y1178548D01*
X1200019Y1178546D01*
X1199976Y1178528D01*
X1199929Y1178520D01*
X1199872Y1178486D01*
X1199812Y1178461D01*
X1199777Y1178430D01*
X1199736Y1178405D01*
X1199695Y1178354D01*
X1199646Y1178310D01*
X1199624Y1178268D01*
X1199595Y1178231D01*
X1199574Y1178169D01*
X1199543Y1178110D01*
X1199535Y1178056D01*
X1199523Y1178019D01*
X1199523Y1178015D01*
X1199523Y1178014D01*
X1199524Y1177979D01*
X1199516Y1177925D01*
X1199516Y1174115D01*
X1199527Y1174050D01*
X1199529Y1173984D01*
X1199547Y1173941D01*
X1199555Y1173894D01*
X1199589Y1173837D01*
X1199614Y1173777D01*
X1199645Y1173742D01*
X1199670Y1173701D01*
X1199721Y1173660D01*
X1199765Y1173611D01*
X1199807Y1173589D01*
X1199844Y1173560D01*
X1199906Y1173539D01*
X1199965Y1173508D01*
X1200019Y1173500D01*
X1200056Y1173488D01*
X1200096Y1173489D01*
X1200150Y1173481D01*
X1202690Y1173481D01*
X1202755Y1173492D01*
G37*
G36*
X166435Y914412D02*
X166435Y914412D01*
X166501Y914414D01*
X166544Y914432D01*
X166591Y914440D01*
X166648Y914474D01*
X166708Y914499D01*
X166743Y914530D01*
X166784Y914555D01*
X166826Y914606D01*
X166874Y914650D01*
X166896Y914692D01*
X166925Y914729D01*
X166946Y914791D01*
X166977Y914850D01*
X166985Y914904D01*
X166997Y914941D01*
X166996Y914981D01*
X167004Y915035D01*
X167004Y918845D01*
X166993Y918910D01*
X166991Y918976D01*
X166973Y919019D01*
X166965Y919066D01*
X166931Y919123D01*
X166906Y919183D01*
X166875Y919218D01*
X166850Y919259D01*
X166799Y919301D01*
X166755Y919349D01*
X166713Y919371D01*
X166676Y919400D01*
X166614Y919421D01*
X166555Y919452D01*
X166501Y919460D01*
X166464Y919472D01*
X166424Y919471D01*
X166370Y919479D01*
X163830Y919479D01*
X163765Y919468D01*
X163699Y919466D01*
X163656Y919448D01*
X163609Y919440D01*
X163552Y919406D01*
X163492Y919381D01*
X163457Y919350D01*
X163416Y919325D01*
X163375Y919274D01*
X163326Y919230D01*
X163304Y919188D01*
X163275Y919151D01*
X163254Y919089D01*
X163223Y919030D01*
X163215Y918976D01*
X163203Y918939D01*
X163203Y918935D01*
X163203Y918934D01*
X163204Y918899D01*
X163196Y918845D01*
X163196Y915035D01*
X163207Y914970D01*
X163209Y914904D01*
X163227Y914861D01*
X163235Y914814D01*
X163269Y914757D01*
X163294Y914697D01*
X163325Y914662D01*
X163350Y914621D01*
X163401Y914580D01*
X163445Y914531D01*
X163487Y914509D01*
X163524Y914480D01*
X163586Y914459D01*
X163645Y914428D01*
X163699Y914420D01*
X163736Y914408D01*
X163776Y914409D01*
X163830Y914401D01*
X166370Y914401D01*
X166435Y914412D01*
G37*
G36*
X166435Y1173492D02*
X166435Y1173492D01*
X166501Y1173494D01*
X166544Y1173512D01*
X166591Y1173520D01*
X166648Y1173554D01*
X166708Y1173579D01*
X166743Y1173610D01*
X166784Y1173635D01*
X166826Y1173686D01*
X166874Y1173730D01*
X166896Y1173772D01*
X166925Y1173809D01*
X166946Y1173871D01*
X166977Y1173930D01*
X166985Y1173984D01*
X166997Y1174021D01*
X166996Y1174061D01*
X167004Y1174115D01*
X167004Y1177925D01*
X166993Y1177990D01*
X166991Y1178056D01*
X166973Y1178099D01*
X166965Y1178146D01*
X166931Y1178203D01*
X166906Y1178263D01*
X166875Y1178298D01*
X166850Y1178339D01*
X166799Y1178381D01*
X166755Y1178429D01*
X166713Y1178451D01*
X166676Y1178480D01*
X166614Y1178501D01*
X166555Y1178532D01*
X166501Y1178540D01*
X166464Y1178552D01*
X166424Y1178551D01*
X166370Y1178559D01*
X163830Y1178559D01*
X163765Y1178548D01*
X163699Y1178546D01*
X163656Y1178528D01*
X163609Y1178520D01*
X163552Y1178486D01*
X163492Y1178461D01*
X163457Y1178430D01*
X163416Y1178405D01*
X163375Y1178354D01*
X163326Y1178310D01*
X163304Y1178268D01*
X163275Y1178231D01*
X163254Y1178169D01*
X163223Y1178110D01*
X163215Y1178056D01*
X163203Y1178019D01*
X163203Y1178015D01*
X163203Y1178014D01*
X163204Y1177979D01*
X163196Y1177925D01*
X163196Y1174115D01*
X163207Y1174050D01*
X163209Y1173984D01*
X163227Y1173941D01*
X163235Y1173894D01*
X163269Y1173837D01*
X163294Y1173777D01*
X163325Y1173742D01*
X163350Y1173701D01*
X163401Y1173660D01*
X163445Y1173611D01*
X163487Y1173589D01*
X163524Y1173560D01*
X163586Y1173539D01*
X163645Y1173508D01*
X163699Y1173500D01*
X163736Y1173488D01*
X163776Y1173489D01*
X163830Y1173481D01*
X166370Y1173481D01*
X166435Y1173492D01*
G37*
G36*
X842075Y1173492D02*
X842075Y1173492D01*
X842141Y1173494D01*
X842184Y1173512D01*
X842231Y1173520D01*
X842288Y1173554D01*
X842348Y1173579D01*
X842383Y1173610D01*
X842424Y1173635D01*
X842466Y1173686D01*
X842514Y1173730D01*
X842536Y1173772D01*
X842565Y1173809D01*
X842586Y1173871D01*
X842617Y1173930D01*
X842625Y1173984D01*
X842637Y1174021D01*
X842636Y1174061D01*
X842644Y1174115D01*
X842644Y1177925D01*
X842633Y1177990D01*
X842631Y1178056D01*
X842613Y1178099D01*
X842605Y1178146D01*
X842571Y1178203D01*
X842546Y1178263D01*
X842515Y1178298D01*
X842490Y1178339D01*
X842439Y1178381D01*
X842395Y1178429D01*
X842353Y1178451D01*
X842316Y1178480D01*
X842254Y1178501D01*
X842195Y1178532D01*
X842141Y1178540D01*
X842104Y1178552D01*
X842064Y1178551D01*
X842010Y1178559D01*
X839470Y1178559D01*
X839405Y1178548D01*
X839339Y1178546D01*
X839296Y1178528D01*
X839249Y1178520D01*
X839192Y1178486D01*
X839132Y1178461D01*
X839097Y1178430D01*
X839056Y1178405D01*
X839015Y1178354D01*
X838966Y1178310D01*
X838944Y1178268D01*
X838915Y1178231D01*
X838894Y1178169D01*
X838863Y1178110D01*
X838855Y1178056D01*
X838843Y1178019D01*
X838843Y1178015D01*
X838843Y1178014D01*
X838844Y1177979D01*
X838836Y1177925D01*
X838836Y1174115D01*
X838847Y1174050D01*
X838849Y1173984D01*
X838867Y1173941D01*
X838875Y1173894D01*
X838909Y1173837D01*
X838934Y1173777D01*
X838965Y1173742D01*
X838990Y1173701D01*
X839041Y1173660D01*
X839085Y1173611D01*
X839127Y1173589D01*
X839164Y1173560D01*
X839226Y1173539D01*
X839285Y1173508D01*
X839339Y1173500D01*
X839376Y1173488D01*
X839416Y1173489D01*
X839470Y1173481D01*
X842010Y1173481D01*
X842075Y1173492D01*
G37*
G36*
X64835Y1173492D02*
X64835Y1173492D01*
X64901Y1173494D01*
X64944Y1173512D01*
X64991Y1173520D01*
X65048Y1173554D01*
X65108Y1173579D01*
X65143Y1173610D01*
X65184Y1173635D01*
X65226Y1173686D01*
X65274Y1173730D01*
X65296Y1173772D01*
X65325Y1173809D01*
X65346Y1173871D01*
X65377Y1173930D01*
X65385Y1173984D01*
X65397Y1174021D01*
X65396Y1174061D01*
X65404Y1174115D01*
X65404Y1177925D01*
X65393Y1177990D01*
X65391Y1178056D01*
X65373Y1178099D01*
X65365Y1178146D01*
X65331Y1178203D01*
X65306Y1178263D01*
X65275Y1178298D01*
X65250Y1178339D01*
X65199Y1178381D01*
X65155Y1178429D01*
X65113Y1178451D01*
X65076Y1178480D01*
X65014Y1178501D01*
X64955Y1178532D01*
X64901Y1178540D01*
X64864Y1178552D01*
X64824Y1178551D01*
X64770Y1178559D01*
X62230Y1178559D01*
X62165Y1178548D01*
X62099Y1178546D01*
X62056Y1178528D01*
X62009Y1178520D01*
X61952Y1178486D01*
X61892Y1178461D01*
X61857Y1178430D01*
X61816Y1178405D01*
X61775Y1178354D01*
X61726Y1178310D01*
X61704Y1178268D01*
X61675Y1178231D01*
X61654Y1178169D01*
X61623Y1178110D01*
X61615Y1178056D01*
X61603Y1178019D01*
X61603Y1178015D01*
X61603Y1178014D01*
X61604Y1177979D01*
X61596Y1177925D01*
X61596Y1174115D01*
X61607Y1174050D01*
X61609Y1173984D01*
X61627Y1173941D01*
X61635Y1173894D01*
X61669Y1173837D01*
X61694Y1173777D01*
X61725Y1173742D01*
X61750Y1173701D01*
X61801Y1173660D01*
X61845Y1173611D01*
X61887Y1173589D01*
X61924Y1173560D01*
X61986Y1173539D01*
X62045Y1173508D01*
X62099Y1173500D01*
X62136Y1173488D01*
X62176Y1173489D01*
X62230Y1173481D01*
X64770Y1173481D01*
X64835Y1173492D01*
G37*
G36*
X684595Y1173492D02*
X684595Y1173492D01*
X684661Y1173494D01*
X684704Y1173512D01*
X684751Y1173520D01*
X684808Y1173554D01*
X684868Y1173579D01*
X684903Y1173610D01*
X684944Y1173635D01*
X684986Y1173686D01*
X685034Y1173730D01*
X685056Y1173772D01*
X685085Y1173809D01*
X685106Y1173871D01*
X685137Y1173930D01*
X685145Y1173984D01*
X685157Y1174021D01*
X685156Y1174061D01*
X685164Y1174115D01*
X685164Y1177925D01*
X685153Y1177990D01*
X685151Y1178056D01*
X685133Y1178099D01*
X685125Y1178146D01*
X685091Y1178203D01*
X685066Y1178263D01*
X685035Y1178298D01*
X685010Y1178339D01*
X684959Y1178381D01*
X684915Y1178429D01*
X684873Y1178451D01*
X684836Y1178480D01*
X684774Y1178501D01*
X684715Y1178532D01*
X684661Y1178540D01*
X684624Y1178552D01*
X684584Y1178551D01*
X684530Y1178559D01*
X681990Y1178559D01*
X681925Y1178548D01*
X681859Y1178546D01*
X681816Y1178528D01*
X681769Y1178520D01*
X681712Y1178486D01*
X681652Y1178461D01*
X681617Y1178430D01*
X681576Y1178405D01*
X681535Y1178354D01*
X681486Y1178310D01*
X681464Y1178268D01*
X681435Y1178231D01*
X681414Y1178169D01*
X681383Y1178110D01*
X681375Y1178056D01*
X681363Y1178019D01*
X681363Y1178015D01*
X681363Y1178014D01*
X681364Y1177979D01*
X681356Y1177925D01*
X681356Y1174115D01*
X681367Y1174050D01*
X681369Y1173984D01*
X681387Y1173941D01*
X681395Y1173894D01*
X681429Y1173837D01*
X681454Y1173777D01*
X681485Y1173742D01*
X681510Y1173701D01*
X681561Y1173660D01*
X681605Y1173611D01*
X681647Y1173589D01*
X681684Y1173560D01*
X681746Y1173539D01*
X681805Y1173508D01*
X681859Y1173500D01*
X681896Y1173488D01*
X681936Y1173489D01*
X681990Y1173481D01*
X684530Y1173481D01*
X684595Y1173492D01*
G37*
G36*
X582995Y1173492D02*
X582995Y1173492D01*
X583061Y1173494D01*
X583104Y1173512D01*
X583151Y1173520D01*
X583208Y1173554D01*
X583268Y1173579D01*
X583303Y1173610D01*
X583344Y1173635D01*
X583386Y1173686D01*
X583434Y1173730D01*
X583456Y1173772D01*
X583485Y1173809D01*
X583506Y1173871D01*
X583537Y1173930D01*
X583545Y1173984D01*
X583557Y1174021D01*
X583556Y1174061D01*
X583564Y1174115D01*
X583564Y1177925D01*
X583553Y1177990D01*
X583551Y1178056D01*
X583533Y1178099D01*
X583525Y1178146D01*
X583491Y1178203D01*
X583466Y1178263D01*
X583435Y1178298D01*
X583410Y1178339D01*
X583359Y1178381D01*
X583315Y1178429D01*
X583273Y1178451D01*
X583236Y1178480D01*
X583174Y1178501D01*
X583115Y1178532D01*
X583061Y1178540D01*
X583024Y1178552D01*
X582984Y1178551D01*
X582930Y1178559D01*
X580390Y1178559D01*
X580325Y1178548D01*
X580259Y1178546D01*
X580216Y1178528D01*
X580169Y1178520D01*
X580112Y1178486D01*
X580052Y1178461D01*
X580017Y1178430D01*
X579976Y1178405D01*
X579935Y1178354D01*
X579886Y1178310D01*
X579864Y1178268D01*
X579835Y1178231D01*
X579814Y1178169D01*
X579783Y1178110D01*
X579775Y1178056D01*
X579763Y1178019D01*
X579763Y1178015D01*
X579763Y1178014D01*
X579764Y1177979D01*
X579756Y1177925D01*
X579756Y1174115D01*
X579767Y1174050D01*
X579769Y1173984D01*
X579787Y1173941D01*
X579795Y1173894D01*
X579829Y1173837D01*
X579854Y1173777D01*
X579885Y1173742D01*
X579910Y1173701D01*
X579961Y1173660D01*
X580005Y1173611D01*
X580047Y1173589D01*
X580084Y1173560D01*
X580146Y1173539D01*
X580205Y1173508D01*
X580259Y1173500D01*
X580296Y1173488D01*
X580336Y1173489D01*
X580390Y1173481D01*
X582930Y1173481D01*
X582995Y1173492D01*
G37*
G36*
X425515Y1173492D02*
X425515Y1173492D01*
X425581Y1173494D01*
X425624Y1173512D01*
X425671Y1173520D01*
X425728Y1173554D01*
X425788Y1173579D01*
X425823Y1173610D01*
X425864Y1173635D01*
X425906Y1173686D01*
X425954Y1173730D01*
X425976Y1173772D01*
X426005Y1173809D01*
X426026Y1173871D01*
X426057Y1173930D01*
X426065Y1173984D01*
X426077Y1174021D01*
X426076Y1174061D01*
X426084Y1174115D01*
X426084Y1177925D01*
X426073Y1177990D01*
X426071Y1178056D01*
X426053Y1178099D01*
X426045Y1178146D01*
X426011Y1178203D01*
X425986Y1178263D01*
X425955Y1178298D01*
X425930Y1178339D01*
X425879Y1178381D01*
X425835Y1178429D01*
X425793Y1178451D01*
X425756Y1178480D01*
X425694Y1178501D01*
X425635Y1178532D01*
X425581Y1178540D01*
X425544Y1178552D01*
X425504Y1178551D01*
X425450Y1178559D01*
X422910Y1178559D01*
X422845Y1178548D01*
X422779Y1178546D01*
X422736Y1178528D01*
X422689Y1178520D01*
X422632Y1178486D01*
X422572Y1178461D01*
X422537Y1178430D01*
X422496Y1178405D01*
X422455Y1178354D01*
X422406Y1178310D01*
X422384Y1178268D01*
X422355Y1178231D01*
X422334Y1178169D01*
X422303Y1178110D01*
X422295Y1178056D01*
X422283Y1178019D01*
X422283Y1178015D01*
X422283Y1178014D01*
X422284Y1177979D01*
X422276Y1177925D01*
X422276Y1174115D01*
X422287Y1174050D01*
X422289Y1173984D01*
X422307Y1173941D01*
X422315Y1173894D01*
X422349Y1173837D01*
X422374Y1173777D01*
X422405Y1173742D01*
X422430Y1173701D01*
X422481Y1173660D01*
X422525Y1173611D01*
X422567Y1173589D01*
X422604Y1173560D01*
X422666Y1173539D01*
X422725Y1173508D01*
X422779Y1173500D01*
X422816Y1173488D01*
X422856Y1173489D01*
X422910Y1173481D01*
X425450Y1173481D01*
X425515Y1173492D01*
G37*
G36*
X323915Y396252D02*
X323915Y396252D01*
X323981Y396254D01*
X324024Y396272D01*
X324071Y396280D01*
X324128Y396314D01*
X324188Y396339D01*
X324223Y396370D01*
X324264Y396395D01*
X324306Y396446D01*
X324354Y396490D01*
X324376Y396532D01*
X324405Y396569D01*
X324426Y396631D01*
X324457Y396690D01*
X324465Y396744D01*
X324477Y396781D01*
X324476Y396821D01*
X324484Y396875D01*
X324484Y400685D01*
X324473Y400750D01*
X324471Y400816D01*
X324453Y400859D01*
X324445Y400906D01*
X324411Y400963D01*
X324386Y401023D01*
X324355Y401058D01*
X324330Y401099D01*
X324279Y401141D01*
X324235Y401189D01*
X324193Y401211D01*
X324156Y401240D01*
X324094Y401261D01*
X324035Y401292D01*
X323981Y401300D01*
X323944Y401312D01*
X323904Y401311D01*
X323850Y401319D01*
X321310Y401319D01*
X321245Y401308D01*
X321179Y401306D01*
X321136Y401288D01*
X321089Y401280D01*
X321032Y401246D01*
X320972Y401221D01*
X320937Y401190D01*
X320896Y401165D01*
X320855Y401114D01*
X320806Y401070D01*
X320784Y401028D01*
X320755Y400991D01*
X320734Y400929D01*
X320703Y400870D01*
X320695Y400816D01*
X320683Y400779D01*
X320683Y400775D01*
X320683Y400774D01*
X320684Y400739D01*
X320676Y400685D01*
X320676Y396875D01*
X320687Y396810D01*
X320689Y396744D01*
X320707Y396701D01*
X320715Y396654D01*
X320749Y396597D01*
X320774Y396537D01*
X320805Y396502D01*
X320830Y396461D01*
X320881Y396420D01*
X320925Y396371D01*
X320967Y396349D01*
X321004Y396320D01*
X321066Y396299D01*
X321125Y396268D01*
X321179Y396260D01*
X321216Y396248D01*
X321256Y396249D01*
X321310Y396241D01*
X323850Y396241D01*
X323915Y396252D01*
G37*
G36*
X1101155Y1173492D02*
X1101155Y1173492D01*
X1101221Y1173494D01*
X1101264Y1173512D01*
X1101311Y1173520D01*
X1101368Y1173554D01*
X1101428Y1173579D01*
X1101463Y1173610D01*
X1101504Y1173635D01*
X1101546Y1173686D01*
X1101594Y1173730D01*
X1101616Y1173772D01*
X1101645Y1173809D01*
X1101666Y1173871D01*
X1101697Y1173930D01*
X1101705Y1173984D01*
X1101717Y1174021D01*
X1101716Y1174061D01*
X1101724Y1174115D01*
X1101724Y1177925D01*
X1101713Y1177990D01*
X1101711Y1178056D01*
X1101693Y1178099D01*
X1101685Y1178146D01*
X1101651Y1178203D01*
X1101626Y1178263D01*
X1101595Y1178298D01*
X1101570Y1178339D01*
X1101519Y1178381D01*
X1101475Y1178429D01*
X1101433Y1178451D01*
X1101396Y1178480D01*
X1101334Y1178501D01*
X1101275Y1178532D01*
X1101221Y1178540D01*
X1101184Y1178552D01*
X1101144Y1178551D01*
X1101090Y1178559D01*
X1098550Y1178559D01*
X1098485Y1178548D01*
X1098419Y1178546D01*
X1098376Y1178528D01*
X1098329Y1178520D01*
X1098272Y1178486D01*
X1098212Y1178461D01*
X1098177Y1178430D01*
X1098136Y1178405D01*
X1098095Y1178354D01*
X1098046Y1178310D01*
X1098024Y1178268D01*
X1097995Y1178231D01*
X1097974Y1178169D01*
X1097943Y1178110D01*
X1097935Y1178056D01*
X1097923Y1178019D01*
X1097923Y1178015D01*
X1097923Y1178014D01*
X1097924Y1177979D01*
X1097916Y1177925D01*
X1097916Y1174115D01*
X1097927Y1174050D01*
X1097929Y1173984D01*
X1097947Y1173941D01*
X1097955Y1173894D01*
X1097989Y1173837D01*
X1098014Y1173777D01*
X1098045Y1173742D01*
X1098070Y1173701D01*
X1098121Y1173660D01*
X1098165Y1173611D01*
X1098207Y1173589D01*
X1098244Y1173560D01*
X1098306Y1173539D01*
X1098365Y1173508D01*
X1098419Y1173500D01*
X1098456Y1173488D01*
X1098496Y1173489D01*
X1098550Y1173481D01*
X1101090Y1173481D01*
X1101155Y1173492D01*
G37*
G36*
X943675Y1173492D02*
X943675Y1173492D01*
X943741Y1173494D01*
X943784Y1173512D01*
X943831Y1173520D01*
X943888Y1173554D01*
X943948Y1173579D01*
X943983Y1173610D01*
X944024Y1173635D01*
X944066Y1173686D01*
X944114Y1173730D01*
X944136Y1173772D01*
X944165Y1173809D01*
X944186Y1173871D01*
X944217Y1173930D01*
X944225Y1173984D01*
X944237Y1174021D01*
X944236Y1174061D01*
X944244Y1174115D01*
X944244Y1177925D01*
X944233Y1177990D01*
X944231Y1178056D01*
X944213Y1178099D01*
X944205Y1178146D01*
X944171Y1178203D01*
X944146Y1178263D01*
X944115Y1178298D01*
X944090Y1178339D01*
X944039Y1178381D01*
X943995Y1178429D01*
X943953Y1178451D01*
X943916Y1178480D01*
X943854Y1178501D01*
X943795Y1178532D01*
X943741Y1178540D01*
X943704Y1178552D01*
X943664Y1178551D01*
X943610Y1178559D01*
X941070Y1178559D01*
X941005Y1178548D01*
X940939Y1178546D01*
X940896Y1178528D01*
X940849Y1178520D01*
X940792Y1178486D01*
X940732Y1178461D01*
X940697Y1178430D01*
X940656Y1178405D01*
X940615Y1178354D01*
X940566Y1178310D01*
X940544Y1178268D01*
X940515Y1178231D01*
X940494Y1178169D01*
X940463Y1178110D01*
X940455Y1178056D01*
X940443Y1178019D01*
X940443Y1178015D01*
X940443Y1178014D01*
X940444Y1177979D01*
X940436Y1177925D01*
X940436Y1174115D01*
X940447Y1174050D01*
X940449Y1173984D01*
X940467Y1173941D01*
X940475Y1173894D01*
X940509Y1173837D01*
X940534Y1173777D01*
X940565Y1173742D01*
X940590Y1173701D01*
X940641Y1173660D01*
X940685Y1173611D01*
X940727Y1173589D01*
X940764Y1173560D01*
X940826Y1173539D01*
X940885Y1173508D01*
X940939Y1173500D01*
X940976Y1173488D01*
X941016Y1173489D01*
X941070Y1173481D01*
X943610Y1173481D01*
X943675Y1173492D01*
G37*
G36*
X425515Y137172D02*
X425515Y137172D01*
X425581Y137174D01*
X425624Y137192D01*
X425671Y137200D01*
X425728Y137234D01*
X425788Y137259D01*
X425823Y137290D01*
X425864Y137315D01*
X425906Y137366D01*
X425954Y137410D01*
X425976Y137452D01*
X426005Y137489D01*
X426026Y137551D01*
X426057Y137610D01*
X426065Y137664D01*
X426077Y137701D01*
X426076Y137741D01*
X426084Y137795D01*
X426084Y141605D01*
X426073Y141670D01*
X426071Y141736D01*
X426053Y141779D01*
X426045Y141826D01*
X426011Y141883D01*
X425986Y141943D01*
X425955Y141978D01*
X425930Y142019D01*
X425879Y142061D01*
X425835Y142109D01*
X425793Y142131D01*
X425756Y142160D01*
X425694Y142181D01*
X425635Y142212D01*
X425581Y142220D01*
X425544Y142232D01*
X425504Y142231D01*
X425450Y142239D01*
X422910Y142239D01*
X422845Y142228D01*
X422779Y142226D01*
X422736Y142208D01*
X422689Y142200D01*
X422632Y142166D01*
X422572Y142141D01*
X422537Y142110D01*
X422496Y142085D01*
X422455Y142034D01*
X422406Y141990D01*
X422384Y141948D01*
X422355Y141911D01*
X422334Y141849D01*
X422303Y141790D01*
X422295Y141736D01*
X422283Y141699D01*
X422283Y141695D01*
X422283Y141694D01*
X422284Y141659D01*
X422276Y141605D01*
X422276Y137795D01*
X422287Y137730D01*
X422289Y137664D01*
X422307Y137621D01*
X422315Y137574D01*
X422349Y137517D01*
X422374Y137457D01*
X422405Y137422D01*
X422430Y137381D01*
X422481Y137340D01*
X422525Y137291D01*
X422567Y137269D01*
X422604Y137240D01*
X422666Y137219D01*
X422725Y137188D01*
X422779Y137180D01*
X422816Y137168D01*
X422856Y137169D01*
X422910Y137161D01*
X425450Y137161D01*
X425515Y137172D01*
G37*
G36*
X582995Y137172D02*
X582995Y137172D01*
X583061Y137174D01*
X583104Y137192D01*
X583151Y137200D01*
X583208Y137234D01*
X583268Y137259D01*
X583303Y137290D01*
X583344Y137315D01*
X583386Y137366D01*
X583434Y137410D01*
X583456Y137452D01*
X583485Y137489D01*
X583506Y137551D01*
X583537Y137610D01*
X583545Y137664D01*
X583557Y137701D01*
X583556Y137741D01*
X583564Y137795D01*
X583564Y141605D01*
X583553Y141670D01*
X583551Y141736D01*
X583533Y141779D01*
X583525Y141826D01*
X583491Y141883D01*
X583466Y141943D01*
X583435Y141978D01*
X583410Y142019D01*
X583359Y142061D01*
X583315Y142109D01*
X583273Y142131D01*
X583236Y142160D01*
X583174Y142181D01*
X583115Y142212D01*
X583061Y142220D01*
X583024Y142232D01*
X582984Y142231D01*
X582930Y142239D01*
X580390Y142239D01*
X580325Y142228D01*
X580259Y142226D01*
X580216Y142208D01*
X580169Y142200D01*
X580112Y142166D01*
X580052Y142141D01*
X580017Y142110D01*
X579976Y142085D01*
X579935Y142034D01*
X579886Y141990D01*
X579864Y141948D01*
X579835Y141911D01*
X579814Y141849D01*
X579783Y141790D01*
X579775Y141736D01*
X579763Y141699D01*
X579763Y141695D01*
X579763Y141694D01*
X579764Y141659D01*
X579756Y141605D01*
X579756Y137795D01*
X579767Y137730D01*
X579769Y137664D01*
X579787Y137621D01*
X579795Y137574D01*
X579829Y137517D01*
X579854Y137457D01*
X579885Y137422D01*
X579910Y137381D01*
X579961Y137340D01*
X580005Y137291D01*
X580047Y137269D01*
X580084Y137240D01*
X580146Y137219D01*
X580205Y137188D01*
X580259Y137180D01*
X580296Y137168D01*
X580336Y137169D01*
X580390Y137161D01*
X582930Y137161D01*
X582995Y137172D01*
G37*
G36*
X842075Y137172D02*
X842075Y137172D01*
X842141Y137174D01*
X842184Y137192D01*
X842231Y137200D01*
X842288Y137234D01*
X842348Y137259D01*
X842383Y137290D01*
X842424Y137315D01*
X842466Y137366D01*
X842514Y137410D01*
X842536Y137452D01*
X842565Y137489D01*
X842586Y137551D01*
X842617Y137610D01*
X842625Y137664D01*
X842637Y137701D01*
X842636Y137741D01*
X842644Y137795D01*
X842644Y141605D01*
X842633Y141670D01*
X842631Y141736D01*
X842613Y141779D01*
X842605Y141826D01*
X842571Y141883D01*
X842546Y141943D01*
X842515Y141978D01*
X842490Y142019D01*
X842439Y142061D01*
X842395Y142109D01*
X842353Y142131D01*
X842316Y142160D01*
X842254Y142181D01*
X842195Y142212D01*
X842141Y142220D01*
X842104Y142232D01*
X842064Y142231D01*
X842010Y142239D01*
X839470Y142239D01*
X839405Y142228D01*
X839339Y142226D01*
X839296Y142208D01*
X839249Y142200D01*
X839192Y142166D01*
X839132Y142141D01*
X839097Y142110D01*
X839056Y142085D01*
X839015Y142034D01*
X838966Y141990D01*
X838944Y141948D01*
X838915Y141911D01*
X838894Y141849D01*
X838863Y141790D01*
X838855Y141736D01*
X838843Y141699D01*
X838843Y141695D01*
X838843Y141694D01*
X838844Y141659D01*
X838836Y141605D01*
X838836Y137795D01*
X838847Y137730D01*
X838849Y137664D01*
X838867Y137621D01*
X838875Y137574D01*
X838909Y137517D01*
X838934Y137457D01*
X838965Y137422D01*
X838990Y137381D01*
X839041Y137340D01*
X839085Y137291D01*
X839127Y137269D01*
X839164Y137240D01*
X839226Y137219D01*
X839285Y137188D01*
X839339Y137180D01*
X839376Y137168D01*
X839416Y137169D01*
X839470Y137161D01*
X842010Y137161D01*
X842075Y137172D01*
G37*
G36*
X1202755Y137172D02*
X1202755Y137172D01*
X1202821Y137174D01*
X1202864Y137192D01*
X1202911Y137200D01*
X1202968Y137234D01*
X1203028Y137259D01*
X1203063Y137290D01*
X1203104Y137315D01*
X1203146Y137366D01*
X1203194Y137410D01*
X1203216Y137452D01*
X1203245Y137489D01*
X1203266Y137551D01*
X1203297Y137610D01*
X1203305Y137664D01*
X1203317Y137701D01*
X1203316Y137741D01*
X1203324Y137795D01*
X1203324Y141605D01*
X1203313Y141670D01*
X1203311Y141736D01*
X1203293Y141779D01*
X1203285Y141826D01*
X1203251Y141883D01*
X1203226Y141943D01*
X1203195Y141978D01*
X1203170Y142019D01*
X1203119Y142061D01*
X1203075Y142109D01*
X1203033Y142131D01*
X1202996Y142160D01*
X1202934Y142181D01*
X1202875Y142212D01*
X1202821Y142220D01*
X1202784Y142232D01*
X1202744Y142231D01*
X1202690Y142239D01*
X1200150Y142239D01*
X1200085Y142228D01*
X1200019Y142226D01*
X1199976Y142208D01*
X1199929Y142200D01*
X1199872Y142166D01*
X1199812Y142141D01*
X1199777Y142110D01*
X1199736Y142085D01*
X1199695Y142034D01*
X1199646Y141990D01*
X1199624Y141948D01*
X1199595Y141911D01*
X1199574Y141849D01*
X1199543Y141790D01*
X1199535Y141736D01*
X1199523Y141699D01*
X1199523Y141695D01*
X1199523Y141694D01*
X1199524Y141659D01*
X1199516Y141605D01*
X1199516Y137795D01*
X1199527Y137730D01*
X1199529Y137664D01*
X1199547Y137621D01*
X1199555Y137574D01*
X1199589Y137517D01*
X1199614Y137457D01*
X1199645Y137422D01*
X1199670Y137381D01*
X1199721Y137340D01*
X1199765Y137291D01*
X1199807Y137269D01*
X1199844Y137240D01*
X1199906Y137219D01*
X1199965Y137188D01*
X1200019Y137180D01*
X1200056Y137168D01*
X1200096Y137169D01*
X1200150Y137161D01*
X1202690Y137161D01*
X1202755Y137172D01*
G37*
G36*
X1101155Y137172D02*
X1101155Y137172D01*
X1101221Y137174D01*
X1101264Y137192D01*
X1101311Y137200D01*
X1101368Y137234D01*
X1101428Y137259D01*
X1101463Y137290D01*
X1101504Y137315D01*
X1101546Y137366D01*
X1101594Y137410D01*
X1101616Y137452D01*
X1101645Y137489D01*
X1101666Y137551D01*
X1101697Y137610D01*
X1101705Y137664D01*
X1101717Y137701D01*
X1101716Y137741D01*
X1101724Y137795D01*
X1101724Y141605D01*
X1101713Y141670D01*
X1101711Y141736D01*
X1101693Y141779D01*
X1101685Y141826D01*
X1101651Y141883D01*
X1101626Y141943D01*
X1101595Y141978D01*
X1101570Y142019D01*
X1101519Y142061D01*
X1101475Y142109D01*
X1101433Y142131D01*
X1101396Y142160D01*
X1101334Y142181D01*
X1101275Y142212D01*
X1101221Y142220D01*
X1101184Y142232D01*
X1101144Y142231D01*
X1101090Y142239D01*
X1098550Y142239D01*
X1098485Y142228D01*
X1098419Y142226D01*
X1098376Y142208D01*
X1098329Y142200D01*
X1098272Y142166D01*
X1098212Y142141D01*
X1098177Y142110D01*
X1098136Y142085D01*
X1098095Y142034D01*
X1098046Y141990D01*
X1098024Y141948D01*
X1097995Y141911D01*
X1097974Y141849D01*
X1097943Y141790D01*
X1097935Y141736D01*
X1097923Y141699D01*
X1097923Y141695D01*
X1097923Y141694D01*
X1097924Y141659D01*
X1097916Y141605D01*
X1097916Y137795D01*
X1097927Y137730D01*
X1097929Y137664D01*
X1097947Y137621D01*
X1097955Y137574D01*
X1097989Y137517D01*
X1098014Y137457D01*
X1098045Y137422D01*
X1098070Y137381D01*
X1098121Y137340D01*
X1098165Y137291D01*
X1098207Y137269D01*
X1098244Y137240D01*
X1098306Y137219D01*
X1098365Y137188D01*
X1098419Y137180D01*
X1098456Y137168D01*
X1098496Y137169D01*
X1098550Y137161D01*
X1101090Y137161D01*
X1101155Y137172D01*
G37*
G36*
X943675Y137172D02*
X943675Y137172D01*
X943741Y137174D01*
X943784Y137192D01*
X943831Y137200D01*
X943888Y137234D01*
X943948Y137259D01*
X943983Y137290D01*
X944024Y137315D01*
X944066Y137366D01*
X944114Y137410D01*
X944136Y137452D01*
X944165Y137489D01*
X944186Y137551D01*
X944217Y137610D01*
X944225Y137664D01*
X944237Y137701D01*
X944236Y137741D01*
X944244Y137795D01*
X944244Y141605D01*
X944233Y141670D01*
X944231Y141736D01*
X944213Y141779D01*
X944205Y141826D01*
X944171Y141883D01*
X944146Y141943D01*
X944115Y141978D01*
X944090Y142019D01*
X944039Y142061D01*
X943995Y142109D01*
X943953Y142131D01*
X943916Y142160D01*
X943854Y142181D01*
X943795Y142212D01*
X943741Y142220D01*
X943704Y142232D01*
X943664Y142231D01*
X943610Y142239D01*
X941070Y142239D01*
X941005Y142228D01*
X940939Y142226D01*
X940896Y142208D01*
X940849Y142200D01*
X940792Y142166D01*
X940732Y142141D01*
X940697Y142110D01*
X940656Y142085D01*
X940615Y142034D01*
X940566Y141990D01*
X940544Y141948D01*
X940515Y141911D01*
X940494Y141849D01*
X940463Y141790D01*
X940455Y141736D01*
X940443Y141699D01*
X940443Y141695D01*
X940443Y141694D01*
X940444Y141659D01*
X940436Y141605D01*
X940436Y137795D01*
X940447Y137730D01*
X940449Y137664D01*
X940467Y137621D01*
X940475Y137574D01*
X940509Y137517D01*
X940534Y137457D01*
X940565Y137422D01*
X940590Y137381D01*
X940641Y137340D01*
X940685Y137291D01*
X940727Y137269D01*
X940764Y137240D01*
X940826Y137219D01*
X940885Y137188D01*
X940939Y137180D01*
X940976Y137168D01*
X941016Y137169D01*
X941070Y137161D01*
X943610Y137161D01*
X943675Y137172D01*
G37*
G36*
X323915Y137172D02*
X323915Y137172D01*
X323981Y137174D01*
X324024Y137192D01*
X324071Y137200D01*
X324128Y137234D01*
X324188Y137259D01*
X324223Y137290D01*
X324264Y137315D01*
X324306Y137366D01*
X324354Y137410D01*
X324376Y137452D01*
X324405Y137489D01*
X324426Y137551D01*
X324457Y137610D01*
X324465Y137664D01*
X324477Y137701D01*
X324476Y137741D01*
X324484Y137795D01*
X324484Y141605D01*
X324473Y141670D01*
X324471Y141736D01*
X324453Y141779D01*
X324445Y141826D01*
X324411Y141883D01*
X324386Y141943D01*
X324355Y141978D01*
X324330Y142019D01*
X324279Y142061D01*
X324235Y142109D01*
X324193Y142131D01*
X324156Y142160D01*
X324094Y142181D01*
X324035Y142212D01*
X323981Y142220D01*
X323944Y142232D01*
X323904Y142231D01*
X323850Y142239D01*
X321310Y142239D01*
X321245Y142228D01*
X321179Y142226D01*
X321136Y142208D01*
X321089Y142200D01*
X321032Y142166D01*
X320972Y142141D01*
X320937Y142110D01*
X320896Y142085D01*
X320855Y142034D01*
X320806Y141990D01*
X320784Y141948D01*
X320755Y141911D01*
X320734Y141849D01*
X320703Y141790D01*
X320695Y141736D01*
X320683Y141699D01*
X320683Y141695D01*
X320683Y141694D01*
X320684Y141659D01*
X320676Y141605D01*
X320676Y137795D01*
X320687Y137730D01*
X320689Y137664D01*
X320707Y137621D01*
X320715Y137574D01*
X320749Y137517D01*
X320774Y137457D01*
X320805Y137422D01*
X320830Y137381D01*
X320881Y137340D01*
X320925Y137291D01*
X320967Y137269D01*
X321004Y137240D01*
X321066Y137219D01*
X321125Y137188D01*
X321179Y137180D01*
X321216Y137168D01*
X321256Y137169D01*
X321310Y137161D01*
X323850Y137161D01*
X323915Y137172D01*
G37*
G36*
X166435Y137172D02*
X166435Y137172D01*
X166501Y137174D01*
X166544Y137192D01*
X166591Y137200D01*
X166648Y137234D01*
X166708Y137259D01*
X166743Y137290D01*
X166784Y137315D01*
X166826Y137366D01*
X166874Y137410D01*
X166896Y137452D01*
X166925Y137489D01*
X166946Y137551D01*
X166977Y137610D01*
X166985Y137664D01*
X166997Y137701D01*
X166996Y137741D01*
X167004Y137795D01*
X167004Y141605D01*
X166993Y141670D01*
X166991Y141736D01*
X166973Y141779D01*
X166965Y141826D01*
X166931Y141883D01*
X166906Y141943D01*
X166875Y141978D01*
X166850Y142019D01*
X166799Y142061D01*
X166755Y142109D01*
X166713Y142131D01*
X166676Y142160D01*
X166614Y142181D01*
X166555Y142212D01*
X166501Y142220D01*
X166464Y142232D01*
X166424Y142231D01*
X166370Y142239D01*
X163830Y142239D01*
X163765Y142228D01*
X163699Y142226D01*
X163656Y142208D01*
X163609Y142200D01*
X163552Y142166D01*
X163492Y142141D01*
X163457Y142110D01*
X163416Y142085D01*
X163375Y142034D01*
X163326Y141990D01*
X163304Y141948D01*
X163275Y141911D01*
X163254Y141849D01*
X163223Y141790D01*
X163215Y141736D01*
X163203Y141699D01*
X163203Y141695D01*
X163203Y141694D01*
X163204Y141659D01*
X163196Y141605D01*
X163196Y137795D01*
X163207Y137730D01*
X163209Y137664D01*
X163227Y137621D01*
X163235Y137574D01*
X163269Y137517D01*
X163294Y137457D01*
X163325Y137422D01*
X163350Y137381D01*
X163401Y137340D01*
X163445Y137291D01*
X163487Y137269D01*
X163524Y137240D01*
X163586Y137219D01*
X163645Y137188D01*
X163699Y137180D01*
X163736Y137168D01*
X163776Y137169D01*
X163830Y137161D01*
X166370Y137161D01*
X166435Y137172D01*
G37*
G36*
X64835Y137172D02*
X64835Y137172D01*
X64901Y137174D01*
X64944Y137192D01*
X64991Y137200D01*
X65048Y137234D01*
X65108Y137259D01*
X65143Y137290D01*
X65184Y137315D01*
X65226Y137366D01*
X65274Y137410D01*
X65296Y137452D01*
X65325Y137489D01*
X65346Y137551D01*
X65377Y137610D01*
X65385Y137664D01*
X65397Y137701D01*
X65396Y137741D01*
X65404Y137795D01*
X65404Y141605D01*
X65393Y141670D01*
X65391Y141736D01*
X65373Y141779D01*
X65365Y141826D01*
X65331Y141883D01*
X65306Y141943D01*
X65275Y141978D01*
X65250Y142019D01*
X65199Y142061D01*
X65155Y142109D01*
X65113Y142131D01*
X65076Y142160D01*
X65014Y142181D01*
X64955Y142212D01*
X64901Y142220D01*
X64864Y142232D01*
X64824Y142231D01*
X64770Y142239D01*
X62230Y142239D01*
X62165Y142228D01*
X62099Y142226D01*
X62056Y142208D01*
X62009Y142200D01*
X61952Y142166D01*
X61892Y142141D01*
X61857Y142110D01*
X61816Y142085D01*
X61775Y142034D01*
X61726Y141990D01*
X61704Y141948D01*
X61675Y141911D01*
X61654Y141849D01*
X61623Y141790D01*
X61615Y141736D01*
X61603Y141699D01*
X61603Y141695D01*
X61603Y141694D01*
X61604Y141659D01*
X61596Y141605D01*
X61596Y137795D01*
X61607Y137730D01*
X61609Y137664D01*
X61627Y137621D01*
X61635Y137574D01*
X61669Y137517D01*
X61694Y137457D01*
X61725Y137422D01*
X61750Y137381D01*
X61801Y137340D01*
X61845Y137291D01*
X61887Y137269D01*
X61924Y137240D01*
X61986Y137219D01*
X62045Y137188D01*
X62099Y137180D01*
X62136Y137168D01*
X62176Y137169D01*
X62230Y137161D01*
X64770Y137161D01*
X64835Y137172D01*
G37*
G36*
X382970Y876947D02*
X382970Y876947D01*
X383036Y876949D01*
X383079Y876967D01*
X383126Y876975D01*
X383183Y877009D01*
X383243Y877034D01*
X383278Y877065D01*
X383319Y877090D01*
X383361Y877141D01*
X383409Y877185D01*
X383431Y877227D01*
X383460Y877264D01*
X383481Y877326D01*
X383512Y877385D01*
X383520Y877439D01*
X383532Y877476D01*
X383531Y877516D01*
X383539Y877570D01*
X383539Y880110D01*
X383528Y880175D01*
X383526Y880241D01*
X383508Y880284D01*
X383500Y880331D01*
X383466Y880388D01*
X383441Y880448D01*
X383410Y880483D01*
X383385Y880524D01*
X383334Y880566D01*
X383290Y880614D01*
X383248Y880636D01*
X383211Y880665D01*
X383149Y880686D01*
X383090Y880717D01*
X383036Y880725D01*
X382999Y880737D01*
X382959Y880736D01*
X382905Y880744D01*
X379095Y880744D01*
X379030Y880733D01*
X378964Y880731D01*
X378921Y880713D01*
X378874Y880705D01*
X378817Y880671D01*
X378757Y880646D01*
X378722Y880615D01*
X378681Y880590D01*
X378640Y880539D01*
X378591Y880495D01*
X378569Y880453D01*
X378540Y880416D01*
X378519Y880354D01*
X378488Y880295D01*
X378480Y880241D01*
X378468Y880204D01*
X378468Y880201D01*
X378469Y880164D01*
X378461Y880110D01*
X378461Y877570D01*
X378472Y877505D01*
X378474Y877439D01*
X378492Y877396D01*
X378500Y877349D01*
X378534Y877292D01*
X378559Y877232D01*
X378590Y877197D01*
X378615Y877156D01*
X378666Y877115D01*
X378710Y877066D01*
X378752Y877044D01*
X378789Y877015D01*
X378851Y876994D01*
X378910Y876963D01*
X378964Y876955D01*
X379001Y876943D01*
X379041Y876944D01*
X379095Y876936D01*
X382905Y876936D01*
X382970Y876947D01*
G37*
G36*
X134050Y876947D02*
X134050Y876947D01*
X134116Y876949D01*
X134159Y876967D01*
X134206Y876975D01*
X134263Y877009D01*
X134323Y877034D01*
X134358Y877065D01*
X134399Y877090D01*
X134441Y877141D01*
X134489Y877185D01*
X134511Y877227D01*
X134540Y877264D01*
X134561Y877326D01*
X134592Y877385D01*
X134600Y877439D01*
X134612Y877476D01*
X134611Y877516D01*
X134619Y877570D01*
X134619Y880110D01*
X134608Y880175D01*
X134606Y880241D01*
X134588Y880284D01*
X134580Y880331D01*
X134546Y880388D01*
X134521Y880448D01*
X134490Y880483D01*
X134465Y880524D01*
X134414Y880566D01*
X134370Y880614D01*
X134328Y880636D01*
X134291Y880665D01*
X134229Y880686D01*
X134170Y880717D01*
X134116Y880725D01*
X134079Y880737D01*
X134039Y880736D01*
X133985Y880744D01*
X130175Y880744D01*
X130110Y880733D01*
X130044Y880731D01*
X130001Y880713D01*
X129954Y880705D01*
X129897Y880671D01*
X129837Y880646D01*
X129802Y880615D01*
X129761Y880590D01*
X129720Y880539D01*
X129671Y880495D01*
X129649Y880453D01*
X129620Y880416D01*
X129599Y880354D01*
X129568Y880295D01*
X129560Y880241D01*
X129548Y880204D01*
X129548Y880201D01*
X129549Y880164D01*
X129541Y880110D01*
X129541Y877570D01*
X129552Y877505D01*
X129554Y877439D01*
X129572Y877396D01*
X129580Y877349D01*
X129614Y877292D01*
X129639Y877232D01*
X129670Y877197D01*
X129695Y877156D01*
X129746Y877115D01*
X129790Y877066D01*
X129832Y877044D01*
X129869Y877015D01*
X129931Y876994D01*
X129990Y876963D01*
X130044Y876955D01*
X130081Y876943D01*
X130121Y876944D01*
X130175Y876936D01*
X133985Y876936D01*
X134050Y876947D01*
G37*
G36*
X1160210Y876947D02*
X1160210Y876947D01*
X1160276Y876949D01*
X1160319Y876967D01*
X1160366Y876975D01*
X1160423Y877009D01*
X1160483Y877034D01*
X1160518Y877065D01*
X1160559Y877090D01*
X1160601Y877141D01*
X1160649Y877185D01*
X1160671Y877227D01*
X1160700Y877264D01*
X1160721Y877326D01*
X1160752Y877385D01*
X1160760Y877439D01*
X1160772Y877476D01*
X1160771Y877516D01*
X1160779Y877570D01*
X1160779Y880110D01*
X1160768Y880175D01*
X1160766Y880241D01*
X1160748Y880284D01*
X1160740Y880331D01*
X1160706Y880388D01*
X1160681Y880448D01*
X1160650Y880483D01*
X1160625Y880524D01*
X1160574Y880566D01*
X1160530Y880614D01*
X1160488Y880636D01*
X1160451Y880665D01*
X1160389Y880686D01*
X1160330Y880717D01*
X1160276Y880725D01*
X1160239Y880737D01*
X1160199Y880736D01*
X1160145Y880744D01*
X1156335Y880744D01*
X1156270Y880733D01*
X1156204Y880731D01*
X1156161Y880713D01*
X1156114Y880705D01*
X1156057Y880671D01*
X1155997Y880646D01*
X1155962Y880615D01*
X1155921Y880590D01*
X1155880Y880539D01*
X1155831Y880495D01*
X1155809Y880453D01*
X1155780Y880416D01*
X1155759Y880354D01*
X1155728Y880295D01*
X1155720Y880241D01*
X1155708Y880204D01*
X1155708Y880201D01*
X1155709Y880164D01*
X1155701Y880110D01*
X1155701Y877570D01*
X1155712Y877505D01*
X1155714Y877439D01*
X1155732Y877396D01*
X1155740Y877349D01*
X1155774Y877292D01*
X1155799Y877232D01*
X1155830Y877197D01*
X1155855Y877156D01*
X1155906Y877115D01*
X1155950Y877066D01*
X1155992Y877044D01*
X1156029Y877015D01*
X1156091Y876994D01*
X1156150Y876963D01*
X1156204Y876955D01*
X1156241Y876943D01*
X1156281Y876944D01*
X1156335Y876936D01*
X1160145Y876936D01*
X1160210Y876947D01*
G37*
G36*
X901130Y876947D02*
X901130Y876947D01*
X901196Y876949D01*
X901239Y876967D01*
X901286Y876975D01*
X901343Y877009D01*
X901403Y877034D01*
X901438Y877065D01*
X901479Y877090D01*
X901521Y877141D01*
X901569Y877185D01*
X901591Y877227D01*
X901620Y877264D01*
X901641Y877326D01*
X901672Y877385D01*
X901680Y877439D01*
X901692Y877476D01*
X901691Y877516D01*
X901699Y877570D01*
X901699Y880110D01*
X901688Y880175D01*
X901686Y880241D01*
X901668Y880284D01*
X901660Y880331D01*
X901626Y880388D01*
X901601Y880448D01*
X901570Y880483D01*
X901545Y880524D01*
X901494Y880566D01*
X901450Y880614D01*
X901408Y880636D01*
X901371Y880665D01*
X901309Y880686D01*
X901250Y880717D01*
X901196Y880725D01*
X901159Y880737D01*
X901119Y880736D01*
X901065Y880744D01*
X897255Y880744D01*
X897190Y880733D01*
X897124Y880731D01*
X897081Y880713D01*
X897034Y880705D01*
X896977Y880671D01*
X896917Y880646D01*
X896882Y880615D01*
X896841Y880590D01*
X896800Y880539D01*
X896751Y880495D01*
X896729Y880453D01*
X896700Y880416D01*
X896679Y880354D01*
X896648Y880295D01*
X896640Y880241D01*
X896628Y880204D01*
X896628Y880201D01*
X896629Y880164D01*
X896621Y880110D01*
X896621Y877570D01*
X896632Y877505D01*
X896634Y877439D01*
X896652Y877396D01*
X896660Y877349D01*
X896694Y877292D01*
X896719Y877232D01*
X896750Y877197D01*
X896775Y877156D01*
X896826Y877115D01*
X896870Y877066D01*
X896912Y877044D01*
X896949Y877015D01*
X897011Y876994D01*
X897070Y876963D01*
X897124Y876955D01*
X897161Y876943D01*
X897201Y876944D01*
X897255Y876936D01*
X901065Y876936D01*
X901130Y876947D01*
G37*
G36*
X642050Y876947D02*
X642050Y876947D01*
X642116Y876949D01*
X642159Y876967D01*
X642206Y876975D01*
X642263Y877009D01*
X642323Y877034D01*
X642358Y877065D01*
X642399Y877090D01*
X642441Y877141D01*
X642489Y877185D01*
X642511Y877227D01*
X642540Y877264D01*
X642561Y877326D01*
X642592Y877385D01*
X642600Y877439D01*
X642612Y877476D01*
X642611Y877516D01*
X642619Y877570D01*
X642619Y880110D01*
X642608Y880175D01*
X642606Y880241D01*
X642588Y880284D01*
X642580Y880331D01*
X642546Y880388D01*
X642521Y880448D01*
X642490Y880483D01*
X642465Y880524D01*
X642414Y880566D01*
X642370Y880614D01*
X642328Y880636D01*
X642291Y880665D01*
X642229Y880686D01*
X642170Y880717D01*
X642116Y880725D01*
X642079Y880737D01*
X642039Y880736D01*
X641985Y880744D01*
X638175Y880744D01*
X638110Y880733D01*
X638044Y880731D01*
X638001Y880713D01*
X637954Y880705D01*
X637897Y880671D01*
X637837Y880646D01*
X637802Y880615D01*
X637761Y880590D01*
X637720Y880539D01*
X637671Y880495D01*
X637649Y880453D01*
X637620Y880416D01*
X637599Y880354D01*
X637568Y880295D01*
X637560Y880241D01*
X637548Y880204D01*
X637548Y880201D01*
X637549Y880164D01*
X637541Y880110D01*
X637541Y877570D01*
X637552Y877505D01*
X637554Y877439D01*
X637572Y877396D01*
X637580Y877349D01*
X637614Y877292D01*
X637639Y877232D01*
X637670Y877197D01*
X637695Y877156D01*
X637746Y877115D01*
X637790Y877066D01*
X637832Y877044D01*
X637869Y877015D01*
X637931Y876994D01*
X637990Y876963D01*
X638044Y876955D01*
X638081Y876943D01*
X638121Y876944D01*
X638175Y876936D01*
X641985Y876936D01*
X642050Y876947D01*
G37*
G36*
X393130Y876947D02*
X393130Y876947D01*
X393196Y876949D01*
X393239Y876967D01*
X393286Y876975D01*
X393343Y877009D01*
X393403Y877034D01*
X393438Y877065D01*
X393479Y877090D01*
X393521Y877141D01*
X393569Y877185D01*
X393591Y877227D01*
X393620Y877264D01*
X393641Y877326D01*
X393672Y877385D01*
X393680Y877439D01*
X393692Y877476D01*
X393691Y877516D01*
X393699Y877570D01*
X393699Y880110D01*
X393688Y880175D01*
X393686Y880241D01*
X393668Y880284D01*
X393660Y880331D01*
X393626Y880388D01*
X393601Y880448D01*
X393570Y880483D01*
X393545Y880524D01*
X393494Y880566D01*
X393450Y880614D01*
X393408Y880636D01*
X393371Y880665D01*
X393309Y880686D01*
X393250Y880717D01*
X393196Y880725D01*
X393159Y880737D01*
X393119Y880736D01*
X393065Y880744D01*
X389255Y880744D01*
X389190Y880733D01*
X389124Y880731D01*
X389081Y880713D01*
X389034Y880705D01*
X388977Y880671D01*
X388917Y880646D01*
X388882Y880615D01*
X388841Y880590D01*
X388800Y880539D01*
X388751Y880495D01*
X388729Y880453D01*
X388700Y880416D01*
X388679Y880354D01*
X388648Y880295D01*
X388640Y880241D01*
X388628Y880204D01*
X388628Y880201D01*
X388629Y880164D01*
X388621Y880110D01*
X388621Y877570D01*
X388632Y877505D01*
X388634Y877439D01*
X388652Y877396D01*
X388660Y877349D01*
X388694Y877292D01*
X388719Y877232D01*
X388750Y877197D01*
X388775Y877156D01*
X388826Y877115D01*
X388870Y877066D01*
X388912Y877044D01*
X388949Y877015D01*
X389011Y876994D01*
X389070Y876963D01*
X389124Y876955D01*
X389161Y876943D01*
X389201Y876944D01*
X389255Y876936D01*
X393065Y876936D01*
X393130Y876947D01*
G37*
G36*
X123890Y876947D02*
X123890Y876947D01*
X123956Y876949D01*
X123999Y876967D01*
X124046Y876975D01*
X124103Y877009D01*
X124163Y877034D01*
X124198Y877065D01*
X124239Y877090D01*
X124281Y877141D01*
X124329Y877185D01*
X124351Y877227D01*
X124380Y877264D01*
X124401Y877326D01*
X124432Y877385D01*
X124440Y877439D01*
X124452Y877476D01*
X124451Y877516D01*
X124459Y877570D01*
X124459Y880110D01*
X124448Y880175D01*
X124446Y880241D01*
X124428Y880284D01*
X124420Y880331D01*
X124386Y880388D01*
X124361Y880448D01*
X124330Y880483D01*
X124305Y880524D01*
X124254Y880566D01*
X124210Y880614D01*
X124168Y880636D01*
X124131Y880665D01*
X124069Y880686D01*
X124010Y880717D01*
X123956Y880725D01*
X123919Y880737D01*
X123879Y880736D01*
X123825Y880744D01*
X120015Y880744D01*
X119950Y880733D01*
X119884Y880731D01*
X119841Y880713D01*
X119794Y880705D01*
X119737Y880671D01*
X119677Y880646D01*
X119642Y880615D01*
X119601Y880590D01*
X119560Y880539D01*
X119511Y880495D01*
X119489Y880453D01*
X119460Y880416D01*
X119439Y880354D01*
X119408Y880295D01*
X119400Y880241D01*
X119388Y880204D01*
X119388Y880201D01*
X119389Y880164D01*
X119381Y880110D01*
X119381Y877570D01*
X119392Y877505D01*
X119394Y877439D01*
X119412Y877396D01*
X119420Y877349D01*
X119454Y877292D01*
X119479Y877232D01*
X119510Y877197D01*
X119535Y877156D01*
X119586Y877115D01*
X119630Y877066D01*
X119672Y877044D01*
X119709Y877015D01*
X119771Y876994D01*
X119830Y876963D01*
X119884Y876955D01*
X119921Y876943D01*
X119961Y876944D01*
X120015Y876936D01*
X123825Y876936D01*
X123890Y876947D01*
G37*
G36*
X1170370Y876947D02*
X1170370Y876947D01*
X1170436Y876949D01*
X1170479Y876967D01*
X1170526Y876975D01*
X1170583Y877009D01*
X1170643Y877034D01*
X1170678Y877065D01*
X1170719Y877090D01*
X1170761Y877141D01*
X1170809Y877185D01*
X1170831Y877227D01*
X1170860Y877264D01*
X1170881Y877326D01*
X1170912Y877385D01*
X1170920Y877439D01*
X1170932Y877476D01*
X1170931Y877516D01*
X1170939Y877570D01*
X1170939Y880110D01*
X1170928Y880175D01*
X1170926Y880241D01*
X1170908Y880284D01*
X1170900Y880331D01*
X1170866Y880388D01*
X1170841Y880448D01*
X1170810Y880483D01*
X1170785Y880524D01*
X1170734Y880566D01*
X1170690Y880614D01*
X1170648Y880636D01*
X1170611Y880665D01*
X1170549Y880686D01*
X1170490Y880717D01*
X1170436Y880725D01*
X1170399Y880737D01*
X1170359Y880736D01*
X1170305Y880744D01*
X1166495Y880744D01*
X1166430Y880733D01*
X1166364Y880731D01*
X1166321Y880713D01*
X1166274Y880705D01*
X1166217Y880671D01*
X1166157Y880646D01*
X1166122Y880615D01*
X1166081Y880590D01*
X1166040Y880539D01*
X1165991Y880495D01*
X1165969Y880453D01*
X1165940Y880416D01*
X1165919Y880354D01*
X1165888Y880295D01*
X1165880Y880241D01*
X1165868Y880204D01*
X1165868Y880201D01*
X1165869Y880164D01*
X1165861Y880110D01*
X1165861Y877570D01*
X1165872Y877505D01*
X1165874Y877439D01*
X1165892Y877396D01*
X1165900Y877349D01*
X1165934Y877292D01*
X1165959Y877232D01*
X1165990Y877197D01*
X1166015Y877156D01*
X1166066Y877115D01*
X1166110Y877066D01*
X1166152Y877044D01*
X1166189Y877015D01*
X1166251Y876994D01*
X1166310Y876963D01*
X1166364Y876955D01*
X1166401Y876943D01*
X1166441Y876944D01*
X1166495Y876936D01*
X1170305Y876936D01*
X1170370Y876947D01*
G37*
G36*
X911290Y876947D02*
X911290Y876947D01*
X911356Y876949D01*
X911399Y876967D01*
X911446Y876975D01*
X911503Y877009D01*
X911563Y877034D01*
X911598Y877065D01*
X911639Y877090D01*
X911681Y877141D01*
X911729Y877185D01*
X911751Y877227D01*
X911780Y877264D01*
X911801Y877326D01*
X911832Y877385D01*
X911840Y877439D01*
X911852Y877476D01*
X911851Y877516D01*
X911859Y877570D01*
X911859Y880110D01*
X911848Y880175D01*
X911846Y880241D01*
X911828Y880284D01*
X911820Y880331D01*
X911786Y880388D01*
X911761Y880448D01*
X911730Y880483D01*
X911705Y880524D01*
X911654Y880566D01*
X911610Y880614D01*
X911568Y880636D01*
X911531Y880665D01*
X911469Y880686D01*
X911410Y880717D01*
X911356Y880725D01*
X911319Y880737D01*
X911279Y880736D01*
X911225Y880744D01*
X907415Y880744D01*
X907350Y880733D01*
X907284Y880731D01*
X907241Y880713D01*
X907194Y880705D01*
X907137Y880671D01*
X907077Y880646D01*
X907042Y880615D01*
X907001Y880590D01*
X906960Y880539D01*
X906911Y880495D01*
X906889Y880453D01*
X906860Y880416D01*
X906839Y880354D01*
X906808Y880295D01*
X906800Y880241D01*
X906788Y880204D01*
X906788Y880201D01*
X906789Y880164D01*
X906781Y880110D01*
X906781Y877570D01*
X906792Y877505D01*
X906794Y877439D01*
X906812Y877396D01*
X906820Y877349D01*
X906854Y877292D01*
X906879Y877232D01*
X906910Y877197D01*
X906935Y877156D01*
X906986Y877115D01*
X907030Y877066D01*
X907072Y877044D01*
X907109Y877015D01*
X907171Y876994D01*
X907230Y876963D01*
X907284Y876955D01*
X907321Y876943D01*
X907361Y876944D01*
X907415Y876936D01*
X911225Y876936D01*
X911290Y876947D01*
G37*
G36*
X652210Y876947D02*
X652210Y876947D01*
X652276Y876949D01*
X652319Y876967D01*
X652366Y876975D01*
X652423Y877009D01*
X652483Y877034D01*
X652518Y877065D01*
X652559Y877090D01*
X652601Y877141D01*
X652649Y877185D01*
X652671Y877227D01*
X652700Y877264D01*
X652721Y877326D01*
X652752Y877385D01*
X652760Y877439D01*
X652772Y877476D01*
X652771Y877516D01*
X652779Y877570D01*
X652779Y880110D01*
X652768Y880175D01*
X652766Y880241D01*
X652748Y880284D01*
X652740Y880331D01*
X652706Y880388D01*
X652681Y880448D01*
X652650Y880483D01*
X652625Y880524D01*
X652574Y880566D01*
X652530Y880614D01*
X652488Y880636D01*
X652451Y880665D01*
X652389Y880686D01*
X652330Y880717D01*
X652276Y880725D01*
X652239Y880737D01*
X652199Y880736D01*
X652145Y880744D01*
X648335Y880744D01*
X648270Y880733D01*
X648204Y880731D01*
X648161Y880713D01*
X648114Y880705D01*
X648057Y880671D01*
X647997Y880646D01*
X647962Y880615D01*
X647921Y880590D01*
X647880Y880539D01*
X647831Y880495D01*
X647809Y880453D01*
X647780Y880416D01*
X647759Y880354D01*
X647728Y880295D01*
X647720Y880241D01*
X647708Y880204D01*
X647708Y880201D01*
X647709Y880164D01*
X647701Y880110D01*
X647701Y877570D01*
X647712Y877505D01*
X647714Y877439D01*
X647732Y877396D01*
X647740Y877349D01*
X647774Y877292D01*
X647799Y877232D01*
X647830Y877197D01*
X647855Y877156D01*
X647906Y877115D01*
X647950Y877066D01*
X647992Y877044D01*
X648029Y877015D01*
X648091Y876994D01*
X648150Y876963D01*
X648204Y876955D01*
X648241Y876943D01*
X648281Y876944D01*
X648335Y876936D01*
X652145Y876936D01*
X652210Y876947D01*
G37*
G36*
X382970Y1136027D02*
X382970Y1136027D01*
X383036Y1136029D01*
X383079Y1136047D01*
X383126Y1136055D01*
X383183Y1136089D01*
X383243Y1136114D01*
X383278Y1136145D01*
X383319Y1136170D01*
X383361Y1136221D01*
X383409Y1136265D01*
X383431Y1136307D01*
X383460Y1136344D01*
X383481Y1136406D01*
X383512Y1136465D01*
X383520Y1136519D01*
X383532Y1136556D01*
X383531Y1136596D01*
X383539Y1136650D01*
X383539Y1139190D01*
X383528Y1139255D01*
X383526Y1139321D01*
X383508Y1139364D01*
X383500Y1139411D01*
X383466Y1139468D01*
X383441Y1139528D01*
X383410Y1139563D01*
X383385Y1139604D01*
X383334Y1139646D01*
X383290Y1139694D01*
X383248Y1139716D01*
X383211Y1139745D01*
X383149Y1139766D01*
X383090Y1139797D01*
X383036Y1139805D01*
X382999Y1139817D01*
X382959Y1139816D01*
X382905Y1139824D01*
X379095Y1139824D01*
X379030Y1139813D01*
X378964Y1139811D01*
X378921Y1139793D01*
X378874Y1139785D01*
X378817Y1139751D01*
X378757Y1139726D01*
X378722Y1139695D01*
X378681Y1139670D01*
X378640Y1139619D01*
X378591Y1139575D01*
X378569Y1139533D01*
X378540Y1139496D01*
X378519Y1139434D01*
X378488Y1139375D01*
X378480Y1139321D01*
X378468Y1139284D01*
X378468Y1139281D01*
X378469Y1139244D01*
X378461Y1139190D01*
X378461Y1136650D01*
X378472Y1136585D01*
X378474Y1136519D01*
X378492Y1136476D01*
X378500Y1136429D01*
X378534Y1136372D01*
X378559Y1136312D01*
X378590Y1136277D01*
X378615Y1136236D01*
X378666Y1136195D01*
X378710Y1136146D01*
X378752Y1136124D01*
X378789Y1136095D01*
X378851Y1136074D01*
X378910Y1136043D01*
X378964Y1136035D01*
X379001Y1136023D01*
X379041Y1136024D01*
X379095Y1136016D01*
X382905Y1136016D01*
X382970Y1136027D01*
G37*
G36*
X652210Y1136027D02*
X652210Y1136027D01*
X652276Y1136029D01*
X652319Y1136047D01*
X652366Y1136055D01*
X652423Y1136089D01*
X652483Y1136114D01*
X652518Y1136145D01*
X652559Y1136170D01*
X652601Y1136221D01*
X652649Y1136265D01*
X652671Y1136307D01*
X652700Y1136344D01*
X652721Y1136406D01*
X652752Y1136465D01*
X652760Y1136519D01*
X652772Y1136556D01*
X652771Y1136596D01*
X652779Y1136650D01*
X652779Y1139190D01*
X652768Y1139255D01*
X652766Y1139321D01*
X652748Y1139364D01*
X652740Y1139411D01*
X652706Y1139468D01*
X652681Y1139528D01*
X652650Y1139563D01*
X652625Y1139604D01*
X652574Y1139646D01*
X652530Y1139694D01*
X652488Y1139716D01*
X652451Y1139745D01*
X652389Y1139766D01*
X652330Y1139797D01*
X652276Y1139805D01*
X652239Y1139817D01*
X652199Y1139816D01*
X652145Y1139824D01*
X648335Y1139824D01*
X648270Y1139813D01*
X648204Y1139811D01*
X648161Y1139793D01*
X648114Y1139785D01*
X648057Y1139751D01*
X647997Y1139726D01*
X647962Y1139695D01*
X647921Y1139670D01*
X647880Y1139619D01*
X647831Y1139575D01*
X647809Y1139533D01*
X647780Y1139496D01*
X647759Y1139434D01*
X647728Y1139375D01*
X647720Y1139321D01*
X647708Y1139284D01*
X647708Y1139281D01*
X647709Y1139244D01*
X647701Y1139190D01*
X647701Y1136650D01*
X647712Y1136585D01*
X647714Y1136519D01*
X647732Y1136476D01*
X647740Y1136429D01*
X647774Y1136372D01*
X647799Y1136312D01*
X647830Y1136277D01*
X647855Y1136236D01*
X647906Y1136195D01*
X647950Y1136146D01*
X647992Y1136124D01*
X648029Y1136095D01*
X648091Y1136074D01*
X648150Y1136043D01*
X648204Y1136035D01*
X648241Y1136023D01*
X648281Y1136024D01*
X648335Y1136016D01*
X652145Y1136016D01*
X652210Y1136027D01*
G37*
G36*
X911290Y617867D02*
X911290Y617867D01*
X911356Y617869D01*
X911399Y617887D01*
X911446Y617895D01*
X911503Y617929D01*
X911563Y617954D01*
X911598Y617985D01*
X911639Y618010D01*
X911681Y618061D01*
X911729Y618105D01*
X911751Y618147D01*
X911780Y618184D01*
X911801Y618246D01*
X911832Y618305D01*
X911840Y618359D01*
X911852Y618396D01*
X911851Y618436D01*
X911859Y618490D01*
X911859Y621030D01*
X911848Y621095D01*
X911846Y621161D01*
X911828Y621204D01*
X911820Y621251D01*
X911786Y621308D01*
X911761Y621368D01*
X911730Y621403D01*
X911705Y621444D01*
X911654Y621486D01*
X911610Y621534D01*
X911568Y621556D01*
X911531Y621585D01*
X911469Y621606D01*
X911410Y621637D01*
X911356Y621645D01*
X911319Y621657D01*
X911279Y621656D01*
X911225Y621664D01*
X907415Y621664D01*
X907350Y621653D01*
X907284Y621651D01*
X907241Y621633D01*
X907194Y621625D01*
X907137Y621591D01*
X907077Y621566D01*
X907042Y621535D01*
X907001Y621510D01*
X906960Y621459D01*
X906911Y621415D01*
X906889Y621373D01*
X906860Y621336D01*
X906839Y621274D01*
X906808Y621215D01*
X906800Y621161D01*
X906788Y621124D01*
X906788Y621121D01*
X906789Y621084D01*
X906781Y621030D01*
X906781Y618490D01*
X906792Y618425D01*
X906794Y618359D01*
X906812Y618316D01*
X906820Y618269D01*
X906854Y618212D01*
X906879Y618152D01*
X906910Y618117D01*
X906935Y618076D01*
X906986Y618035D01*
X907030Y617986D01*
X907072Y617964D01*
X907109Y617935D01*
X907171Y617914D01*
X907230Y617883D01*
X907284Y617875D01*
X907321Y617863D01*
X907361Y617864D01*
X907415Y617856D01*
X911225Y617856D01*
X911290Y617867D01*
G37*
G36*
X911290Y1136027D02*
X911290Y1136027D01*
X911356Y1136029D01*
X911399Y1136047D01*
X911446Y1136055D01*
X911503Y1136089D01*
X911563Y1136114D01*
X911598Y1136145D01*
X911639Y1136170D01*
X911681Y1136221D01*
X911729Y1136265D01*
X911751Y1136307D01*
X911780Y1136344D01*
X911801Y1136406D01*
X911832Y1136465D01*
X911840Y1136519D01*
X911852Y1136556D01*
X911851Y1136596D01*
X911859Y1136650D01*
X911859Y1139190D01*
X911848Y1139255D01*
X911846Y1139321D01*
X911828Y1139364D01*
X911820Y1139411D01*
X911786Y1139468D01*
X911761Y1139528D01*
X911730Y1139563D01*
X911705Y1139604D01*
X911654Y1139646D01*
X911610Y1139694D01*
X911568Y1139716D01*
X911531Y1139745D01*
X911469Y1139766D01*
X911410Y1139797D01*
X911356Y1139805D01*
X911319Y1139817D01*
X911279Y1139816D01*
X911225Y1139824D01*
X907415Y1139824D01*
X907350Y1139813D01*
X907284Y1139811D01*
X907241Y1139793D01*
X907194Y1139785D01*
X907137Y1139751D01*
X907077Y1139726D01*
X907042Y1139695D01*
X907001Y1139670D01*
X906960Y1139619D01*
X906911Y1139575D01*
X906889Y1139533D01*
X906860Y1139496D01*
X906839Y1139434D01*
X906808Y1139375D01*
X906800Y1139321D01*
X906788Y1139284D01*
X906788Y1139281D01*
X906789Y1139244D01*
X906781Y1139190D01*
X906781Y1136650D01*
X906792Y1136585D01*
X906794Y1136519D01*
X906812Y1136476D01*
X906820Y1136429D01*
X906854Y1136372D01*
X906879Y1136312D01*
X906910Y1136277D01*
X906935Y1136236D01*
X906986Y1136195D01*
X907030Y1136146D01*
X907072Y1136124D01*
X907109Y1136095D01*
X907171Y1136074D01*
X907230Y1136043D01*
X907284Y1136035D01*
X907321Y1136023D01*
X907361Y1136024D01*
X907415Y1136016D01*
X911225Y1136016D01*
X911290Y1136027D01*
G37*
G36*
X901130Y1136027D02*
X901130Y1136027D01*
X901196Y1136029D01*
X901239Y1136047D01*
X901286Y1136055D01*
X901343Y1136089D01*
X901403Y1136114D01*
X901438Y1136145D01*
X901479Y1136170D01*
X901521Y1136221D01*
X901569Y1136265D01*
X901591Y1136307D01*
X901620Y1136344D01*
X901641Y1136406D01*
X901672Y1136465D01*
X901680Y1136519D01*
X901692Y1136556D01*
X901691Y1136596D01*
X901699Y1136650D01*
X901699Y1139190D01*
X901688Y1139255D01*
X901686Y1139321D01*
X901668Y1139364D01*
X901660Y1139411D01*
X901626Y1139468D01*
X901601Y1139528D01*
X901570Y1139563D01*
X901545Y1139604D01*
X901494Y1139646D01*
X901450Y1139694D01*
X901408Y1139716D01*
X901371Y1139745D01*
X901309Y1139766D01*
X901250Y1139797D01*
X901196Y1139805D01*
X901159Y1139817D01*
X901119Y1139816D01*
X901065Y1139824D01*
X897255Y1139824D01*
X897190Y1139813D01*
X897124Y1139811D01*
X897081Y1139793D01*
X897034Y1139785D01*
X896977Y1139751D01*
X896917Y1139726D01*
X896882Y1139695D01*
X896841Y1139670D01*
X896800Y1139619D01*
X896751Y1139575D01*
X896729Y1139533D01*
X896700Y1139496D01*
X896679Y1139434D01*
X896648Y1139375D01*
X896640Y1139321D01*
X896628Y1139284D01*
X896628Y1139281D01*
X896629Y1139244D01*
X896621Y1139190D01*
X896621Y1136650D01*
X896632Y1136585D01*
X896634Y1136519D01*
X896652Y1136476D01*
X896660Y1136429D01*
X896694Y1136372D01*
X896719Y1136312D01*
X896750Y1136277D01*
X896775Y1136236D01*
X896826Y1136195D01*
X896870Y1136146D01*
X896912Y1136124D01*
X896949Y1136095D01*
X897011Y1136074D01*
X897070Y1136043D01*
X897124Y1136035D01*
X897161Y1136023D01*
X897201Y1136024D01*
X897255Y1136016D01*
X901065Y1136016D01*
X901130Y1136027D01*
G37*
G36*
X393130Y1136027D02*
X393130Y1136027D01*
X393196Y1136029D01*
X393239Y1136047D01*
X393286Y1136055D01*
X393343Y1136089D01*
X393403Y1136114D01*
X393438Y1136145D01*
X393479Y1136170D01*
X393521Y1136221D01*
X393569Y1136265D01*
X393591Y1136307D01*
X393620Y1136344D01*
X393641Y1136406D01*
X393672Y1136465D01*
X393680Y1136519D01*
X393692Y1136556D01*
X393691Y1136596D01*
X393699Y1136650D01*
X393699Y1139190D01*
X393688Y1139255D01*
X393686Y1139321D01*
X393668Y1139364D01*
X393660Y1139411D01*
X393626Y1139468D01*
X393601Y1139528D01*
X393570Y1139563D01*
X393545Y1139604D01*
X393494Y1139646D01*
X393450Y1139694D01*
X393408Y1139716D01*
X393371Y1139745D01*
X393309Y1139766D01*
X393250Y1139797D01*
X393196Y1139805D01*
X393159Y1139817D01*
X393119Y1139816D01*
X393065Y1139824D01*
X389255Y1139824D01*
X389190Y1139813D01*
X389124Y1139811D01*
X389081Y1139793D01*
X389034Y1139785D01*
X388977Y1139751D01*
X388917Y1139726D01*
X388882Y1139695D01*
X388841Y1139670D01*
X388800Y1139619D01*
X388751Y1139575D01*
X388729Y1139533D01*
X388700Y1139496D01*
X388679Y1139434D01*
X388648Y1139375D01*
X388640Y1139321D01*
X388628Y1139284D01*
X388628Y1139281D01*
X388629Y1139244D01*
X388621Y1139190D01*
X388621Y1136650D01*
X388632Y1136585D01*
X388634Y1136519D01*
X388652Y1136476D01*
X388660Y1136429D01*
X388694Y1136372D01*
X388719Y1136312D01*
X388750Y1136277D01*
X388775Y1136236D01*
X388826Y1136195D01*
X388870Y1136146D01*
X388912Y1136124D01*
X388949Y1136095D01*
X389011Y1136074D01*
X389070Y1136043D01*
X389124Y1136035D01*
X389161Y1136023D01*
X389201Y1136024D01*
X389255Y1136016D01*
X393065Y1136016D01*
X393130Y1136027D01*
G37*
G36*
X1170370Y1136027D02*
X1170370Y1136027D01*
X1170436Y1136029D01*
X1170479Y1136047D01*
X1170526Y1136055D01*
X1170583Y1136089D01*
X1170643Y1136114D01*
X1170678Y1136145D01*
X1170719Y1136170D01*
X1170761Y1136221D01*
X1170809Y1136265D01*
X1170831Y1136307D01*
X1170860Y1136344D01*
X1170881Y1136406D01*
X1170912Y1136465D01*
X1170920Y1136519D01*
X1170932Y1136556D01*
X1170931Y1136596D01*
X1170939Y1136650D01*
X1170939Y1139190D01*
X1170928Y1139255D01*
X1170926Y1139321D01*
X1170908Y1139364D01*
X1170900Y1139411D01*
X1170866Y1139468D01*
X1170841Y1139528D01*
X1170810Y1139563D01*
X1170785Y1139604D01*
X1170734Y1139646D01*
X1170690Y1139694D01*
X1170648Y1139716D01*
X1170611Y1139745D01*
X1170549Y1139766D01*
X1170490Y1139797D01*
X1170436Y1139805D01*
X1170399Y1139817D01*
X1170359Y1139816D01*
X1170305Y1139824D01*
X1166495Y1139824D01*
X1166430Y1139813D01*
X1166364Y1139811D01*
X1166321Y1139793D01*
X1166274Y1139785D01*
X1166217Y1139751D01*
X1166157Y1139726D01*
X1166122Y1139695D01*
X1166081Y1139670D01*
X1166040Y1139619D01*
X1165991Y1139575D01*
X1165969Y1139533D01*
X1165940Y1139496D01*
X1165919Y1139434D01*
X1165888Y1139375D01*
X1165880Y1139321D01*
X1165868Y1139284D01*
X1165868Y1139281D01*
X1165869Y1139244D01*
X1165861Y1139190D01*
X1165861Y1136650D01*
X1165872Y1136585D01*
X1165874Y1136519D01*
X1165892Y1136476D01*
X1165900Y1136429D01*
X1165934Y1136372D01*
X1165959Y1136312D01*
X1165990Y1136277D01*
X1166015Y1136236D01*
X1166066Y1136195D01*
X1166110Y1136146D01*
X1166152Y1136124D01*
X1166189Y1136095D01*
X1166251Y1136074D01*
X1166310Y1136043D01*
X1166364Y1136035D01*
X1166401Y1136023D01*
X1166441Y1136024D01*
X1166495Y1136016D01*
X1170305Y1136016D01*
X1170370Y1136027D01*
G37*
G36*
X642050Y1136027D02*
X642050Y1136027D01*
X642116Y1136029D01*
X642159Y1136047D01*
X642206Y1136055D01*
X642263Y1136089D01*
X642323Y1136114D01*
X642358Y1136145D01*
X642399Y1136170D01*
X642441Y1136221D01*
X642489Y1136265D01*
X642511Y1136307D01*
X642540Y1136344D01*
X642561Y1136406D01*
X642592Y1136465D01*
X642600Y1136519D01*
X642612Y1136556D01*
X642611Y1136596D01*
X642619Y1136650D01*
X642619Y1139190D01*
X642608Y1139255D01*
X642606Y1139321D01*
X642588Y1139364D01*
X642580Y1139411D01*
X642546Y1139468D01*
X642521Y1139528D01*
X642490Y1139563D01*
X642465Y1139604D01*
X642414Y1139646D01*
X642370Y1139694D01*
X642328Y1139716D01*
X642291Y1139745D01*
X642229Y1139766D01*
X642170Y1139797D01*
X642116Y1139805D01*
X642079Y1139817D01*
X642039Y1139816D01*
X641985Y1139824D01*
X638175Y1139824D01*
X638110Y1139813D01*
X638044Y1139811D01*
X638001Y1139793D01*
X637954Y1139785D01*
X637897Y1139751D01*
X637837Y1139726D01*
X637802Y1139695D01*
X637761Y1139670D01*
X637720Y1139619D01*
X637671Y1139575D01*
X637649Y1139533D01*
X637620Y1139496D01*
X637599Y1139434D01*
X637568Y1139375D01*
X637560Y1139321D01*
X637548Y1139284D01*
X637548Y1139281D01*
X637549Y1139244D01*
X637541Y1139190D01*
X637541Y1136650D01*
X637552Y1136585D01*
X637554Y1136519D01*
X637572Y1136476D01*
X637580Y1136429D01*
X637614Y1136372D01*
X637639Y1136312D01*
X637670Y1136277D01*
X637695Y1136236D01*
X637746Y1136195D01*
X637790Y1136146D01*
X637832Y1136124D01*
X637869Y1136095D01*
X637931Y1136074D01*
X637990Y1136043D01*
X638044Y1136035D01*
X638081Y1136023D01*
X638121Y1136024D01*
X638175Y1136016D01*
X641985Y1136016D01*
X642050Y1136027D01*
G37*
G36*
X123890Y1136027D02*
X123890Y1136027D01*
X123956Y1136029D01*
X123999Y1136047D01*
X124046Y1136055D01*
X124103Y1136089D01*
X124163Y1136114D01*
X124198Y1136145D01*
X124239Y1136170D01*
X124281Y1136221D01*
X124329Y1136265D01*
X124351Y1136307D01*
X124380Y1136344D01*
X124401Y1136406D01*
X124432Y1136465D01*
X124440Y1136519D01*
X124452Y1136556D01*
X124451Y1136596D01*
X124459Y1136650D01*
X124459Y1139190D01*
X124448Y1139255D01*
X124446Y1139321D01*
X124428Y1139364D01*
X124420Y1139411D01*
X124386Y1139468D01*
X124361Y1139528D01*
X124330Y1139563D01*
X124305Y1139604D01*
X124254Y1139646D01*
X124210Y1139694D01*
X124168Y1139716D01*
X124131Y1139745D01*
X124069Y1139766D01*
X124010Y1139797D01*
X123956Y1139805D01*
X123919Y1139817D01*
X123879Y1139816D01*
X123825Y1139824D01*
X120015Y1139824D01*
X119950Y1139813D01*
X119884Y1139811D01*
X119841Y1139793D01*
X119794Y1139785D01*
X119737Y1139751D01*
X119677Y1139726D01*
X119642Y1139695D01*
X119601Y1139670D01*
X119560Y1139619D01*
X119511Y1139575D01*
X119489Y1139533D01*
X119460Y1139496D01*
X119439Y1139434D01*
X119408Y1139375D01*
X119400Y1139321D01*
X119388Y1139284D01*
X119388Y1139281D01*
X119389Y1139244D01*
X119381Y1139190D01*
X119381Y1136650D01*
X119392Y1136585D01*
X119394Y1136519D01*
X119412Y1136476D01*
X119420Y1136429D01*
X119454Y1136372D01*
X119479Y1136312D01*
X119510Y1136277D01*
X119535Y1136236D01*
X119586Y1136195D01*
X119630Y1136146D01*
X119672Y1136124D01*
X119709Y1136095D01*
X119771Y1136074D01*
X119830Y1136043D01*
X119884Y1136035D01*
X119921Y1136023D01*
X119961Y1136024D01*
X120015Y1136016D01*
X123825Y1136016D01*
X123890Y1136027D01*
G37*
G36*
X1160210Y1136027D02*
X1160210Y1136027D01*
X1160276Y1136029D01*
X1160319Y1136047D01*
X1160366Y1136055D01*
X1160423Y1136089D01*
X1160483Y1136114D01*
X1160518Y1136145D01*
X1160559Y1136170D01*
X1160601Y1136221D01*
X1160649Y1136265D01*
X1160671Y1136307D01*
X1160700Y1136344D01*
X1160721Y1136406D01*
X1160752Y1136465D01*
X1160760Y1136519D01*
X1160772Y1136556D01*
X1160771Y1136596D01*
X1160779Y1136650D01*
X1160779Y1139190D01*
X1160768Y1139255D01*
X1160766Y1139321D01*
X1160748Y1139364D01*
X1160740Y1139411D01*
X1160706Y1139468D01*
X1160681Y1139528D01*
X1160650Y1139563D01*
X1160625Y1139604D01*
X1160574Y1139646D01*
X1160530Y1139694D01*
X1160488Y1139716D01*
X1160451Y1139745D01*
X1160389Y1139766D01*
X1160330Y1139797D01*
X1160276Y1139805D01*
X1160239Y1139817D01*
X1160199Y1139816D01*
X1160145Y1139824D01*
X1156335Y1139824D01*
X1156270Y1139813D01*
X1156204Y1139811D01*
X1156161Y1139793D01*
X1156114Y1139785D01*
X1156057Y1139751D01*
X1155997Y1139726D01*
X1155962Y1139695D01*
X1155921Y1139670D01*
X1155880Y1139619D01*
X1155831Y1139575D01*
X1155809Y1139533D01*
X1155780Y1139496D01*
X1155759Y1139434D01*
X1155728Y1139375D01*
X1155720Y1139321D01*
X1155708Y1139284D01*
X1155708Y1139281D01*
X1155709Y1139244D01*
X1155701Y1139190D01*
X1155701Y1136650D01*
X1155712Y1136585D01*
X1155714Y1136519D01*
X1155732Y1136476D01*
X1155740Y1136429D01*
X1155774Y1136372D01*
X1155799Y1136312D01*
X1155830Y1136277D01*
X1155855Y1136236D01*
X1155906Y1136195D01*
X1155950Y1136146D01*
X1155992Y1136124D01*
X1156029Y1136095D01*
X1156091Y1136074D01*
X1156150Y1136043D01*
X1156204Y1136035D01*
X1156241Y1136023D01*
X1156281Y1136024D01*
X1156335Y1136016D01*
X1160145Y1136016D01*
X1160210Y1136027D01*
G37*
G36*
X393130Y358787D02*
X393130Y358787D01*
X393196Y358789D01*
X393239Y358807D01*
X393286Y358815D01*
X393343Y358849D01*
X393403Y358874D01*
X393438Y358905D01*
X393479Y358930D01*
X393521Y358981D01*
X393569Y359025D01*
X393591Y359067D01*
X393620Y359104D01*
X393641Y359166D01*
X393672Y359225D01*
X393680Y359279D01*
X393692Y359316D01*
X393691Y359356D01*
X393699Y359410D01*
X393699Y361950D01*
X393688Y362015D01*
X393686Y362081D01*
X393668Y362124D01*
X393660Y362171D01*
X393626Y362228D01*
X393601Y362288D01*
X393570Y362323D01*
X393545Y362364D01*
X393494Y362406D01*
X393450Y362454D01*
X393408Y362476D01*
X393371Y362505D01*
X393309Y362526D01*
X393250Y362557D01*
X393196Y362565D01*
X393159Y362577D01*
X393119Y362576D01*
X393065Y362584D01*
X389255Y362584D01*
X389190Y362573D01*
X389124Y362571D01*
X389081Y362553D01*
X389034Y362545D01*
X388977Y362511D01*
X388917Y362486D01*
X388882Y362455D01*
X388841Y362430D01*
X388800Y362379D01*
X388751Y362335D01*
X388729Y362293D01*
X388700Y362256D01*
X388679Y362194D01*
X388648Y362135D01*
X388640Y362081D01*
X388628Y362044D01*
X388628Y362041D01*
X388629Y362004D01*
X388621Y361950D01*
X388621Y359410D01*
X388632Y359345D01*
X388634Y359279D01*
X388652Y359236D01*
X388660Y359189D01*
X388694Y359132D01*
X388719Y359072D01*
X388750Y359037D01*
X388775Y358996D01*
X388826Y358955D01*
X388870Y358906D01*
X388912Y358884D01*
X388949Y358855D01*
X389011Y358834D01*
X389070Y358803D01*
X389124Y358795D01*
X389161Y358783D01*
X389201Y358784D01*
X389255Y358776D01*
X393065Y358776D01*
X393130Y358787D01*
G37*
G36*
X1160210Y358787D02*
X1160210Y358787D01*
X1160276Y358789D01*
X1160319Y358807D01*
X1160366Y358815D01*
X1160423Y358849D01*
X1160483Y358874D01*
X1160518Y358905D01*
X1160559Y358930D01*
X1160601Y358981D01*
X1160649Y359025D01*
X1160671Y359067D01*
X1160700Y359104D01*
X1160721Y359166D01*
X1160752Y359225D01*
X1160760Y359279D01*
X1160772Y359316D01*
X1160771Y359356D01*
X1160779Y359410D01*
X1160779Y361950D01*
X1160768Y362015D01*
X1160766Y362081D01*
X1160748Y362124D01*
X1160740Y362171D01*
X1160706Y362228D01*
X1160681Y362288D01*
X1160650Y362323D01*
X1160625Y362364D01*
X1160574Y362406D01*
X1160530Y362454D01*
X1160488Y362476D01*
X1160451Y362505D01*
X1160389Y362526D01*
X1160330Y362557D01*
X1160276Y362565D01*
X1160239Y362577D01*
X1160199Y362576D01*
X1160145Y362584D01*
X1156335Y362584D01*
X1156270Y362573D01*
X1156204Y362571D01*
X1156161Y362553D01*
X1156114Y362545D01*
X1156057Y362511D01*
X1155997Y362486D01*
X1155962Y362455D01*
X1155921Y362430D01*
X1155880Y362379D01*
X1155831Y362335D01*
X1155809Y362293D01*
X1155780Y362256D01*
X1155759Y362194D01*
X1155728Y362135D01*
X1155720Y362081D01*
X1155708Y362044D01*
X1155708Y362041D01*
X1155709Y362004D01*
X1155701Y361950D01*
X1155701Y359410D01*
X1155712Y359345D01*
X1155714Y359279D01*
X1155732Y359236D01*
X1155740Y359189D01*
X1155774Y359132D01*
X1155799Y359072D01*
X1155830Y359037D01*
X1155855Y358996D01*
X1155906Y358955D01*
X1155950Y358906D01*
X1155992Y358884D01*
X1156029Y358855D01*
X1156091Y358834D01*
X1156150Y358803D01*
X1156204Y358795D01*
X1156241Y358783D01*
X1156281Y358784D01*
X1156335Y358776D01*
X1160145Y358776D01*
X1160210Y358787D01*
G37*
G36*
X652210Y358787D02*
X652210Y358787D01*
X652276Y358789D01*
X652319Y358807D01*
X652366Y358815D01*
X652423Y358849D01*
X652483Y358874D01*
X652518Y358905D01*
X652559Y358930D01*
X652601Y358981D01*
X652649Y359025D01*
X652671Y359067D01*
X652700Y359104D01*
X652721Y359166D01*
X652752Y359225D01*
X652760Y359279D01*
X652772Y359316D01*
X652771Y359356D01*
X652779Y359410D01*
X652779Y361950D01*
X652768Y362015D01*
X652766Y362081D01*
X652748Y362124D01*
X652740Y362171D01*
X652706Y362228D01*
X652681Y362288D01*
X652650Y362323D01*
X652625Y362364D01*
X652574Y362406D01*
X652530Y362454D01*
X652488Y362476D01*
X652451Y362505D01*
X652389Y362526D01*
X652330Y362557D01*
X652276Y362565D01*
X652239Y362577D01*
X652199Y362576D01*
X652145Y362584D01*
X648335Y362584D01*
X648270Y362573D01*
X648204Y362571D01*
X648161Y362553D01*
X648114Y362545D01*
X648057Y362511D01*
X647997Y362486D01*
X647962Y362455D01*
X647921Y362430D01*
X647880Y362379D01*
X647831Y362335D01*
X647809Y362293D01*
X647780Y362256D01*
X647759Y362194D01*
X647728Y362135D01*
X647720Y362081D01*
X647708Y362044D01*
X647708Y362041D01*
X647709Y362004D01*
X647701Y361950D01*
X647701Y359410D01*
X647712Y359345D01*
X647714Y359279D01*
X647732Y359236D01*
X647740Y359189D01*
X647774Y359132D01*
X647799Y359072D01*
X647830Y359037D01*
X647855Y358996D01*
X647906Y358955D01*
X647950Y358906D01*
X647992Y358884D01*
X648029Y358855D01*
X648091Y358834D01*
X648150Y358803D01*
X648204Y358795D01*
X648241Y358783D01*
X648281Y358784D01*
X648335Y358776D01*
X652145Y358776D01*
X652210Y358787D01*
G37*
G36*
X901130Y358787D02*
X901130Y358787D01*
X901196Y358789D01*
X901239Y358807D01*
X901286Y358815D01*
X901343Y358849D01*
X901403Y358874D01*
X901438Y358905D01*
X901479Y358930D01*
X901521Y358981D01*
X901569Y359025D01*
X901591Y359067D01*
X901620Y359104D01*
X901641Y359166D01*
X901672Y359225D01*
X901680Y359279D01*
X901692Y359316D01*
X901691Y359356D01*
X901699Y359410D01*
X901699Y361950D01*
X901688Y362015D01*
X901686Y362081D01*
X901668Y362124D01*
X901660Y362171D01*
X901626Y362228D01*
X901601Y362288D01*
X901570Y362323D01*
X901545Y362364D01*
X901494Y362406D01*
X901450Y362454D01*
X901408Y362476D01*
X901371Y362505D01*
X901309Y362526D01*
X901250Y362557D01*
X901196Y362565D01*
X901159Y362577D01*
X901119Y362576D01*
X901065Y362584D01*
X897255Y362584D01*
X897190Y362573D01*
X897124Y362571D01*
X897081Y362553D01*
X897034Y362545D01*
X896977Y362511D01*
X896917Y362486D01*
X896882Y362455D01*
X896841Y362430D01*
X896800Y362379D01*
X896751Y362335D01*
X896729Y362293D01*
X896700Y362256D01*
X896679Y362194D01*
X896648Y362135D01*
X896640Y362081D01*
X896628Y362044D01*
X896628Y362041D01*
X896629Y362004D01*
X896621Y361950D01*
X896621Y359410D01*
X896632Y359345D01*
X896634Y359279D01*
X896652Y359236D01*
X896660Y359189D01*
X896694Y359132D01*
X896719Y359072D01*
X896750Y359037D01*
X896775Y358996D01*
X896826Y358955D01*
X896870Y358906D01*
X896912Y358884D01*
X896949Y358855D01*
X897011Y358834D01*
X897070Y358803D01*
X897124Y358795D01*
X897161Y358783D01*
X897201Y358784D01*
X897255Y358776D01*
X901065Y358776D01*
X901130Y358787D01*
G37*
G36*
X911290Y358787D02*
X911290Y358787D01*
X911356Y358789D01*
X911399Y358807D01*
X911446Y358815D01*
X911503Y358849D01*
X911563Y358874D01*
X911598Y358905D01*
X911639Y358930D01*
X911681Y358981D01*
X911729Y359025D01*
X911751Y359067D01*
X911780Y359104D01*
X911801Y359166D01*
X911832Y359225D01*
X911840Y359279D01*
X911852Y359316D01*
X911851Y359356D01*
X911859Y359410D01*
X911859Y361950D01*
X911848Y362015D01*
X911846Y362081D01*
X911828Y362124D01*
X911820Y362171D01*
X911786Y362228D01*
X911761Y362288D01*
X911730Y362323D01*
X911705Y362364D01*
X911654Y362406D01*
X911610Y362454D01*
X911568Y362476D01*
X911531Y362505D01*
X911469Y362526D01*
X911410Y362557D01*
X911356Y362565D01*
X911319Y362577D01*
X911279Y362576D01*
X911225Y362584D01*
X907415Y362584D01*
X907350Y362573D01*
X907284Y362571D01*
X907241Y362553D01*
X907194Y362545D01*
X907137Y362511D01*
X907077Y362486D01*
X907042Y362455D01*
X907001Y362430D01*
X906960Y362379D01*
X906911Y362335D01*
X906889Y362293D01*
X906860Y362256D01*
X906839Y362194D01*
X906808Y362135D01*
X906800Y362081D01*
X906788Y362044D01*
X906788Y362041D01*
X906789Y362004D01*
X906781Y361950D01*
X906781Y359410D01*
X906792Y359345D01*
X906794Y359279D01*
X906812Y359236D01*
X906820Y359189D01*
X906854Y359132D01*
X906879Y359072D01*
X906910Y359037D01*
X906935Y358996D01*
X906986Y358955D01*
X907030Y358906D01*
X907072Y358884D01*
X907109Y358855D01*
X907171Y358834D01*
X907230Y358803D01*
X907284Y358795D01*
X907321Y358783D01*
X907361Y358784D01*
X907415Y358776D01*
X911225Y358776D01*
X911290Y358787D01*
G37*
G36*
X134050Y1136027D02*
X134050Y1136027D01*
X134116Y1136029D01*
X134159Y1136047D01*
X134206Y1136055D01*
X134263Y1136089D01*
X134323Y1136114D01*
X134358Y1136145D01*
X134399Y1136170D01*
X134441Y1136221D01*
X134489Y1136265D01*
X134511Y1136307D01*
X134540Y1136344D01*
X134561Y1136406D01*
X134592Y1136465D01*
X134600Y1136519D01*
X134612Y1136556D01*
X134611Y1136596D01*
X134619Y1136650D01*
X134619Y1139190D01*
X134608Y1139255D01*
X134606Y1139321D01*
X134588Y1139364D01*
X134580Y1139411D01*
X134546Y1139468D01*
X134521Y1139528D01*
X134490Y1139563D01*
X134465Y1139604D01*
X134414Y1139646D01*
X134370Y1139694D01*
X134328Y1139716D01*
X134291Y1139745D01*
X134229Y1139766D01*
X134170Y1139797D01*
X134116Y1139805D01*
X134079Y1139817D01*
X134039Y1139816D01*
X133985Y1139824D01*
X130175Y1139824D01*
X130110Y1139813D01*
X130044Y1139811D01*
X130001Y1139793D01*
X129954Y1139785D01*
X129897Y1139751D01*
X129837Y1139726D01*
X129802Y1139695D01*
X129761Y1139670D01*
X129720Y1139619D01*
X129671Y1139575D01*
X129649Y1139533D01*
X129620Y1139496D01*
X129599Y1139434D01*
X129568Y1139375D01*
X129560Y1139321D01*
X129548Y1139284D01*
X129548Y1139281D01*
X129549Y1139244D01*
X129541Y1139190D01*
X129541Y1136650D01*
X129552Y1136585D01*
X129554Y1136519D01*
X129572Y1136476D01*
X129580Y1136429D01*
X129614Y1136372D01*
X129639Y1136312D01*
X129670Y1136277D01*
X129695Y1136236D01*
X129746Y1136195D01*
X129790Y1136146D01*
X129832Y1136124D01*
X129869Y1136095D01*
X129931Y1136074D01*
X129990Y1136043D01*
X130044Y1136035D01*
X130081Y1136023D01*
X130121Y1136024D01*
X130175Y1136016D01*
X133985Y1136016D01*
X134050Y1136027D01*
G37*
G36*
X382970Y358787D02*
X382970Y358787D01*
X383036Y358789D01*
X383079Y358807D01*
X383126Y358815D01*
X383183Y358849D01*
X383243Y358874D01*
X383278Y358905D01*
X383319Y358930D01*
X383361Y358981D01*
X383409Y359025D01*
X383431Y359067D01*
X383460Y359104D01*
X383481Y359166D01*
X383512Y359225D01*
X383520Y359279D01*
X383532Y359316D01*
X383531Y359356D01*
X383539Y359410D01*
X383539Y361950D01*
X383528Y362015D01*
X383526Y362081D01*
X383508Y362124D01*
X383500Y362171D01*
X383466Y362228D01*
X383441Y362288D01*
X383410Y362323D01*
X383385Y362364D01*
X383334Y362406D01*
X383290Y362454D01*
X383248Y362476D01*
X383211Y362505D01*
X383149Y362526D01*
X383090Y362557D01*
X383036Y362565D01*
X382999Y362577D01*
X382959Y362576D01*
X382905Y362584D01*
X379095Y362584D01*
X379030Y362573D01*
X378964Y362571D01*
X378921Y362553D01*
X378874Y362545D01*
X378817Y362511D01*
X378757Y362486D01*
X378722Y362455D01*
X378681Y362430D01*
X378640Y362379D01*
X378591Y362335D01*
X378569Y362293D01*
X378540Y362256D01*
X378519Y362194D01*
X378488Y362135D01*
X378480Y362081D01*
X378468Y362044D01*
X378468Y362041D01*
X378469Y362004D01*
X378461Y361950D01*
X378461Y359410D01*
X378472Y359345D01*
X378474Y359279D01*
X378492Y359236D01*
X378500Y359189D01*
X378534Y359132D01*
X378559Y359072D01*
X378590Y359037D01*
X378615Y358996D01*
X378666Y358955D01*
X378710Y358906D01*
X378752Y358884D01*
X378789Y358855D01*
X378851Y358834D01*
X378910Y358803D01*
X378964Y358795D01*
X379001Y358783D01*
X379041Y358784D01*
X379095Y358776D01*
X382905Y358776D01*
X382970Y358787D01*
G37*
G36*
X134050Y358787D02*
X134050Y358787D01*
X134116Y358789D01*
X134159Y358807D01*
X134206Y358815D01*
X134263Y358849D01*
X134323Y358874D01*
X134358Y358905D01*
X134399Y358930D01*
X134441Y358981D01*
X134489Y359025D01*
X134511Y359067D01*
X134540Y359104D01*
X134561Y359166D01*
X134592Y359225D01*
X134600Y359279D01*
X134612Y359316D01*
X134611Y359356D01*
X134619Y359410D01*
X134619Y361950D01*
X134608Y362015D01*
X134606Y362081D01*
X134588Y362124D01*
X134580Y362171D01*
X134546Y362228D01*
X134521Y362288D01*
X134490Y362323D01*
X134465Y362364D01*
X134414Y362406D01*
X134370Y362454D01*
X134328Y362476D01*
X134291Y362505D01*
X134229Y362526D01*
X134170Y362557D01*
X134116Y362565D01*
X134079Y362577D01*
X134039Y362576D01*
X133985Y362584D01*
X130175Y362584D01*
X130110Y362573D01*
X130044Y362571D01*
X130001Y362553D01*
X129954Y362545D01*
X129897Y362511D01*
X129837Y362486D01*
X129802Y362455D01*
X129761Y362430D01*
X129720Y362379D01*
X129671Y362335D01*
X129649Y362293D01*
X129620Y362256D01*
X129599Y362194D01*
X129568Y362135D01*
X129560Y362081D01*
X129548Y362044D01*
X129548Y362041D01*
X129549Y362004D01*
X129541Y361950D01*
X129541Y359410D01*
X129552Y359345D01*
X129554Y359279D01*
X129572Y359236D01*
X129580Y359189D01*
X129614Y359132D01*
X129639Y359072D01*
X129670Y359037D01*
X129695Y358996D01*
X129746Y358955D01*
X129790Y358906D01*
X129832Y358884D01*
X129869Y358855D01*
X129931Y358834D01*
X129990Y358803D01*
X130044Y358795D01*
X130081Y358783D01*
X130121Y358784D01*
X130175Y358776D01*
X133985Y358776D01*
X134050Y358787D01*
G37*
G36*
X123890Y358787D02*
X123890Y358787D01*
X123956Y358789D01*
X123999Y358807D01*
X124046Y358815D01*
X124103Y358849D01*
X124163Y358874D01*
X124198Y358905D01*
X124239Y358930D01*
X124281Y358981D01*
X124329Y359025D01*
X124351Y359067D01*
X124380Y359104D01*
X124401Y359166D01*
X124432Y359225D01*
X124440Y359279D01*
X124452Y359316D01*
X124451Y359356D01*
X124459Y359410D01*
X124459Y361950D01*
X124448Y362015D01*
X124446Y362081D01*
X124428Y362124D01*
X124420Y362171D01*
X124386Y362228D01*
X124361Y362288D01*
X124330Y362323D01*
X124305Y362364D01*
X124254Y362406D01*
X124210Y362454D01*
X124168Y362476D01*
X124131Y362505D01*
X124069Y362526D01*
X124010Y362557D01*
X123956Y362565D01*
X123919Y362577D01*
X123879Y362576D01*
X123825Y362584D01*
X120015Y362584D01*
X119950Y362573D01*
X119884Y362571D01*
X119841Y362553D01*
X119794Y362545D01*
X119737Y362511D01*
X119677Y362486D01*
X119642Y362455D01*
X119601Y362430D01*
X119560Y362379D01*
X119511Y362335D01*
X119489Y362293D01*
X119460Y362256D01*
X119439Y362194D01*
X119408Y362135D01*
X119400Y362081D01*
X119388Y362044D01*
X119388Y362041D01*
X119389Y362004D01*
X119381Y361950D01*
X119381Y359410D01*
X119392Y359345D01*
X119394Y359279D01*
X119412Y359236D01*
X119420Y359189D01*
X119454Y359132D01*
X119479Y359072D01*
X119510Y359037D01*
X119535Y358996D01*
X119586Y358955D01*
X119630Y358906D01*
X119672Y358884D01*
X119709Y358855D01*
X119771Y358834D01*
X119830Y358803D01*
X119884Y358795D01*
X119921Y358783D01*
X119961Y358784D01*
X120015Y358776D01*
X123825Y358776D01*
X123890Y358787D01*
G37*
G36*
X1170370Y358787D02*
X1170370Y358787D01*
X1170436Y358789D01*
X1170479Y358807D01*
X1170526Y358815D01*
X1170583Y358849D01*
X1170643Y358874D01*
X1170678Y358905D01*
X1170719Y358930D01*
X1170761Y358981D01*
X1170809Y359025D01*
X1170831Y359067D01*
X1170860Y359104D01*
X1170881Y359166D01*
X1170912Y359225D01*
X1170920Y359279D01*
X1170932Y359316D01*
X1170931Y359356D01*
X1170939Y359410D01*
X1170939Y361950D01*
X1170928Y362015D01*
X1170926Y362081D01*
X1170908Y362124D01*
X1170900Y362171D01*
X1170866Y362228D01*
X1170841Y362288D01*
X1170810Y362323D01*
X1170785Y362364D01*
X1170734Y362406D01*
X1170690Y362454D01*
X1170648Y362476D01*
X1170611Y362505D01*
X1170549Y362526D01*
X1170490Y362557D01*
X1170436Y362565D01*
X1170399Y362577D01*
X1170359Y362576D01*
X1170305Y362584D01*
X1166495Y362584D01*
X1166430Y362573D01*
X1166364Y362571D01*
X1166321Y362553D01*
X1166274Y362545D01*
X1166217Y362511D01*
X1166157Y362486D01*
X1166122Y362455D01*
X1166081Y362430D01*
X1166040Y362379D01*
X1165991Y362335D01*
X1165969Y362293D01*
X1165940Y362256D01*
X1165919Y362194D01*
X1165888Y362135D01*
X1165880Y362081D01*
X1165868Y362044D01*
X1165868Y362041D01*
X1165869Y362004D01*
X1165861Y361950D01*
X1165861Y359410D01*
X1165872Y359345D01*
X1165874Y359279D01*
X1165892Y359236D01*
X1165900Y359189D01*
X1165934Y359132D01*
X1165959Y359072D01*
X1165990Y359037D01*
X1166015Y358996D01*
X1166066Y358955D01*
X1166110Y358906D01*
X1166152Y358884D01*
X1166189Y358855D01*
X1166251Y358834D01*
X1166310Y358803D01*
X1166364Y358795D01*
X1166401Y358783D01*
X1166441Y358784D01*
X1166495Y358776D01*
X1170305Y358776D01*
X1170370Y358787D01*
G37*
G36*
X123890Y617867D02*
X123890Y617867D01*
X123956Y617869D01*
X123999Y617887D01*
X124046Y617895D01*
X124103Y617929D01*
X124163Y617954D01*
X124198Y617985D01*
X124239Y618010D01*
X124281Y618061D01*
X124329Y618105D01*
X124351Y618147D01*
X124380Y618184D01*
X124401Y618246D01*
X124432Y618305D01*
X124440Y618359D01*
X124452Y618396D01*
X124451Y618436D01*
X124459Y618490D01*
X124459Y621030D01*
X124448Y621095D01*
X124446Y621161D01*
X124428Y621204D01*
X124420Y621251D01*
X124386Y621308D01*
X124361Y621368D01*
X124330Y621403D01*
X124305Y621444D01*
X124254Y621486D01*
X124210Y621534D01*
X124168Y621556D01*
X124131Y621585D01*
X124069Y621606D01*
X124010Y621637D01*
X123956Y621645D01*
X123919Y621657D01*
X123879Y621656D01*
X123825Y621664D01*
X120015Y621664D01*
X119950Y621653D01*
X119884Y621651D01*
X119841Y621633D01*
X119794Y621625D01*
X119737Y621591D01*
X119677Y621566D01*
X119642Y621535D01*
X119601Y621510D01*
X119560Y621459D01*
X119511Y621415D01*
X119489Y621373D01*
X119460Y621336D01*
X119439Y621274D01*
X119408Y621215D01*
X119400Y621161D01*
X119388Y621124D01*
X119388Y621121D01*
X119389Y621084D01*
X119381Y621030D01*
X119381Y618490D01*
X119392Y618425D01*
X119394Y618359D01*
X119412Y618316D01*
X119420Y618269D01*
X119454Y618212D01*
X119479Y618152D01*
X119510Y618117D01*
X119535Y618076D01*
X119586Y618035D01*
X119630Y617986D01*
X119672Y617964D01*
X119709Y617935D01*
X119771Y617914D01*
X119830Y617883D01*
X119884Y617875D01*
X119921Y617863D01*
X119961Y617864D01*
X120015Y617856D01*
X123825Y617856D01*
X123890Y617867D01*
G37*
G36*
X134050Y617867D02*
X134050Y617867D01*
X134116Y617869D01*
X134159Y617887D01*
X134206Y617895D01*
X134263Y617929D01*
X134323Y617954D01*
X134358Y617985D01*
X134399Y618010D01*
X134441Y618061D01*
X134489Y618105D01*
X134511Y618147D01*
X134540Y618184D01*
X134561Y618246D01*
X134592Y618305D01*
X134600Y618359D01*
X134612Y618396D01*
X134611Y618436D01*
X134619Y618490D01*
X134619Y621030D01*
X134608Y621095D01*
X134606Y621161D01*
X134588Y621204D01*
X134580Y621251D01*
X134546Y621308D01*
X134521Y621368D01*
X134490Y621403D01*
X134465Y621444D01*
X134414Y621486D01*
X134370Y621534D01*
X134328Y621556D01*
X134291Y621585D01*
X134229Y621606D01*
X134170Y621637D01*
X134116Y621645D01*
X134079Y621657D01*
X134039Y621656D01*
X133985Y621664D01*
X130175Y621664D01*
X130110Y621653D01*
X130044Y621651D01*
X130001Y621633D01*
X129954Y621625D01*
X129897Y621591D01*
X129837Y621566D01*
X129802Y621535D01*
X129761Y621510D01*
X129720Y621459D01*
X129671Y621415D01*
X129649Y621373D01*
X129620Y621336D01*
X129599Y621274D01*
X129568Y621215D01*
X129560Y621161D01*
X129548Y621124D01*
X129548Y621121D01*
X129549Y621084D01*
X129541Y621030D01*
X129541Y618490D01*
X129552Y618425D01*
X129554Y618359D01*
X129572Y618316D01*
X129580Y618269D01*
X129614Y618212D01*
X129639Y618152D01*
X129670Y618117D01*
X129695Y618076D01*
X129746Y618035D01*
X129790Y617986D01*
X129832Y617964D01*
X129869Y617935D01*
X129931Y617914D01*
X129990Y617883D01*
X130044Y617875D01*
X130081Y617863D01*
X130121Y617864D01*
X130175Y617856D01*
X133985Y617856D01*
X134050Y617867D01*
G37*
G36*
X652210Y617867D02*
X652210Y617867D01*
X652276Y617869D01*
X652319Y617887D01*
X652366Y617895D01*
X652423Y617929D01*
X652483Y617954D01*
X652518Y617985D01*
X652559Y618010D01*
X652601Y618061D01*
X652649Y618105D01*
X652671Y618147D01*
X652700Y618184D01*
X652721Y618246D01*
X652752Y618305D01*
X652760Y618359D01*
X652772Y618396D01*
X652771Y618436D01*
X652779Y618490D01*
X652779Y621030D01*
X652768Y621095D01*
X652766Y621161D01*
X652748Y621204D01*
X652740Y621251D01*
X652706Y621308D01*
X652681Y621368D01*
X652650Y621403D01*
X652625Y621444D01*
X652574Y621486D01*
X652530Y621534D01*
X652488Y621556D01*
X652451Y621585D01*
X652389Y621606D01*
X652330Y621637D01*
X652276Y621645D01*
X652239Y621657D01*
X652199Y621656D01*
X652145Y621664D01*
X648335Y621664D01*
X648270Y621653D01*
X648204Y621651D01*
X648161Y621633D01*
X648114Y621625D01*
X648057Y621591D01*
X647997Y621566D01*
X647962Y621535D01*
X647921Y621510D01*
X647880Y621459D01*
X647831Y621415D01*
X647809Y621373D01*
X647780Y621336D01*
X647759Y621274D01*
X647728Y621215D01*
X647720Y621161D01*
X647708Y621124D01*
X647708Y621121D01*
X647709Y621084D01*
X647701Y621030D01*
X647701Y618490D01*
X647712Y618425D01*
X647714Y618359D01*
X647732Y618316D01*
X647740Y618269D01*
X647774Y618212D01*
X647799Y618152D01*
X647830Y618117D01*
X647855Y618076D01*
X647906Y618035D01*
X647950Y617986D01*
X647992Y617964D01*
X648029Y617935D01*
X648091Y617914D01*
X648150Y617883D01*
X648204Y617875D01*
X648241Y617863D01*
X648281Y617864D01*
X648335Y617856D01*
X652145Y617856D01*
X652210Y617867D01*
G37*
G36*
X1170370Y617867D02*
X1170370Y617867D01*
X1170436Y617869D01*
X1170479Y617887D01*
X1170526Y617895D01*
X1170583Y617929D01*
X1170643Y617954D01*
X1170678Y617985D01*
X1170719Y618010D01*
X1170761Y618061D01*
X1170809Y618105D01*
X1170831Y618147D01*
X1170860Y618184D01*
X1170881Y618246D01*
X1170912Y618305D01*
X1170920Y618359D01*
X1170932Y618396D01*
X1170931Y618436D01*
X1170939Y618490D01*
X1170939Y621030D01*
X1170928Y621095D01*
X1170926Y621161D01*
X1170908Y621204D01*
X1170900Y621251D01*
X1170866Y621308D01*
X1170841Y621368D01*
X1170810Y621403D01*
X1170785Y621444D01*
X1170734Y621486D01*
X1170690Y621534D01*
X1170648Y621556D01*
X1170611Y621585D01*
X1170549Y621606D01*
X1170490Y621637D01*
X1170436Y621645D01*
X1170399Y621657D01*
X1170359Y621656D01*
X1170305Y621664D01*
X1166495Y621664D01*
X1166430Y621653D01*
X1166364Y621651D01*
X1166321Y621633D01*
X1166274Y621625D01*
X1166217Y621591D01*
X1166157Y621566D01*
X1166122Y621535D01*
X1166081Y621510D01*
X1166040Y621459D01*
X1165991Y621415D01*
X1165969Y621373D01*
X1165940Y621336D01*
X1165919Y621274D01*
X1165888Y621215D01*
X1165880Y621161D01*
X1165868Y621124D01*
X1165868Y621121D01*
X1165869Y621084D01*
X1165861Y621030D01*
X1165861Y618490D01*
X1165872Y618425D01*
X1165874Y618359D01*
X1165892Y618316D01*
X1165900Y618269D01*
X1165934Y618212D01*
X1165959Y618152D01*
X1165990Y618117D01*
X1166015Y618076D01*
X1166066Y618035D01*
X1166110Y617986D01*
X1166152Y617964D01*
X1166189Y617935D01*
X1166251Y617914D01*
X1166310Y617883D01*
X1166364Y617875D01*
X1166401Y617863D01*
X1166441Y617864D01*
X1166495Y617856D01*
X1170305Y617856D01*
X1170370Y617867D01*
G37*
G36*
X1160210Y617867D02*
X1160210Y617867D01*
X1160276Y617869D01*
X1160319Y617887D01*
X1160366Y617895D01*
X1160423Y617929D01*
X1160483Y617954D01*
X1160518Y617985D01*
X1160559Y618010D01*
X1160601Y618061D01*
X1160649Y618105D01*
X1160671Y618147D01*
X1160700Y618184D01*
X1160721Y618246D01*
X1160752Y618305D01*
X1160760Y618359D01*
X1160772Y618396D01*
X1160771Y618436D01*
X1160779Y618490D01*
X1160779Y621030D01*
X1160768Y621095D01*
X1160766Y621161D01*
X1160748Y621204D01*
X1160740Y621251D01*
X1160706Y621308D01*
X1160681Y621368D01*
X1160650Y621403D01*
X1160625Y621444D01*
X1160574Y621486D01*
X1160530Y621534D01*
X1160488Y621556D01*
X1160451Y621585D01*
X1160389Y621606D01*
X1160330Y621637D01*
X1160276Y621645D01*
X1160239Y621657D01*
X1160199Y621656D01*
X1160145Y621664D01*
X1156335Y621664D01*
X1156270Y621653D01*
X1156204Y621651D01*
X1156161Y621633D01*
X1156114Y621625D01*
X1156057Y621591D01*
X1155997Y621566D01*
X1155962Y621535D01*
X1155921Y621510D01*
X1155880Y621459D01*
X1155831Y621415D01*
X1155809Y621373D01*
X1155780Y621336D01*
X1155759Y621274D01*
X1155728Y621215D01*
X1155720Y621161D01*
X1155708Y621124D01*
X1155708Y621121D01*
X1155709Y621084D01*
X1155701Y621030D01*
X1155701Y618490D01*
X1155712Y618425D01*
X1155714Y618359D01*
X1155732Y618316D01*
X1155740Y618269D01*
X1155774Y618212D01*
X1155799Y618152D01*
X1155830Y618117D01*
X1155855Y618076D01*
X1155906Y618035D01*
X1155950Y617986D01*
X1155992Y617964D01*
X1156029Y617935D01*
X1156091Y617914D01*
X1156150Y617883D01*
X1156204Y617875D01*
X1156241Y617863D01*
X1156281Y617864D01*
X1156335Y617856D01*
X1160145Y617856D01*
X1160210Y617867D01*
G37*
G36*
X901130Y617867D02*
X901130Y617867D01*
X901196Y617869D01*
X901239Y617887D01*
X901286Y617895D01*
X901343Y617929D01*
X901403Y617954D01*
X901438Y617985D01*
X901479Y618010D01*
X901521Y618061D01*
X901569Y618105D01*
X901591Y618147D01*
X901620Y618184D01*
X901641Y618246D01*
X901672Y618305D01*
X901680Y618359D01*
X901692Y618396D01*
X901691Y618436D01*
X901699Y618490D01*
X901699Y621030D01*
X901688Y621095D01*
X901686Y621161D01*
X901668Y621204D01*
X901660Y621251D01*
X901626Y621308D01*
X901601Y621368D01*
X901570Y621403D01*
X901545Y621444D01*
X901494Y621486D01*
X901450Y621534D01*
X901408Y621556D01*
X901371Y621585D01*
X901309Y621606D01*
X901250Y621637D01*
X901196Y621645D01*
X901159Y621657D01*
X901119Y621656D01*
X901065Y621664D01*
X897255Y621664D01*
X897190Y621653D01*
X897124Y621651D01*
X897081Y621633D01*
X897034Y621625D01*
X896977Y621591D01*
X896917Y621566D01*
X896882Y621535D01*
X896841Y621510D01*
X896800Y621459D01*
X896751Y621415D01*
X896729Y621373D01*
X896700Y621336D01*
X896679Y621274D01*
X896648Y621215D01*
X896640Y621161D01*
X896628Y621124D01*
X896628Y621121D01*
X896629Y621084D01*
X896621Y621030D01*
X896621Y618490D01*
X896632Y618425D01*
X896634Y618359D01*
X896652Y618316D01*
X896660Y618269D01*
X896694Y618212D01*
X896719Y618152D01*
X896750Y618117D01*
X896775Y618076D01*
X896826Y618035D01*
X896870Y617986D01*
X896912Y617964D01*
X896949Y617935D01*
X897011Y617914D01*
X897070Y617883D01*
X897124Y617875D01*
X897161Y617863D01*
X897201Y617864D01*
X897255Y617856D01*
X901065Y617856D01*
X901130Y617867D01*
G37*
G36*
X642050Y617867D02*
X642050Y617867D01*
X642116Y617869D01*
X642159Y617887D01*
X642206Y617895D01*
X642263Y617929D01*
X642323Y617954D01*
X642358Y617985D01*
X642399Y618010D01*
X642441Y618061D01*
X642489Y618105D01*
X642511Y618147D01*
X642540Y618184D01*
X642561Y618246D01*
X642592Y618305D01*
X642600Y618359D01*
X642612Y618396D01*
X642611Y618436D01*
X642619Y618490D01*
X642619Y621030D01*
X642608Y621095D01*
X642606Y621161D01*
X642588Y621204D01*
X642580Y621251D01*
X642546Y621308D01*
X642521Y621368D01*
X642490Y621403D01*
X642465Y621444D01*
X642414Y621486D01*
X642370Y621534D01*
X642328Y621556D01*
X642291Y621585D01*
X642229Y621606D01*
X642170Y621637D01*
X642116Y621645D01*
X642079Y621657D01*
X642039Y621656D01*
X641985Y621664D01*
X638175Y621664D01*
X638110Y621653D01*
X638044Y621651D01*
X638001Y621633D01*
X637954Y621625D01*
X637897Y621591D01*
X637837Y621566D01*
X637802Y621535D01*
X637761Y621510D01*
X637720Y621459D01*
X637671Y621415D01*
X637649Y621373D01*
X637620Y621336D01*
X637599Y621274D01*
X637568Y621215D01*
X637560Y621161D01*
X637548Y621124D01*
X637548Y621121D01*
X637549Y621084D01*
X637541Y621030D01*
X637541Y618490D01*
X637552Y618425D01*
X637554Y618359D01*
X637572Y618316D01*
X637580Y618269D01*
X637614Y618212D01*
X637639Y618152D01*
X637670Y618117D01*
X637695Y618076D01*
X637746Y618035D01*
X637790Y617986D01*
X637832Y617964D01*
X637869Y617935D01*
X637931Y617914D01*
X637990Y617883D01*
X638044Y617875D01*
X638081Y617863D01*
X638121Y617864D01*
X638175Y617856D01*
X641985Y617856D01*
X642050Y617867D01*
G37*
G36*
X642050Y358787D02*
X642050Y358787D01*
X642116Y358789D01*
X642159Y358807D01*
X642206Y358815D01*
X642263Y358849D01*
X642323Y358874D01*
X642358Y358905D01*
X642399Y358930D01*
X642441Y358981D01*
X642489Y359025D01*
X642511Y359067D01*
X642540Y359104D01*
X642561Y359166D01*
X642592Y359225D01*
X642600Y359279D01*
X642612Y359316D01*
X642611Y359356D01*
X642619Y359410D01*
X642619Y361950D01*
X642608Y362015D01*
X642606Y362081D01*
X642588Y362124D01*
X642580Y362171D01*
X642546Y362228D01*
X642521Y362288D01*
X642490Y362323D01*
X642465Y362364D01*
X642414Y362406D01*
X642370Y362454D01*
X642328Y362476D01*
X642291Y362505D01*
X642229Y362526D01*
X642170Y362557D01*
X642116Y362565D01*
X642079Y362577D01*
X642039Y362576D01*
X641985Y362584D01*
X638175Y362584D01*
X638110Y362573D01*
X638044Y362571D01*
X638001Y362553D01*
X637954Y362545D01*
X637897Y362511D01*
X637837Y362486D01*
X637802Y362455D01*
X637761Y362430D01*
X637720Y362379D01*
X637671Y362335D01*
X637649Y362293D01*
X637620Y362256D01*
X637599Y362194D01*
X637568Y362135D01*
X637560Y362081D01*
X637548Y362044D01*
X637548Y362041D01*
X637549Y362004D01*
X637541Y361950D01*
X637541Y359410D01*
X637552Y359345D01*
X637554Y359279D01*
X637572Y359236D01*
X637580Y359189D01*
X637614Y359132D01*
X637639Y359072D01*
X637670Y359037D01*
X637695Y358996D01*
X637746Y358955D01*
X637790Y358906D01*
X637832Y358884D01*
X637869Y358855D01*
X637931Y358834D01*
X637990Y358803D01*
X638044Y358795D01*
X638081Y358783D01*
X638121Y358784D01*
X638175Y358776D01*
X641985Y358776D01*
X642050Y358787D01*
G37*
G36*
X393130Y617867D02*
X393130Y617867D01*
X393196Y617869D01*
X393239Y617887D01*
X393286Y617895D01*
X393343Y617929D01*
X393403Y617954D01*
X393438Y617985D01*
X393479Y618010D01*
X393521Y618061D01*
X393569Y618105D01*
X393591Y618147D01*
X393620Y618184D01*
X393641Y618246D01*
X393672Y618305D01*
X393680Y618359D01*
X393692Y618396D01*
X393691Y618436D01*
X393699Y618490D01*
X393699Y621030D01*
X393688Y621095D01*
X393686Y621161D01*
X393668Y621204D01*
X393660Y621251D01*
X393626Y621308D01*
X393601Y621368D01*
X393570Y621403D01*
X393545Y621444D01*
X393494Y621486D01*
X393450Y621534D01*
X393408Y621556D01*
X393371Y621585D01*
X393309Y621606D01*
X393250Y621637D01*
X393196Y621645D01*
X393159Y621657D01*
X393119Y621656D01*
X393065Y621664D01*
X389255Y621664D01*
X389190Y621653D01*
X389124Y621651D01*
X389081Y621633D01*
X389034Y621625D01*
X388977Y621591D01*
X388917Y621566D01*
X388882Y621535D01*
X388841Y621510D01*
X388800Y621459D01*
X388751Y621415D01*
X388729Y621373D01*
X388700Y621336D01*
X388679Y621274D01*
X388648Y621215D01*
X388640Y621161D01*
X388628Y621124D01*
X388628Y621121D01*
X388629Y621084D01*
X388621Y621030D01*
X388621Y618490D01*
X388632Y618425D01*
X388634Y618359D01*
X388652Y618316D01*
X388660Y618269D01*
X388694Y618212D01*
X388719Y618152D01*
X388750Y618117D01*
X388775Y618076D01*
X388826Y618035D01*
X388870Y617986D01*
X388912Y617964D01*
X388949Y617935D01*
X389011Y617914D01*
X389070Y617883D01*
X389124Y617875D01*
X389161Y617863D01*
X389201Y617864D01*
X389255Y617856D01*
X393065Y617856D01*
X393130Y617867D01*
G37*
G36*
X382970Y617867D02*
X382970Y617867D01*
X383036Y617869D01*
X383079Y617887D01*
X383126Y617895D01*
X383183Y617929D01*
X383243Y617954D01*
X383278Y617985D01*
X383319Y618010D01*
X383361Y618061D01*
X383409Y618105D01*
X383431Y618147D01*
X383460Y618184D01*
X383481Y618246D01*
X383512Y618305D01*
X383520Y618359D01*
X383532Y618396D01*
X383531Y618436D01*
X383539Y618490D01*
X383539Y621030D01*
X383528Y621095D01*
X383526Y621161D01*
X383508Y621204D01*
X383500Y621251D01*
X383466Y621308D01*
X383441Y621368D01*
X383410Y621403D01*
X383385Y621444D01*
X383334Y621486D01*
X383290Y621534D01*
X383248Y621556D01*
X383211Y621585D01*
X383149Y621606D01*
X383090Y621637D01*
X383036Y621645D01*
X382999Y621657D01*
X382959Y621656D01*
X382905Y621664D01*
X379095Y621664D01*
X379030Y621653D01*
X378964Y621651D01*
X378921Y621633D01*
X378874Y621625D01*
X378817Y621591D01*
X378757Y621566D01*
X378722Y621535D01*
X378681Y621510D01*
X378640Y621459D01*
X378591Y621415D01*
X378569Y621373D01*
X378540Y621336D01*
X378519Y621274D01*
X378488Y621215D01*
X378480Y621161D01*
X378468Y621124D01*
X378468Y621121D01*
X378469Y621084D01*
X378461Y621030D01*
X378461Y618490D01*
X378472Y618425D01*
X378474Y618359D01*
X378492Y618316D01*
X378500Y618269D01*
X378534Y618212D01*
X378559Y618152D01*
X378590Y618117D01*
X378615Y618076D01*
X378666Y618035D01*
X378710Y617986D01*
X378752Y617964D01*
X378789Y617935D01*
X378851Y617914D01*
X378910Y617883D01*
X378964Y617875D01*
X379001Y617863D01*
X379041Y617864D01*
X379095Y617856D01*
X382905Y617856D01*
X382970Y617867D01*
G37*
G36*
X901130Y99707D02*
X901130Y99707D01*
X901196Y99709D01*
X901239Y99727D01*
X901286Y99735D01*
X901343Y99769D01*
X901403Y99794D01*
X901438Y99825D01*
X901479Y99850D01*
X901521Y99901D01*
X901569Y99945D01*
X901591Y99987D01*
X901620Y100024D01*
X901641Y100086D01*
X901672Y100145D01*
X901680Y100199D01*
X901692Y100236D01*
X901691Y100276D01*
X901699Y100330D01*
X901699Y102870D01*
X901688Y102935D01*
X901686Y103001D01*
X901668Y103044D01*
X901660Y103091D01*
X901626Y103148D01*
X901601Y103208D01*
X901570Y103243D01*
X901545Y103284D01*
X901494Y103326D01*
X901450Y103374D01*
X901408Y103396D01*
X901371Y103425D01*
X901309Y103446D01*
X901250Y103477D01*
X901196Y103485D01*
X901159Y103497D01*
X901119Y103496D01*
X901065Y103504D01*
X897255Y103504D01*
X897190Y103493D01*
X897124Y103491D01*
X897081Y103473D01*
X897034Y103465D01*
X896977Y103431D01*
X896917Y103406D01*
X896882Y103375D01*
X896841Y103350D01*
X896800Y103299D01*
X896751Y103255D01*
X896729Y103213D01*
X896700Y103176D01*
X896679Y103114D01*
X896648Y103055D01*
X896640Y103001D01*
X896628Y102964D01*
X896628Y102961D01*
X896629Y102924D01*
X896621Y102870D01*
X896621Y100330D01*
X896632Y100265D01*
X896634Y100199D01*
X896652Y100156D01*
X896660Y100109D01*
X896694Y100052D01*
X896719Y99992D01*
X896750Y99957D01*
X896775Y99916D01*
X896826Y99875D01*
X896870Y99826D01*
X896912Y99804D01*
X896949Y99775D01*
X897011Y99754D01*
X897070Y99723D01*
X897124Y99715D01*
X897161Y99703D01*
X897201Y99704D01*
X897255Y99696D01*
X901065Y99696D01*
X901130Y99707D01*
G37*
G36*
X652210Y99707D02*
X652210Y99707D01*
X652276Y99709D01*
X652319Y99727D01*
X652366Y99735D01*
X652423Y99769D01*
X652483Y99794D01*
X652518Y99825D01*
X652559Y99850D01*
X652601Y99901D01*
X652649Y99945D01*
X652671Y99987D01*
X652700Y100024D01*
X652721Y100086D01*
X652752Y100145D01*
X652760Y100199D01*
X652772Y100236D01*
X652771Y100276D01*
X652779Y100330D01*
X652779Y102870D01*
X652768Y102935D01*
X652766Y103001D01*
X652748Y103044D01*
X652740Y103091D01*
X652706Y103148D01*
X652681Y103208D01*
X652650Y103243D01*
X652625Y103284D01*
X652574Y103326D01*
X652530Y103374D01*
X652488Y103396D01*
X652451Y103425D01*
X652389Y103446D01*
X652330Y103477D01*
X652276Y103485D01*
X652239Y103497D01*
X652199Y103496D01*
X652145Y103504D01*
X648335Y103504D01*
X648270Y103493D01*
X648204Y103491D01*
X648161Y103473D01*
X648114Y103465D01*
X648057Y103431D01*
X647997Y103406D01*
X647962Y103375D01*
X647921Y103350D01*
X647880Y103299D01*
X647831Y103255D01*
X647809Y103213D01*
X647780Y103176D01*
X647759Y103114D01*
X647728Y103055D01*
X647720Y103001D01*
X647708Y102964D01*
X647708Y102961D01*
X647709Y102924D01*
X647701Y102870D01*
X647701Y100330D01*
X647712Y100265D01*
X647714Y100199D01*
X647732Y100156D01*
X647740Y100109D01*
X647774Y100052D01*
X647799Y99992D01*
X647830Y99957D01*
X647855Y99916D01*
X647906Y99875D01*
X647950Y99826D01*
X647992Y99804D01*
X648029Y99775D01*
X648091Y99754D01*
X648150Y99723D01*
X648204Y99715D01*
X648241Y99703D01*
X648281Y99704D01*
X648335Y99696D01*
X652145Y99696D01*
X652210Y99707D01*
G37*
G36*
X382970Y99707D02*
X382970Y99707D01*
X383036Y99709D01*
X383079Y99727D01*
X383126Y99735D01*
X383183Y99769D01*
X383243Y99794D01*
X383278Y99825D01*
X383319Y99850D01*
X383361Y99901D01*
X383409Y99945D01*
X383431Y99987D01*
X383460Y100024D01*
X383481Y100086D01*
X383512Y100145D01*
X383520Y100199D01*
X383532Y100236D01*
X383531Y100276D01*
X383539Y100330D01*
X383539Y102870D01*
X383528Y102935D01*
X383526Y103001D01*
X383508Y103044D01*
X383500Y103091D01*
X383466Y103148D01*
X383441Y103208D01*
X383410Y103243D01*
X383385Y103284D01*
X383334Y103326D01*
X383290Y103374D01*
X383248Y103396D01*
X383211Y103425D01*
X383149Y103446D01*
X383090Y103477D01*
X383036Y103485D01*
X382999Y103497D01*
X382959Y103496D01*
X382905Y103504D01*
X379095Y103504D01*
X379030Y103493D01*
X378964Y103491D01*
X378921Y103473D01*
X378874Y103465D01*
X378817Y103431D01*
X378757Y103406D01*
X378722Y103375D01*
X378681Y103350D01*
X378640Y103299D01*
X378591Y103255D01*
X378569Y103213D01*
X378540Y103176D01*
X378519Y103114D01*
X378488Y103055D01*
X378480Y103001D01*
X378468Y102964D01*
X378468Y102961D01*
X378469Y102924D01*
X378461Y102870D01*
X378461Y100330D01*
X378472Y100265D01*
X378474Y100199D01*
X378492Y100156D01*
X378500Y100109D01*
X378534Y100052D01*
X378559Y99992D01*
X378590Y99957D01*
X378615Y99916D01*
X378666Y99875D01*
X378710Y99826D01*
X378752Y99804D01*
X378789Y99775D01*
X378851Y99754D01*
X378910Y99723D01*
X378964Y99715D01*
X379001Y99703D01*
X379041Y99704D01*
X379095Y99696D01*
X382905Y99696D01*
X382970Y99707D01*
G37*
G36*
X1170370Y99707D02*
X1170370Y99707D01*
X1170436Y99709D01*
X1170479Y99727D01*
X1170526Y99735D01*
X1170583Y99769D01*
X1170643Y99794D01*
X1170678Y99825D01*
X1170719Y99850D01*
X1170761Y99901D01*
X1170809Y99945D01*
X1170831Y99987D01*
X1170860Y100024D01*
X1170881Y100086D01*
X1170912Y100145D01*
X1170920Y100199D01*
X1170932Y100236D01*
X1170931Y100276D01*
X1170939Y100330D01*
X1170939Y102870D01*
X1170928Y102935D01*
X1170926Y103001D01*
X1170908Y103044D01*
X1170900Y103091D01*
X1170866Y103148D01*
X1170841Y103208D01*
X1170810Y103243D01*
X1170785Y103284D01*
X1170734Y103326D01*
X1170690Y103374D01*
X1170648Y103396D01*
X1170611Y103425D01*
X1170549Y103446D01*
X1170490Y103477D01*
X1170436Y103485D01*
X1170399Y103497D01*
X1170359Y103496D01*
X1170305Y103504D01*
X1166495Y103504D01*
X1166430Y103493D01*
X1166364Y103491D01*
X1166321Y103473D01*
X1166274Y103465D01*
X1166217Y103431D01*
X1166157Y103406D01*
X1166122Y103375D01*
X1166081Y103350D01*
X1166040Y103299D01*
X1165991Y103255D01*
X1165969Y103213D01*
X1165940Y103176D01*
X1165919Y103114D01*
X1165888Y103055D01*
X1165880Y103001D01*
X1165868Y102964D01*
X1165868Y102961D01*
X1165869Y102924D01*
X1165861Y102870D01*
X1165861Y100330D01*
X1165872Y100265D01*
X1165874Y100199D01*
X1165892Y100156D01*
X1165900Y100109D01*
X1165934Y100052D01*
X1165959Y99992D01*
X1165990Y99957D01*
X1166015Y99916D01*
X1166066Y99875D01*
X1166110Y99826D01*
X1166152Y99804D01*
X1166189Y99775D01*
X1166251Y99754D01*
X1166310Y99723D01*
X1166364Y99715D01*
X1166401Y99703D01*
X1166441Y99704D01*
X1166495Y99696D01*
X1170305Y99696D01*
X1170370Y99707D01*
G37*
G36*
X393130Y99707D02*
X393130Y99707D01*
X393196Y99709D01*
X393239Y99727D01*
X393286Y99735D01*
X393343Y99769D01*
X393403Y99794D01*
X393438Y99825D01*
X393479Y99850D01*
X393521Y99901D01*
X393569Y99945D01*
X393591Y99987D01*
X393620Y100024D01*
X393641Y100086D01*
X393672Y100145D01*
X393680Y100199D01*
X393692Y100236D01*
X393691Y100276D01*
X393699Y100330D01*
X393699Y102870D01*
X393688Y102935D01*
X393686Y103001D01*
X393668Y103044D01*
X393660Y103091D01*
X393626Y103148D01*
X393601Y103208D01*
X393570Y103243D01*
X393545Y103284D01*
X393494Y103326D01*
X393450Y103374D01*
X393408Y103396D01*
X393371Y103425D01*
X393309Y103446D01*
X393250Y103477D01*
X393196Y103485D01*
X393159Y103497D01*
X393119Y103496D01*
X393065Y103504D01*
X389255Y103504D01*
X389190Y103493D01*
X389124Y103491D01*
X389081Y103473D01*
X389034Y103465D01*
X388977Y103431D01*
X388917Y103406D01*
X388882Y103375D01*
X388841Y103350D01*
X388800Y103299D01*
X388751Y103255D01*
X388729Y103213D01*
X388700Y103176D01*
X388679Y103114D01*
X388648Y103055D01*
X388640Y103001D01*
X388628Y102964D01*
X388628Y102961D01*
X388629Y102924D01*
X388621Y102870D01*
X388621Y100330D01*
X388632Y100265D01*
X388634Y100199D01*
X388652Y100156D01*
X388660Y100109D01*
X388694Y100052D01*
X388719Y99992D01*
X388750Y99957D01*
X388775Y99916D01*
X388826Y99875D01*
X388870Y99826D01*
X388912Y99804D01*
X388949Y99775D01*
X389011Y99754D01*
X389070Y99723D01*
X389124Y99715D01*
X389161Y99703D01*
X389201Y99704D01*
X389255Y99696D01*
X393065Y99696D01*
X393130Y99707D01*
G37*
G36*
X1160210Y99707D02*
X1160210Y99707D01*
X1160276Y99709D01*
X1160319Y99727D01*
X1160366Y99735D01*
X1160423Y99769D01*
X1160483Y99794D01*
X1160518Y99825D01*
X1160559Y99850D01*
X1160601Y99901D01*
X1160649Y99945D01*
X1160671Y99987D01*
X1160700Y100024D01*
X1160721Y100086D01*
X1160752Y100145D01*
X1160760Y100199D01*
X1160772Y100236D01*
X1160771Y100276D01*
X1160779Y100330D01*
X1160779Y102870D01*
X1160768Y102935D01*
X1160766Y103001D01*
X1160748Y103044D01*
X1160740Y103091D01*
X1160706Y103148D01*
X1160681Y103208D01*
X1160650Y103243D01*
X1160625Y103284D01*
X1160574Y103326D01*
X1160530Y103374D01*
X1160488Y103396D01*
X1160451Y103425D01*
X1160389Y103446D01*
X1160330Y103477D01*
X1160276Y103485D01*
X1160239Y103497D01*
X1160199Y103496D01*
X1160145Y103504D01*
X1156335Y103504D01*
X1156270Y103493D01*
X1156204Y103491D01*
X1156161Y103473D01*
X1156114Y103465D01*
X1156057Y103431D01*
X1155997Y103406D01*
X1155962Y103375D01*
X1155921Y103350D01*
X1155880Y103299D01*
X1155831Y103255D01*
X1155809Y103213D01*
X1155780Y103176D01*
X1155759Y103114D01*
X1155728Y103055D01*
X1155720Y103001D01*
X1155708Y102964D01*
X1155708Y102961D01*
X1155709Y102924D01*
X1155701Y102870D01*
X1155701Y100330D01*
X1155712Y100265D01*
X1155714Y100199D01*
X1155732Y100156D01*
X1155740Y100109D01*
X1155774Y100052D01*
X1155799Y99992D01*
X1155830Y99957D01*
X1155855Y99916D01*
X1155906Y99875D01*
X1155950Y99826D01*
X1155992Y99804D01*
X1156029Y99775D01*
X1156091Y99754D01*
X1156150Y99723D01*
X1156204Y99715D01*
X1156241Y99703D01*
X1156281Y99704D01*
X1156335Y99696D01*
X1160145Y99696D01*
X1160210Y99707D01*
G37*
G36*
X911290Y99707D02*
X911290Y99707D01*
X911356Y99709D01*
X911399Y99727D01*
X911446Y99735D01*
X911503Y99769D01*
X911563Y99794D01*
X911598Y99825D01*
X911639Y99850D01*
X911681Y99901D01*
X911729Y99945D01*
X911751Y99987D01*
X911780Y100024D01*
X911801Y100086D01*
X911832Y100145D01*
X911840Y100199D01*
X911852Y100236D01*
X911851Y100276D01*
X911859Y100330D01*
X911859Y102870D01*
X911848Y102935D01*
X911846Y103001D01*
X911828Y103044D01*
X911820Y103091D01*
X911786Y103148D01*
X911761Y103208D01*
X911730Y103243D01*
X911705Y103284D01*
X911654Y103326D01*
X911610Y103374D01*
X911568Y103396D01*
X911531Y103425D01*
X911469Y103446D01*
X911410Y103477D01*
X911356Y103485D01*
X911319Y103497D01*
X911279Y103496D01*
X911225Y103504D01*
X907415Y103504D01*
X907350Y103493D01*
X907284Y103491D01*
X907241Y103473D01*
X907194Y103465D01*
X907137Y103431D01*
X907077Y103406D01*
X907042Y103375D01*
X907001Y103350D01*
X906960Y103299D01*
X906911Y103255D01*
X906889Y103213D01*
X906860Y103176D01*
X906839Y103114D01*
X906808Y103055D01*
X906800Y103001D01*
X906788Y102964D01*
X906788Y102961D01*
X906789Y102924D01*
X906781Y102870D01*
X906781Y100330D01*
X906792Y100265D01*
X906794Y100199D01*
X906812Y100156D01*
X906820Y100109D01*
X906854Y100052D01*
X906879Y99992D01*
X906910Y99957D01*
X906935Y99916D01*
X906986Y99875D01*
X907030Y99826D01*
X907072Y99804D01*
X907109Y99775D01*
X907171Y99754D01*
X907230Y99723D01*
X907284Y99715D01*
X907321Y99703D01*
X907361Y99704D01*
X907415Y99696D01*
X911225Y99696D01*
X911290Y99707D01*
G37*
G36*
X134050Y99707D02*
X134050Y99707D01*
X134116Y99709D01*
X134159Y99727D01*
X134206Y99735D01*
X134263Y99769D01*
X134323Y99794D01*
X134358Y99825D01*
X134399Y99850D01*
X134441Y99901D01*
X134489Y99945D01*
X134511Y99987D01*
X134540Y100024D01*
X134561Y100086D01*
X134592Y100145D01*
X134600Y100199D01*
X134612Y100236D01*
X134611Y100276D01*
X134619Y100330D01*
X134619Y102870D01*
X134608Y102935D01*
X134606Y103001D01*
X134588Y103044D01*
X134580Y103091D01*
X134546Y103148D01*
X134521Y103208D01*
X134490Y103243D01*
X134465Y103284D01*
X134414Y103326D01*
X134370Y103374D01*
X134328Y103396D01*
X134291Y103425D01*
X134229Y103446D01*
X134170Y103477D01*
X134116Y103485D01*
X134079Y103497D01*
X134039Y103496D01*
X133985Y103504D01*
X130175Y103504D01*
X130110Y103493D01*
X130044Y103491D01*
X130001Y103473D01*
X129954Y103465D01*
X129897Y103431D01*
X129837Y103406D01*
X129802Y103375D01*
X129761Y103350D01*
X129720Y103299D01*
X129671Y103255D01*
X129649Y103213D01*
X129620Y103176D01*
X129599Y103114D01*
X129568Y103055D01*
X129560Y103001D01*
X129548Y102964D01*
X129548Y102961D01*
X129549Y102924D01*
X129541Y102870D01*
X129541Y100330D01*
X129552Y100265D01*
X129554Y100199D01*
X129572Y100156D01*
X129580Y100109D01*
X129614Y100052D01*
X129639Y99992D01*
X129670Y99957D01*
X129695Y99916D01*
X129746Y99875D01*
X129790Y99826D01*
X129832Y99804D01*
X129869Y99775D01*
X129931Y99754D01*
X129990Y99723D01*
X130044Y99715D01*
X130081Y99703D01*
X130121Y99704D01*
X130175Y99696D01*
X133985Y99696D01*
X134050Y99707D01*
G37*
G36*
X123890Y99707D02*
X123890Y99707D01*
X123956Y99709D01*
X123999Y99727D01*
X124046Y99735D01*
X124103Y99769D01*
X124163Y99794D01*
X124198Y99825D01*
X124239Y99850D01*
X124281Y99901D01*
X124329Y99945D01*
X124351Y99987D01*
X124380Y100024D01*
X124401Y100086D01*
X124432Y100145D01*
X124440Y100199D01*
X124452Y100236D01*
X124451Y100276D01*
X124459Y100330D01*
X124459Y102870D01*
X124448Y102935D01*
X124446Y103001D01*
X124428Y103044D01*
X124420Y103091D01*
X124386Y103148D01*
X124361Y103208D01*
X124330Y103243D01*
X124305Y103284D01*
X124254Y103326D01*
X124210Y103374D01*
X124168Y103396D01*
X124131Y103425D01*
X124069Y103446D01*
X124010Y103477D01*
X123956Y103485D01*
X123919Y103497D01*
X123879Y103496D01*
X123825Y103504D01*
X120015Y103504D01*
X119950Y103493D01*
X119884Y103491D01*
X119841Y103473D01*
X119794Y103465D01*
X119737Y103431D01*
X119677Y103406D01*
X119642Y103375D01*
X119601Y103350D01*
X119560Y103299D01*
X119511Y103255D01*
X119489Y103213D01*
X119460Y103176D01*
X119439Y103114D01*
X119408Y103055D01*
X119400Y103001D01*
X119388Y102964D01*
X119388Y102961D01*
X119389Y102924D01*
X119381Y102870D01*
X119381Y100330D01*
X119392Y100265D01*
X119394Y100199D01*
X119412Y100156D01*
X119420Y100109D01*
X119454Y100052D01*
X119479Y99992D01*
X119510Y99957D01*
X119535Y99916D01*
X119586Y99875D01*
X119630Y99826D01*
X119672Y99804D01*
X119709Y99775D01*
X119771Y99754D01*
X119830Y99723D01*
X119884Y99715D01*
X119921Y99703D01*
X119961Y99704D01*
X120015Y99696D01*
X123825Y99696D01*
X123890Y99707D01*
G37*
G36*
X642050Y99707D02*
X642050Y99707D01*
X642116Y99709D01*
X642159Y99727D01*
X642206Y99735D01*
X642263Y99769D01*
X642323Y99794D01*
X642358Y99825D01*
X642399Y99850D01*
X642441Y99901D01*
X642489Y99945D01*
X642511Y99987D01*
X642540Y100024D01*
X642561Y100086D01*
X642592Y100145D01*
X642600Y100199D01*
X642612Y100236D01*
X642611Y100276D01*
X642619Y100330D01*
X642619Y102870D01*
X642608Y102935D01*
X642606Y103001D01*
X642588Y103044D01*
X642580Y103091D01*
X642546Y103148D01*
X642521Y103208D01*
X642490Y103243D01*
X642465Y103284D01*
X642414Y103326D01*
X642370Y103374D01*
X642328Y103396D01*
X642291Y103425D01*
X642229Y103446D01*
X642170Y103477D01*
X642116Y103485D01*
X642079Y103497D01*
X642039Y103496D01*
X641985Y103504D01*
X638175Y103504D01*
X638110Y103493D01*
X638044Y103491D01*
X638001Y103473D01*
X637954Y103465D01*
X637897Y103431D01*
X637837Y103406D01*
X637802Y103375D01*
X637761Y103350D01*
X637720Y103299D01*
X637671Y103255D01*
X637649Y103213D01*
X637620Y103176D01*
X637599Y103114D01*
X637568Y103055D01*
X637560Y103001D01*
X637548Y102964D01*
X637548Y102961D01*
X637549Y102924D01*
X637541Y102870D01*
X637541Y100330D01*
X637552Y100265D01*
X637554Y100199D01*
X637572Y100156D01*
X637580Y100109D01*
X637614Y100052D01*
X637639Y99992D01*
X637670Y99957D01*
X637695Y99916D01*
X637746Y99875D01*
X637790Y99826D01*
X637832Y99804D01*
X637869Y99775D01*
X637931Y99754D01*
X637990Y99723D01*
X638044Y99715D01*
X638081Y99703D01*
X638121Y99704D01*
X638175Y99696D01*
X641985Y99696D01*
X642050Y99707D01*
G37*
D10*
X38100Y203200D03*
X215900Y203200D03*
D11*
X7620Y246380D03*
X245110Y8890D03*
D12*
X63500Y134493D03*
X63500Y144907D03*
D13*
X76200Y12700D03*
X101600Y12700D03*
X127000Y12700D03*
X152400Y12700D03*
D14*
X137414Y101600D03*
X127000Y101600D03*
X116586Y101600D03*
D15*
X90500Y181700D03*
X163500Y181700D03*
X163500Y224700D03*
D13*
X177800Y12700D03*
D12*
X165100Y144907D03*
X165100Y134493D03*
D16*
X190500Y135636D03*
X190500Y143764D03*
X215900Y135636D03*
X215900Y143764D03*
D10*
X297180Y203200D03*
X474980Y203200D03*
D11*
X266700Y246380D03*
X504190Y8890D03*
D12*
X322580Y134493D03*
X322580Y144907D03*
D13*
X335280Y12700D03*
X360680Y12700D03*
X386080Y12700D03*
X411480Y12700D03*
D14*
X396494Y101600D03*
X386080Y101600D03*
X375666Y101600D03*
D15*
X349580Y181700D03*
X422580Y181700D03*
X422580Y224700D03*
D13*
X436880Y12700D03*
D12*
X424180Y144907D03*
X424180Y134493D03*
D16*
X449580Y135636D03*
X449580Y143764D03*
X474980Y135636D03*
X474980Y143764D03*
D10*
X556260Y203200D03*
X734060Y203200D03*
D11*
X525780Y246380D03*
X763270Y8890D03*
D12*
X581660Y134493D03*
X581660Y144907D03*
D13*
X594360Y12700D03*
X619760Y12700D03*
X645160Y12700D03*
X670560Y12700D03*
D14*
X655574Y101600D03*
X645160Y101600D03*
X634746Y101600D03*
D15*
X608660Y181700D03*
X681660Y181700D03*
X681660Y224700D03*
D13*
X695960Y12700D03*
D12*
X683260Y144907D03*
X683260Y134493D03*
D16*
X708660Y135636D03*
X708660Y143764D03*
X734060Y135636D03*
X734060Y143764D03*
D10*
X815340Y203200D03*
X993140Y203200D03*
D11*
X784860Y246380D03*
X1022350Y8890D03*
D12*
X840740Y134493D03*
X840740Y144907D03*
D13*
X853440Y12700D03*
X878840Y12700D03*
X904240Y12700D03*
X929640Y12700D03*
D14*
X914654Y101600D03*
X904240Y101600D03*
X893826Y101600D03*
D15*
X867740Y181700D03*
X940740Y181700D03*
X940740Y224700D03*
D13*
X955040Y12700D03*
D12*
X942340Y144907D03*
X942340Y134493D03*
D16*
X967740Y135636D03*
X967740Y143764D03*
X993140Y135636D03*
X993140Y143764D03*
D10*
X1074420Y203200D03*
X1252220Y203200D03*
D11*
X1043940Y246380D03*
X1281430Y8890D03*
D12*
X1099820Y134493D03*
X1099820Y144907D03*
D13*
X1112520Y12700D03*
X1137920Y12700D03*
X1163320Y12700D03*
X1188720Y12700D03*
D14*
X1173734Y101600D03*
X1163320Y101600D03*
X1152906Y101600D03*
D15*
X1126820Y181700D03*
X1199820Y181700D03*
X1199820Y224700D03*
D13*
X1214120Y12700D03*
D12*
X1201420Y144907D03*
X1201420Y134493D03*
D16*
X1226820Y135636D03*
X1226820Y143764D03*
X1252220Y135636D03*
X1252220Y143764D03*
D10*
X38100Y462280D03*
X215900Y462280D03*
D11*
X7620Y505460D03*
X245110Y267970D03*
D12*
X63500Y393573D03*
X63500Y403987D03*
D13*
X76200Y271780D03*
X101600Y271780D03*
X127000Y271780D03*
X152400Y271780D03*
D14*
X137414Y360680D03*
X127000Y360680D03*
X116586Y360680D03*
D15*
X90500Y440780D03*
X163500Y440780D03*
X163500Y483780D03*
D13*
X177800Y271780D03*
D12*
X165100Y403987D03*
X165100Y393573D03*
D16*
X190500Y394716D03*
X190500Y402844D03*
X215900Y394716D03*
X215900Y402844D03*
D10*
X297180Y462280D03*
X474980Y462280D03*
D11*
X266700Y505460D03*
X504190Y267970D03*
D12*
X322580Y393573D03*
X322580Y403987D03*
D13*
X335280Y271780D03*
X360680Y271780D03*
X386080Y271780D03*
X411480Y271780D03*
D14*
X396494Y360680D03*
X386080Y360680D03*
X375666Y360680D03*
D15*
X349580Y440780D03*
X422580Y440780D03*
X422580Y483780D03*
D13*
X436880Y271780D03*
D12*
X424180Y403987D03*
X424180Y393573D03*
D16*
X449580Y394716D03*
X449580Y402844D03*
X474980Y394716D03*
X474980Y402844D03*
D10*
X556260Y462280D03*
X734060Y462280D03*
D11*
X525780Y505460D03*
X763270Y267970D03*
D12*
X581660Y393573D03*
X581660Y403987D03*
D13*
X594360Y271780D03*
X619760Y271780D03*
X645160Y271780D03*
X670560Y271780D03*
D14*
X655574Y360680D03*
X645160Y360680D03*
X634746Y360680D03*
D15*
X608660Y440780D03*
X681660Y440780D03*
X681660Y483780D03*
D13*
X695960Y271780D03*
D12*
X683260Y403987D03*
X683260Y393573D03*
D16*
X708660Y394716D03*
X708660Y402844D03*
X734060Y394716D03*
X734060Y402844D03*
D10*
X815340Y462280D03*
X993140Y462280D03*
D11*
X784860Y505460D03*
X1022350Y267970D03*
D12*
X840740Y393573D03*
X840740Y403987D03*
D13*
X853440Y271780D03*
X878840Y271780D03*
X904240Y271780D03*
X929640Y271780D03*
D14*
X914654Y360680D03*
X904240Y360680D03*
X893826Y360680D03*
D15*
X867740Y440780D03*
X940740Y440780D03*
X940740Y483780D03*
D13*
X955040Y271780D03*
D12*
X942340Y403987D03*
X942340Y393573D03*
D16*
X967740Y394716D03*
X967740Y402844D03*
X993140Y394716D03*
X993140Y402844D03*
D10*
X1074420Y462280D03*
X1252220Y462280D03*
D11*
X1043940Y505460D03*
X1281430Y267970D03*
D12*
X1099820Y393573D03*
X1099820Y403987D03*
D13*
X1112520Y271780D03*
X1137920Y271780D03*
X1163320Y271780D03*
X1188720Y271780D03*
D14*
X1173734Y360680D03*
X1163320Y360680D03*
X1152906Y360680D03*
D15*
X1126820Y440780D03*
X1199820Y440780D03*
X1199820Y483780D03*
D13*
X1214120Y271780D03*
D12*
X1201420Y403987D03*
X1201420Y393573D03*
D16*
X1226820Y394716D03*
X1226820Y402844D03*
X1252220Y394716D03*
X1252220Y402844D03*
D10*
X38100Y721360D03*
X215900Y721360D03*
D11*
X7620Y764540D03*
X245110Y527050D03*
D12*
X63500Y652653D03*
X63500Y663067D03*
D13*
X76200Y530860D03*
X101600Y530860D03*
X127000Y530860D03*
X152400Y530860D03*
D14*
X137414Y619760D03*
X127000Y619760D03*
X116586Y619760D03*
D15*
X90500Y699860D03*
X163500Y699860D03*
X163500Y742860D03*
D13*
X177800Y530860D03*
D12*
X165100Y663067D03*
X165100Y652653D03*
D16*
X190500Y653796D03*
X190500Y661924D03*
X215900Y653796D03*
X215900Y661924D03*
D10*
X297180Y721360D03*
X474980Y721360D03*
D11*
X266700Y764540D03*
X504190Y527050D03*
D12*
X322580Y652653D03*
X322580Y663067D03*
D13*
X335280Y530860D03*
X360680Y530860D03*
X386080Y530860D03*
X411480Y530860D03*
D14*
X396494Y619760D03*
X386080Y619760D03*
X375666Y619760D03*
D15*
X349580Y699860D03*
X422580Y699860D03*
X422580Y742860D03*
D13*
X436880Y530860D03*
D12*
X424180Y663067D03*
X424180Y652653D03*
D16*
X449580Y653796D03*
X449580Y661924D03*
X474980Y653796D03*
X474980Y661924D03*
D10*
X556260Y721360D03*
X734060Y721360D03*
D11*
X525780Y764540D03*
X763270Y527050D03*
D12*
X581660Y652653D03*
X581660Y663067D03*
D13*
X594360Y530860D03*
X619760Y530860D03*
X645160Y530860D03*
X670560Y530860D03*
D14*
X655574Y619760D03*
X645160Y619760D03*
X634746Y619760D03*
D15*
X608660Y699860D03*
X681660Y699860D03*
X681660Y742860D03*
D13*
X695960Y530860D03*
D12*
X683260Y663067D03*
X683260Y652653D03*
D16*
X708660Y653796D03*
X708660Y661924D03*
X734060Y653796D03*
X734060Y661924D03*
D10*
X815340Y721360D03*
X993140Y721360D03*
D11*
X784860Y764540D03*
X1022350Y527050D03*
D12*
X840740Y652653D03*
X840740Y663067D03*
D13*
X853440Y530860D03*
X878840Y530860D03*
X904240Y530860D03*
X929640Y530860D03*
D14*
X914654Y619760D03*
X904240Y619760D03*
X893826Y619760D03*
D15*
X867740Y699860D03*
X940740Y699860D03*
X940740Y742860D03*
D13*
X955040Y530860D03*
D12*
X942340Y663067D03*
X942340Y652653D03*
D16*
X967740Y653796D03*
X967740Y661924D03*
X993140Y653796D03*
X993140Y661924D03*
D10*
X1074420Y721360D03*
X1252220Y721360D03*
D11*
X1043940Y764540D03*
X1281430Y527050D03*
D12*
X1099820Y652653D03*
X1099820Y663067D03*
D13*
X1112520Y530860D03*
X1137920Y530860D03*
X1163320Y530860D03*
X1188720Y530860D03*
D14*
X1173734Y619760D03*
X1163320Y619760D03*
X1152906Y619760D03*
D15*
X1126820Y699860D03*
X1199820Y699860D03*
X1199820Y742860D03*
D13*
X1214120Y530860D03*
D12*
X1201420Y663067D03*
X1201420Y652653D03*
D16*
X1226820Y653796D03*
X1226820Y661924D03*
X1252220Y653796D03*
X1252220Y661924D03*
D10*
X38100Y980440D03*
X215900Y980440D03*
D11*
X7620Y1023620D03*
X245110Y786130D03*
D12*
X63500Y911733D03*
X63500Y922147D03*
D13*
X76200Y789940D03*
X101600Y789940D03*
X127000Y789940D03*
X152400Y789940D03*
D14*
X137414Y878840D03*
X127000Y878840D03*
X116586Y878840D03*
D15*
X90500Y958940D03*
X163500Y958940D03*
X163500Y1001940D03*
D13*
X177800Y789940D03*
D12*
X165100Y922147D03*
X165100Y911733D03*
D16*
X190500Y912876D03*
X190500Y921004D03*
X215900Y912876D03*
X215900Y921004D03*
D10*
X297180Y980440D03*
X474980Y980440D03*
D11*
X266700Y1023620D03*
X504190Y786130D03*
D12*
X322580Y911733D03*
X322580Y922147D03*
D13*
X335280Y789940D03*
X360680Y789940D03*
X386080Y789940D03*
X411480Y789940D03*
D14*
X396494Y878840D03*
X386080Y878840D03*
X375666Y878840D03*
D15*
X349580Y958940D03*
X422580Y958940D03*
X422580Y1001940D03*
D13*
X436880Y789940D03*
D12*
X424180Y922147D03*
X424180Y911733D03*
D16*
X449580Y912876D03*
X449580Y921004D03*
X474980Y912876D03*
X474980Y921004D03*
D10*
X556260Y980440D03*
X734060Y980440D03*
D11*
X525780Y1023620D03*
X763270Y786130D03*
D12*
X581660Y911733D03*
X581660Y922147D03*
D13*
X594360Y789940D03*
X619760Y789940D03*
X645160Y789940D03*
X670560Y789940D03*
D14*
X655574Y878840D03*
X645160Y878840D03*
X634746Y878840D03*
D15*
X608660Y958940D03*
X681660Y958940D03*
X681660Y1001940D03*
D13*
X695960Y789940D03*
D12*
X683260Y922147D03*
X683260Y911733D03*
D16*
X708660Y912876D03*
X708660Y921004D03*
X734060Y912876D03*
X734060Y921004D03*
D10*
X815340Y980440D03*
X993140Y980440D03*
D11*
X784860Y1023620D03*
X1022350Y786130D03*
D12*
X840740Y911733D03*
X840740Y922147D03*
D13*
X853440Y789940D03*
X878840Y789940D03*
X904240Y789940D03*
X929640Y789940D03*
D14*
X914654Y878840D03*
X904240Y878840D03*
X893826Y878840D03*
D15*
X867740Y958940D03*
X940740Y958940D03*
X940740Y1001940D03*
D13*
X955040Y789940D03*
D12*
X942340Y922147D03*
X942340Y911733D03*
D16*
X967740Y912876D03*
X967740Y921004D03*
X993140Y912876D03*
X993140Y921004D03*
D10*
X1074420Y980440D03*
X1252220Y980440D03*
D11*
X1043940Y1023620D03*
X1281430Y786130D03*
D12*
X1099820Y911733D03*
X1099820Y922147D03*
D13*
X1112520Y789940D03*
X1137920Y789940D03*
X1163320Y789940D03*
X1188720Y789940D03*
D14*
X1173734Y878840D03*
X1163320Y878840D03*
X1152906Y878840D03*
D15*
X1126820Y958940D03*
X1199820Y958940D03*
X1199820Y1001940D03*
D13*
X1214120Y789940D03*
D12*
X1201420Y922147D03*
X1201420Y911733D03*
D16*
X1226820Y912876D03*
X1226820Y921004D03*
X1252220Y912876D03*
X1252220Y921004D03*
D10*
X38100Y1239520D03*
X215900Y1239520D03*
D11*
X7620Y1282700D03*
X245110Y1045210D03*
D12*
X63500Y1170813D03*
X63500Y1181227D03*
D13*
X76200Y1049020D03*
X101600Y1049020D03*
X127000Y1049020D03*
X152400Y1049020D03*
D14*
X137414Y1137920D03*
X127000Y1137920D03*
X116586Y1137920D03*
D15*
X90500Y1218020D03*
X163500Y1218020D03*
X163500Y1261020D03*
D13*
X177800Y1049020D03*
D12*
X165100Y1181227D03*
X165100Y1170813D03*
D16*
X190500Y1171956D03*
X190500Y1180084D03*
X215900Y1171956D03*
X215900Y1180084D03*
D10*
X297180Y1239520D03*
X474980Y1239520D03*
D11*
X266700Y1282700D03*
X504190Y1045210D03*
D12*
X322580Y1170813D03*
X322580Y1181227D03*
D13*
X335280Y1049020D03*
X360680Y1049020D03*
X386080Y1049020D03*
X411480Y1049020D03*
D14*
X396494Y1137920D03*
X386080Y1137920D03*
X375666Y1137920D03*
D15*
X349580Y1218020D03*
X422580Y1218020D03*
X422580Y1261020D03*
D13*
X436880Y1049020D03*
D12*
X424180Y1181227D03*
X424180Y1170813D03*
D16*
X449580Y1171956D03*
X449580Y1180084D03*
X474980Y1171956D03*
X474980Y1180084D03*
D10*
X556260Y1239520D03*
X734060Y1239520D03*
D11*
X525780Y1282700D03*
X763270Y1045210D03*
D12*
X581660Y1170813D03*
X581660Y1181227D03*
D13*
X594360Y1049020D03*
X619760Y1049020D03*
X645160Y1049020D03*
X670560Y1049020D03*
D14*
X655574Y1137920D03*
X645160Y1137920D03*
X634746Y1137920D03*
D15*
X608660Y1218020D03*
X681660Y1218020D03*
X681660Y1261020D03*
D13*
X695960Y1049020D03*
D12*
X683260Y1181227D03*
X683260Y1170813D03*
D16*
X708660Y1171956D03*
X708660Y1180084D03*
X734060Y1171956D03*
X734060Y1180084D03*
D10*
X815340Y1239520D03*
X993140Y1239520D03*
D11*
X784860Y1282700D03*
X1022350Y1045210D03*
D12*
X840740Y1170813D03*
X840740Y1181227D03*
D13*
X853440Y1049020D03*
X878840Y1049020D03*
X904240Y1049020D03*
X929640Y1049020D03*
D14*
X914654Y1137920D03*
X904240Y1137920D03*
X893826Y1137920D03*
D15*
X867740Y1218020D03*
X940740Y1218020D03*
X940740Y1261020D03*
D13*
X955040Y1049020D03*
D12*
X942340Y1181227D03*
X942340Y1170813D03*
D16*
X967740Y1171956D03*
X967740Y1180084D03*
X993140Y1171956D03*
X993140Y1180084D03*
D10*
X1074420Y1239520D03*
X1252220Y1239520D03*
D11*
X1043940Y1282700D03*
X1281430Y1045210D03*
D12*
X1099820Y1170813D03*
X1099820Y1181227D03*
D13*
X1112520Y1049020D03*
X1137920Y1049020D03*
X1163320Y1049020D03*
X1188720Y1049020D03*
D14*
X1173734Y1137920D03*
X1163320Y1137920D03*
X1152906Y1137920D03*
D15*
X1126820Y1218020D03*
X1199820Y1218020D03*
X1199820Y1261020D03*
D13*
X1214120Y1049020D03*
D12*
X1201420Y1181227D03*
X1201420Y1170813D03*
D16*
X1226820Y1171956D03*
X1226820Y1180084D03*
X1252220Y1171956D03*
X1252220Y1180084D03*
D17*
X68580Y1311275D03*
X1221105Y1311275D03*
D18*
X59525Y-20955D02*
X59528Y-20733D01*
X59536Y-20511D01*
X59550Y-20289D01*
X59569Y-20067D01*
X59593Y-19847D01*
X59623Y-19626D01*
X59658Y-19407D01*
X59699Y-19188D01*
X59745Y-18971D01*
X59796Y-18755D01*
X59853Y-18540D01*
X59915Y-18326D01*
X59982Y-18115D01*
X60054Y-17904D01*
X60132Y-17696D01*
X60214Y-17490D01*
X60302Y-17286D01*
X60394Y-17083D01*
X60492Y-16884D01*
X60594Y-16687D01*
X60701Y-16492D01*
X60813Y-16300D01*
X60930Y-16111D01*
X61051Y-15924D01*
X61177Y-15741D01*
X61307Y-15561D01*
X61442Y-15384D01*
X61580Y-15211D01*
X61723Y-15041D01*
X61871Y-14874D01*
X62022Y-14711D01*
X62177Y-14552D01*
X62336Y-14397D01*
X62499Y-14246D01*
X62666Y-14098D01*
X62836Y-13955D01*
X63009Y-13817D01*
X63186Y-13682D01*
X63366Y-13552D01*
X63549Y-13426D01*
X63736Y-13305D01*
X63925Y-13188D01*
X64117Y-13076D01*
X64312Y-12969D01*
X64509Y-12867D01*
X64708Y-12769D01*
X64911Y-12677D01*
X65115Y-12589D01*
X65321Y-12507D01*
X65529Y-12429D01*
X65740Y-12357D01*
X65951Y-12290D01*
X66165Y-12228D01*
X66380Y-12171D01*
X66596Y-12120D01*
X66813Y-12074D01*
X67032Y-12033D01*
X67251Y-11998D01*
X67472Y-11968D01*
X67692Y-11944D01*
X67914Y-11925D01*
X68136Y-11911D01*
X68358Y-11903D01*
X68580Y-11900D01*
X68802Y-11903D01*
X69024Y-11911D01*
X69246Y-11925D01*
X69468Y-11944D01*
X69688Y-11968D01*
X69909Y-11998D01*
X70128Y-12033D01*
X70347Y-12074D01*
X70564Y-12120D01*
X70780Y-12171D01*
X70995Y-12228D01*
X71209Y-12290D01*
X71420Y-12357D01*
X71631Y-12429D01*
X71839Y-12507D01*
X72045Y-12589D01*
X72249Y-12677D01*
X72452Y-12769D01*
X72651Y-12867D01*
X72848Y-12969D01*
X73043Y-13076D01*
X73235Y-13188D01*
X73424Y-13305D01*
X73611Y-13426D01*
X73794Y-13552D01*
X73974Y-13682D01*
X74151Y-13817D01*
X74324Y-13955D01*
X74494Y-14098D01*
X74661Y-14246D01*
X74824Y-14397D01*
X74983Y-14552D01*
X75138Y-14711D01*
X75289Y-14874D01*
X75437Y-15041D01*
X75580Y-15211D01*
X75718Y-15384D01*
X75853Y-15561D01*
X75983Y-15741D01*
X76109Y-15924D01*
X76230Y-16111D01*
X76347Y-16300D01*
X76459Y-16492D01*
X76566Y-16687D01*
X76668Y-16884D01*
X76766Y-17083D01*
X76858Y-17286D01*
X76946Y-17490D01*
X77028Y-17696D01*
X77106Y-17904D01*
X77178Y-18115D01*
X77245Y-18326D01*
X77307Y-18540D01*
X77364Y-18755D01*
X77415Y-18971D01*
X77461Y-19188D01*
X77502Y-19407D01*
X77537Y-19626D01*
X77567Y-19847D01*
X77591Y-20067D01*
X77610Y-20289D01*
X77624Y-20511D01*
X77632Y-20733D01*
X77635Y-20955D01*
X77632Y-21177D01*
X77624Y-21399D01*
X77610Y-21621D01*
X77591Y-21843D01*
X77567Y-22063D01*
X77537Y-22284D01*
X77502Y-22503D01*
X77461Y-22722D01*
X77415Y-22939D01*
X77364Y-23155D01*
X77307Y-23370D01*
X77245Y-23584D01*
X77178Y-23795D01*
X77106Y-24006D01*
X77028Y-24214D01*
X76946Y-24420D01*
X76858Y-24624D01*
X76766Y-24827D01*
X76668Y-25026D01*
X76566Y-25223D01*
X76459Y-25418D01*
X76347Y-25610D01*
X76230Y-25799D01*
X76109Y-25986D01*
X75983Y-26169D01*
X75853Y-26349D01*
X75718Y-26526D01*
X75580Y-26699D01*
X75437Y-26869D01*
X75289Y-27036D01*
X75138Y-27199D01*
X74983Y-27358D01*
X74824Y-27513D01*
X74661Y-27664D01*
X74494Y-27812D01*
X74324Y-27955D01*
X74151Y-28093D01*
X73974Y-28228D01*
X73794Y-28358D01*
X73611Y-28484D01*
X73424Y-28605D01*
X73235Y-28722D01*
X73043Y-28834D01*
X72848Y-28941D01*
X72651Y-29043D01*
X72452Y-29141D01*
X72249Y-29233D01*
X72045Y-29321D01*
X71839Y-29403D01*
X71631Y-29481D01*
X71420Y-29553D01*
X71209Y-29620D01*
X70995Y-29682D01*
X70780Y-29739D01*
X70564Y-29790D01*
X70347Y-29836D01*
X70128Y-29877D01*
X69909Y-29912D01*
X69688Y-29942D01*
X69468Y-29966D01*
X69246Y-29985D01*
X69024Y-29999D01*
X68802Y-30007D01*
X68580Y-30010D01*
X68358Y-30007D01*
X68136Y-29999D01*
X67914Y-29985D01*
X67692Y-29966D01*
X67472Y-29942D01*
X67251Y-29912D01*
X67032Y-29877D01*
X66813Y-29836D01*
X66596Y-29790D01*
X66380Y-29739D01*
X66165Y-29682D01*
X65951Y-29620D01*
X65740Y-29553D01*
X65529Y-29481D01*
X65321Y-29403D01*
X65115Y-29321D01*
X64911Y-29233D01*
X64708Y-29141D01*
X64509Y-29043D01*
X64312Y-28941D01*
X64117Y-28834D01*
X63925Y-28722D01*
X63736Y-28605D01*
X63549Y-28484D01*
X63366Y-28358D01*
X63186Y-28228D01*
X63009Y-28093D01*
X62836Y-27955D01*
X62666Y-27812D01*
X62499Y-27664D01*
X62336Y-27513D01*
X62177Y-27358D01*
X62022Y-27199D01*
X61871Y-27036D01*
X61723Y-26869D01*
X61580Y-26699D01*
X61442Y-26526D01*
X61307Y-26349D01*
X61177Y-26169D01*
X61051Y-25986D01*
X60930Y-25799D01*
X60813Y-25610D01*
X60701Y-25418D01*
X60594Y-25223D01*
X60492Y-25026D01*
X60394Y-24827D01*
X60302Y-24624D01*
X60214Y-24420D01*
X60132Y-24214D01*
X60054Y-24006D01*
X59982Y-23795D01*
X59915Y-23584D01*
X59853Y-23370D01*
X59796Y-23155D01*
X59745Y-22939D01*
X59699Y-22722D01*
X59658Y-22503D01*
X59623Y-22284D01*
X59593Y-22063D01*
X59569Y-21843D01*
X59550Y-21621D01*
X59536Y-21399D01*
X59528Y-21177D01*
X59525Y-20955D01*
D19*
X68580Y-20955D03*
M02*
